<?xml version="1.0" encoding="utf-8"?>
<!-- Generator: Adobe Illustrator 17.0.0, SVG Export Plug-In . SVG Version: 6.00 Build 0)  -->
<!DOCTYPE svg PUBLIC "-//W3C//DTD SVG 1.1//EN" "http://www.w3.org/Graphics/SVG/1.1/DTD/svg11.dtd">
<svg version="1.1" id="Layer_1" xmlns="http://www.w3.org/2000/svg" xmlns:xlink="http://www.w3.org/1999/xlink" x="0px" y="0px"
	 width="111.744px" height="167px" viewBox="0 0 111.744 167" enable-background="new 0 0 111.744 167" xml:space="preserve">
<g>
	<g>
		<path fill="#8C2816" d="M60.798,23.777h6.484c2.51,0.018,4.863,1.014,6.624,2.801c1.762,1.788,2.722,4.155,2.703,6.665
			c-0.038,5.181-4.319,9.354-9.503,9.328h-4.761c-6.555,0-11.889,5.333-11.889,11.888v3.177c0,0.688,0.558,1.246,1.246,1.246
			s1.246-0.558,1.246-1.246v-3.177c0-5.181,4.216-9.397,9.398-9.397h0.657c-2.789,2.159-4.606,5.522-4.634,9.319v9.773
			c0,0.688,0.557,1.246,1.246,1.246c0.688,0,1.246-0.558,1.246-1.246V54.39c0.038-5.158,4.247-9.328,9.432-9.328
			c0.022,0,0.047,0,0.07,0l0.014,0l4.709,0c0.031,0,0.061,0,0.091,0c3.141,0,6.101-1.213,8.341-3.42
			c2.263-2.229,3.521-5.205,3.544-8.381c0.023-3.175-1.191-6.17-3.42-8.432c-2.228-2.262-5.204-3.521-8.389-3.544H67.3h-0.009
			h-6.493c-5.182,0-9.397-4.216-9.397-9.397c0-5.182,4.215-9.397,9.397-9.397c0.688,0,1.246-0.558,1.246-1.246
			C62.044,0.558,61.486,0,60.798,0c-6.555,0-11.889,5.333-11.889,11.889C48.909,18.444,54.243,23.777,60.798,23.777z M75.244,23.777
			c2.51,0.018,4.862,1.014,6.624,2.801c1.761,1.788,2.721,4.155,2.702,6.665c-0.019,2.51-1.013,4.863-2.801,6.625
			c-1.788,1.761-4.151,2.699-6.696,2.703h-0.606c2.788-2.158,4.604-5.518,4.633-9.309c0.023-3.175-1.191-6.17-3.42-8.432
			c-0.379-0.384-0.785-0.728-1.204-1.053H75.244z"/>
		<path fill="#8C2816" d="M111.744,110.235c0-9.106-2.376-18.117-6.871-26.058c-0.221-0.391-0.635-0.632-1.084-0.632h-9.882
			L79.416,56.469c-0.217-0.405-0.639-0.658-1.099-0.658c-0.459,0-0.882,0.253-1.099,0.658L66.731,76.063
			c-0.931-1.464-2.382-2.559-4.112-3.006c-0.787-3.029-3.54-5.214-6.747-5.214s-5.96,2.186-6.747,5.215
			c-1.701,0.442-3.141,1.517-4.077,2.961L34.585,56.469c-0.217-0.405-0.639-0.658-1.099-0.658c-0.459,0-0.882,0.253-1.099,0.658
			L17.895,83.545h-9.94c-0.449,0-0.863,0.241-1.084,0.632C2.376,92.118,0,101.129,0,110.235c0,22.5,14.498,42.794,36.142,50.725
			v4.794c0,0.688,0.558,1.246,1.246,1.246h36.97c0.688,0,1.246-0.558,1.246-1.246v-4.795
			C97.247,153.029,111.744,132.735,111.744,110.235z M78.317,59.696l12.764,23.848H72.703c-0.434-2.391-2.1-4.367-4.347-5.237
			L78.317,59.696z M50.34,75.357c0.568-0.069,1.017-0.517,1.086-1.086c0.272-2.244,2.184-3.937,4.446-3.937s4.174,1.693,4.446,3.937
			c0.069,0.569,0.518,1.017,1.087,1.086c2.047,0.249,3.651,1.853,3.899,3.9c0.069,0.569,0.518,1.017,1.087,1.087
			c1.814,0.221,3.251,1.519,3.742,3.201H49.076l-2.548-4.76C46.953,76.958,48.471,75.584,50.34,75.357z M33.486,59.696L46.25,83.545
			H20.722L33.486,59.696z M73.112,164.509H38.633v-3.239h34.479V164.509z M74.335,158.779H37.409
			c-20.894-7.464-34.918-26.946-34.918-48.544c0-8.436,2.14-16.787,6.196-24.199h39.62c0.009,0,0.017,0.003,0.017,0.003
			c0.018,0,0.027-0.003,0.036-0.003h44.778c0,0,0.017,0.003,0.025,0.003c0.009,0,0.019-0.003,0.028-0.003h9.866
			c4.056,7.412,6.196,15.763,6.196,24.199C109.253,131.834,95.229,151.315,74.335,158.779z"/>
		<path fill="#8C2816" d="M31.858,73.909h-1.659c-0.688,0-1.246,0.558-1.246,1.246c0,0.688,0.558,1.246,1.246,1.246h1.659
			c0.688,0,1.246-0.558,1.246-1.246C33.104,74.466,32.546,73.909,31.858,73.909z"/>
		<path fill="#8C2816" d="M34.184,66.771h-0.995c-0.688,0-1.246,0.558-1.246,1.246c0,0.688,0.558,1.246,1.246,1.246h0.995
			c0.688,0,1.246-0.558,1.246-1.246C35.429,67.328,34.872,66.771,34.184,66.771z"/>
		<path fill="#8C2816" d="M39.499,78.558H37.84c-0.688,0-1.246,0.558-1.246,1.246c0,0.688,0.558,1.246,1.246,1.246h1.659
			c0.688,0,1.246-0.558,1.246-1.246C40.745,79.115,40.187,78.558,39.499,78.558z"/>
		<path fill="#8C2816" d="M75.03,73.408h1.659c0.688,0,1.246-0.558,1.246-1.246s-0.558-1.246-1.246-1.246H75.03
			c-0.688,0-1.246,0.558-1.246,1.246S74.342,73.408,75.03,73.408z"/>
		<path fill="#8C2816" d="M78.019,67.268h0.995c0.688,0,1.246-0.558,1.246-1.246c0-0.688-0.558-1.246-1.246-1.246h-0.995
			c-0.688,0-1.246,0.558-1.246,1.246C76.774,66.71,77.331,67.268,78.019,67.268z"/>
		<path fill="#8C2816" d="M79.431,78.806c0,0.688,0.558,1.246,1.246,1.246h1.66c0.688,0,1.246-0.558,1.246-1.246
			c0-0.688-0.558-1.246-1.246-1.246h-1.66C79.988,77.561,79.431,78.118,79.431,78.806z"/>
		<path fill="#8C2816" d="M51.702,60.998c-0.688,0-1.246,0.558-1.246,1.246v1.91c0,0.688,0.558,1.246,1.246,1.246
			s1.246-0.558,1.246-1.246v-1.91C52.948,61.555,52.39,60.998,51.702,60.998z"/>
	</g>
	<path opacity="0.25" fill="#8C2816" d="M87.062,84.845c0,0,23.754,41.667-19.076,74.358l4.827,1.101h1.91
		c0,0,21.344-5.027,32.063-30.46c10.719-25.433-3.333-45-3.333-45H87.062z"/>
	<rect x="67.986" y="160.919" opacity="0.25" fill="#8C2816" width="5.702" height="5.449"/>
</g>
</svg>
