<?xml version="1.0" encoding="utf-8"?>
<!-- Generator: Adobe Illustrator 17.0.0, SVG Export Plug-In . SVG Version: 6.00 Build 0)  -->
<!DOCTYPE svg PUBLIC "-//W3C//DTD SVG 1.1//EN" "http://www.w3.org/Graphics/SVG/1.1/DTD/svg11.dtd">
<svg version="1.1" id="Layer_1" xmlns="http://www.w3.org/2000/svg" xmlns:xlink="http://www.w3.org/1999/xlink" x="0px" y="0px"
	 width="119.906px" height="121px" viewBox="0 0 119.906 121" enable-background="new 0 0 119.906 121" xml:space="preserve">
<g>
	<g>
		<path fill="#8C2816" d="M12.335,65.112c5.823,0,20.142-9.943,29.546-19.347C52.643,35.003,64.109,17.805,60.574,14.27
			c-0.446-0.446-1.11-0.653-1.95-0.653c-5.822,0-20.141,9.942-29.546,19.347C18.316,43.725,6.85,60.924,10.385,64.459
			C10.831,64.905,11.494,65.112,12.335,65.112z M17.157,51.686c3.679-5.726,8.796-12.064,13.688-16.956
			c9.395-9.395,23.154-18.615,27.779-18.615c0.042,0,0.08,0.001,0.113,0.003c0.069,1.021-0.68,4.302-4.936,10.925
			c-3.679,5.726-8.796,12.064-13.688,16.956c-9.395,9.394-23.154,18.615-27.779,18.615c-0.042,0-0.08-0.001-0.113-0.003
			C12.153,61.59,12.902,58.309,17.157,51.686z"/>
		<path fill="#8C2816" d="M59.452,94.624c-2.74,0.08-5.471-0.788-7.653-2.453c-0.549-0.42-1.334-0.314-1.751,0.234
			c-0.419,0.549-0.314,1.333,0.234,1.751c2.521,1.925,5.633,2.971,8.807,2.971c0.146,0,0.293-0.002,0.439-0.007
			c0.69-0.021,1.232-0.596,1.21-1.286C60.718,95.145,60.145,94.585,59.452,94.624z"/>
		<path fill="#8C2816" d="M85.264,24.727c0.179-0.666-0.217-1.351-0.883-1.53c-2.659-0.713-5.01-2.331-6.62-4.556
			c-0.404-0.559-1.188-0.686-1.744-0.28c-0.559,0.404-0.684,1.186-0.28,1.744c1.945,2.689,4.785,4.644,7.998,5.505
			c0.108,0.029,0.217,0.043,0.324,0.043C84.61,25.653,85.115,25.285,85.264,24.727z"/>
		<path fill="#8C2816" d="M92.003,56.021c0.294,0,0.589-0.102,0.826-0.312c0.518-0.456,0.568-1.246,0.111-1.763
			c-1.819-2.065-2.881-4.714-2.991-7.46c-0.027-0.689-0.625-1.238-1.298-1.199c-0.689,0.027-1.226,0.609-1.199,1.298
			c0.132,3.317,1.415,6.517,3.613,9.012C91.313,55.878,91.658,56.021,92.003,56.021z"/>
		<path fill="#8C2816" d="M119.321,63.355c-2.273-1.43-4.006-3.6-4.909-6.122c-1.634-11.703-6.747-22.755-14.769-31.914
			c0.929,0.185,1.875,0.291,2.829,0.291c0.147,0,0.296-0.002,0.443-0.007c0.69-0.021,1.232-0.597,1.21-1.286
			c-0.021-0.677-0.576-1.211-1.247-1.211c-0.014,0-0.026,0-0.039,0.001c-2.766,0.063-5.47-0.787-7.654-2.454
			c-0.025-0.019-0.056-0.023-0.081-0.039c-8.53-7.961-18.882-13.318-30.085-15.556c-0.105-0.028-0.213-0.054-0.321-0.079
			c-2.533-0.752-4.771-2.321-6.318-4.461c-0.404-0.559-1.188-0.685-1.744-0.28c-0.559,0.404-0.684,1.186-0.28,1.744
			c0.85,1.176,1.88,2.201,3.029,3.066c-9.085,1.696-22.694,10.504-35.206,23.016C10.469,41.774-0.536,58.974,1,68.088
			c0.002,0.063-0.015,0.124-0.003,0.188c0.217,1.151,0.476,2.29,0.758,3.423l0,0.008c0.393,2.724-0.167,5.522-1.577,7.88
			c-0.354,0.591-0.162,1.359,0.43,1.713c0.201,0.121,0.422,0.178,0.64,0.178c0.425,0,0.839-0.217,1.073-0.608
			c0.561-0.937,0.999-1.935,1.333-2.965c3.087,8.438,8.03,16.179,14.596,22.744c2.857,2.857,5.936,5.402,9.191,7.624
			c2.586,2.042,3.216,5.771,1.354,8.558c-0.384,0.574-0.229,1.349,0.344,1.732c0.213,0.143,0.454,0.211,0.693,0.211
			c0.403,0,0.799-0.195,1.04-0.555c1.319-1.974,1.79-4.342,1.327-6.671c-0.025-0.128-0.063-0.251-0.094-0.377
			c4.698,2.636,9.696,4.618,14.87,5.923c-1.004,0.446-1.964,0.995-2.848,1.662c-0.55,0.416-0.661,1.198-0.245,1.75
			c0.246,0.325,0.62,0.497,0.999,0.497c0.262,0,0.526-0.082,0.752-0.252c2.191-1.652,4.887-2.505,7.646-2.415
			c2.032,0.285,4.081,0.473,6.145,0.546c0.694,0.024,1.383,0.036,2.072,0.036c10.169,0,19.783-2.662,28.071-7.672
			c0.005-0.003,0.011-0.003,0.011-0.003c2.463-1.243,5.295-1.604,7.978-1.016c0.676,0.145,1.34-0.28,1.487-0.955
			c0.147-0.674-0.279-1.34-0.954-1.487c-1.019-0.222-2.056-0.319-3.09-0.318c1.572-1.247,3.087-2.579,4.525-4.017
			c10.493-10.493,15.973-24.734,15.431-40.101c-0.006-0.159-0.021-0.316-0.028-0.474c0.895,0.997,1.92,1.879,3.066,2.599
			c0.206,0.13,0.436,0.191,0.664,0.191c0.415,0,0.821-0.207,1.059-0.585C120.081,64.494,119.906,63.723,119.321,63.355z
			 M25.946,29.831C39.255,16.521,54.23,7.226,62.36,7.226c0.732,0,1.372,0.095,1.953,0.248c0.013,0.004,0.026,0.009,0.04,0.012
			c0.012,0.003,0.023,0.002,0.035,0.005c0.777,0.215,1.429,0.554,1.92,1.045c2.336,2.336,1.55,7.879-2.154,15.207
			c-3.964,7.843-10.762,16.776-19.141,25.155C31.703,62.207,16.73,71.503,8.598,71.503c-1.75,0-3.077-0.44-3.947-1.31
			C0.048,65.589,7.506,48.271,25.946,29.831z M97.756,101.681c-9.996,9.997-23.578,15.224-38.246,14.7
			c-10.957-0.386-21.539-3.941-30.677-10.185c-0.136-0.103-0.269-0.21-0.412-0.305c-0.019-0.013-0.042-0.014-0.062-0.025
			c-2.945-2.054-5.741-4.383-8.342-6.985c-7.28-7.28-12.483-16.058-15.257-25.632c1.085,0.498,2.366,0.753,3.839,0.753
			c8.879,0,24.224-9.379,38.181-23.337c8.562-8.561,15.524-17.722,19.605-25.794c3.55-7.024,4.562-12.634,2.992-16.171
			c9.554,2.78,18.318,7.981,25.579,15.242C117.161,46.146,118.417,81.02,97.756,101.681z"/>
		<path fill="#8C2816" d="M24.062,84.42c-0.671-0.148-1.338,0.284-1.485,0.957c-0.146,0.674,0.283,1.339,0.958,1.485
			c2.69,0.582,5.118,2.083,6.835,4.227c0.247,0.309,0.61,0.469,0.976,0.469c0.273,0,0.55-0.09,0.78-0.274
			c0.539-0.431,0.626-1.217,0.194-1.756C30.244,86.937,27.312,85.122,24.062,84.42z"/>
		<path fill="#8C2816" d="M94.347,96.122c-3.242-0.708-6.663-0.272-9.632,1.224c-0.616,0.311-0.863,1.063-0.552,1.679
			c0.22,0.435,0.66,0.686,1.117,0.686c0.189,0,0.382-0.043,0.562-0.134c2.457-1.241,5.288-1.602,7.972-1.013
			c0.676,0.149,1.34-0.28,1.486-0.955C95.448,96.936,95.021,96.27,94.347,96.122z"/>
	</g>
	
		<ellipse transform="matrix(0.7071 -0.7071 0.7071 0.7071 -17.4431 36.6173)" opacity="0.25" fill="#8C2816" cx="35.479" cy="39.364" rx="33.52" ry="7.806"/>
	<path opacity="0.25" fill="#8C2816" d="M66.895,22.383l0.957,0.125c28.839,13.783,47.813,42.779,40.704,62.996
		c0,0,10.959-19.022-0.409-44.563C94.953,11.295,68.624,7.105,68.624,7.105S69.796,13.185,66.895,22.383z"/>
</g>
</svg>
