<?xml version="1.0" encoding="utf-8"?>
<!-- Generator: Adobe Illustrator 17.0.0, SVG Export Plug-In . SVG Version: 6.00 Build 0)  -->
<!DOCTYPE svg PUBLIC "-//W3C//DTD SVG 1.1//EN" "http://www.w3.org/Graphics/SVG/1.1/DTD/svg11.dtd">
<svg version="1.1" id="Layer_1" xmlns="http://www.w3.org/2000/svg" xmlns:xlink="http://www.w3.org/1999/xlink" x="0px" y="0px"
	 width="116.919px" height="72px" viewBox="0 0 116.919 72" enable-background="new 0 0 116.919 72" xml:space="preserve">
<g>
	<path fill="#8C2816" d="M113.283,17.533c0.695-0.893,4.429-5.951,3.484-10.248c-0.418-1.9-1.639-3.36-3.63-4.338
		c-0.313-0.154-0.756-0.491-1.225-0.848C110.682,1.164,109.152,0,107.333,0c-3.523,0-5.997,4.075-8.022,13.216
		c-4.108,18.55-23.786,25.16-40.833,25.16c-9.706,0-19.326-2.108-25.736-5.64c-15.454-8.517-26.448-9.171-26.907-9.194
		c-0.229-0.009-0.46,0.04-0.662,0.15C4.13,24.26,3.057,25.48,2.16,26.89l-0.004,0.005C0.907,28.861,0,31.194,0,32.674
		C0,53.623,28.016,72,59.955,72c0.979,0,1.965-0.018,2.95-0.054c30.109-1.088,52.814-17.972,52.814-39.272
		c0-3.322-0.971-5.778-1.828-7.946C112.851,22.099,112.096,20.188,113.283,17.533z M6.084,26.067
		c2.04,0.197,12.108,1.502,25.452,8.857c6.864,3.782,16.684,5.95,26.942,5.95c10.16,0,21.214-2.267,29.717-7.829
		C73.14,48.061,48.514,49.821,32.112,45.051C17.827,40.896,7.401,30.192,4.839,27.367C5.251,26.821,5.678,26.363,6.084,26.067z
		 M62.816,69.45c-0.955,0.034-1.911,0.052-2.861,0.052c-30.608,0-57.457-17.21-57.457-36.828c0-0.737,0.398-1.908,0.982-3.081
		c3.366,3.638,13.664,13.706,27.934,17.856c5.35,1.557,11.54,2.442,18.007,2.442c19.92,0,42.444-8.405,50.994-31.499
		c0.043-0.115,0.046-0.231,0.055-0.347c0.511-1.361,0.947-2.784,1.28-4.288c2.169-9.795,4.429-11.258,5.582-11.258
		c0.976,0,2.086,0.844,3.065,1.59c0.568,0.432,1.105,0.84,1.637,1.102c1.29,0.634,2.04,1.493,2.291,2.628
		c0.633,2.867-2.014,6.945-3.088,8.274c-0.063,0.079-0.118,0.166-0.161,0.258c-1.724,3.696-0.648,6.417,0.491,9.298
		c0.813,2.055,1.653,4.181,1.653,7.027C113.221,52.6,91.552,68.411,62.816,69.45z"/>
	<path opacity="0.25" fill="#8C2816" d="M113.147,15.08c0.462-0.308,2-3.871,2-3.871l0.616-4.639l-1.765-2.684l-3.005-0.961
		l-1.539-1.846h-2.462c0,0,1.539,3.904,3.077,5.491c1.539,1.587-0.616,6.356-1.539,8.664s-2.616,4.616-1.539,7.54
		c1.077,2.923,8.076,22.913-11.425,37.537v1.545c0,0,16.042-10.617,17.734-20.311s0-16.098,0-16.098l-1.385-4.52l-0.308-3.078
		C111.609,17.849,112.686,15.388,113.147,15.08z"/>
</g>
</svg>
