<?xml version="1.0" encoding="utf-8"?>
<!-- Generator: Adobe Illustrator 17.0.0, SVG Export Plug-In . SVG Version: 6.00 Build 0)  -->
<!DOCTYPE svg PUBLIC "-//W3C//DTD SVG 1.1//EN" "http://www.w3.org/Graphics/SVG/1.1/DTD/svg11.dtd">
<svg version="1.1" id="Layer_1" xmlns="http://www.w3.org/2000/svg" xmlns:xlink="http://www.w3.org/1999/xlink" x="0px" y="0px"
	 width="15px" height="15px" viewBox="0 0 15 15" enable-background="new 0 0 15 15" xml:space="preserve">
<path fill="#314040" d="M9.211,7.5l5.435-5.435c0.473-0.473,0.473-1.238,0-1.71c-0.472-0.473-1.238-0.473-1.71,0L7.5,5.79
	L2.065,0.354c-0.472-0.473-1.238-0.473-1.71,0c-0.473,0.473-0.473,1.238,0,1.71L5.79,7.5l-5.435,5.435
	c-0.473,0.473-0.473,1.238,0,1.71C0.591,14.882,0.9,15,1.21,15s0.619-0.118,0.855-0.354L7.5,9.21l5.435,5.435
	C13.171,14.882,13.481,15,13.79,15c0.31,0,0.619-0.118,0.855-0.354c0.473-0.473,0.473-1.238,0-1.71L9.211,7.5z"/>
</svg>
