<?xml version="1.0" encoding="iso-8859-1"?>
<!-- Generator: Adobe Illustrator 17.0.0, SVG Export Plug-In . SVG Version: 6.00 Build 0)  -->
<!DOCTYPE svg PUBLIC "-//W3C//DTD SVG 1.1//EN" "http://www.w3.org/Graphics/SVG/1.1/DTD/svg11.dtd">
<svg version="1.1" id="Layer_1" xmlns="http://www.w3.org/2000/svg" xmlns:xlink="http://www.w3.org/1999/xlink" x="0px" y="0px"
	 width="14.5px" height="14.5px" viewBox="0 0 14.5 14.5" style="enable-background:new 0 0 14.5 14.5;" xml:space="preserve">
<path style="fill:#BEBEBE;" d="M9.018,7.25l5.116-5.116c0.488-0.488,0.488-1.279,0-1.768s-1.279-0.488-1.768,0L7.25,5.482
	L2.134,0.366c-0.488-0.488-1.279-0.488-1.768,0s-0.488,1.279,0,1.768L5.482,7.25l-5.116,5.116c-0.488,0.488-0.488,1.279,0,1.768
	C0.61,14.378,0.93,14.5,1.25,14.5s0.64-0.122,0.884-0.366L7.25,9.018l5.116,5.116C12.61,14.378,12.93,14.5,13.25,14.5
	s0.64-0.122,0.884-0.366c0.488-0.488,0.488-1.279,0-1.768L9.018,7.25z"/>
</svg>
