<?xml version="1.0" encoding="utf-8"?>
<!-- Generator: Adobe Illustrator 17.0.0, SVG Export Plug-In . SVG Version: 6.00 Build 0)  -->
<!DOCTYPE svg PUBLIC "-//W3C//DTD SVG 1.1//EN" "http://www.w3.org/Graphics/SVG/1.1/DTD/svg11.dtd">
<svg version="1.1" id="Layer_1" xmlns="http://www.w3.org/2000/svg" xmlns:xlink="http://www.w3.org/1999/xlink" x="0px" y="0px"
	 width="11px" height="11px" viewBox="0 0 11 11" enable-background="new 0 0 11 11" xml:space="preserve">
<path fill="#314040" d="M6.122,5.502L6.124,5.5L6.122,5.498l4.749-4.748c0.172-0.172,0.172-0.45,0-0.622
	c-0.172-0.172-0.45-0.172-0.622,0L5.5,4.877L0.751,0.129c-0.172-0.172-0.45-0.172-0.622,0c-0.172,0.172-0.172,0.45,0,0.622
	l4.749,4.748L4.876,5.5l0.002,0.002L0.129,10.25c-0.172,0.172-0.172,0.45,0,0.622C0.215,10.957,0.327,11,0.44,11
	c0.113,0,0.225-0.043,0.311-0.129L5.5,6.124l4.749,4.748C10.335,10.957,10.448,11,10.56,11c0.112,0,0.225-0.043,0.311-0.129
	c0.172-0.172,0.172-0.45,0-0.622L6.122,5.502z"/>
</svg>
