<?xml version="1.0" encoding="iso-8859-1"?>
<!-- Generator: Adobe Illustrator 17.0.0, SVG Export Plug-In . SVG Version: 6.00 Build 0)  -->
<!DOCTYPE svg PUBLIC "-//W3C//DTD SVG 1.1//EN" "http://www.w3.org/Graphics/SVG/1.1/DTD/svg11.dtd">
<svg version="1.1" id="Layer_1" xmlns="http://www.w3.org/2000/svg" xmlns:xlink="http://www.w3.org/1999/xlink" x="0px" y="0px"
	 width="14.5px" height="22.5px" viewBox="0 0 14.5 22.5" style="enable-background:new 0 0 14.5 22.5;" xml:space="preserve">
<g>
	<path style="fill:#BEBEBE;" d="M6.453,16.485c0.054,0.052,0.122,0.076,0.182,0.116c0.07,0.047,0.132,0.103,0.211,0.134
		c0.151,0.062,0.31,0.095,0.471,0.095s0.32-0.034,0.471-0.095c0.079-0.032,0.141-0.087,0.211-0.134
		c0.06-0.04,0.128-0.064,0.182-0.116l5.934-5.661c0.499-0.477,0.518-1.268,0.041-1.768c-0.476-0.498-1.269-0.519-1.768-0.041
		l-3.82,3.645V1.25c0-0.69-0.56-1.25-1.25-1.25s-1.25,0.56-1.25,1.25v11.411L2.247,9.016C1.748,8.538,0.955,8.557,0.479,9.057
		c-0.477,0.5-0.458,1.291,0.041,1.768L6.453,16.485z"/>
	<path style="fill:#BEBEBE;" d="M13.112,20H1.25C0.56,20,0,20.56,0,21.25s0.56,1.25,1.25,1.25h11.862c0.69,0,1.25-0.56,1.25-1.25
		S13.803,20,13.112,20z"/>
</g>
</svg>
