<?xml version="1.0" encoding="utf-8"?>
<!-- Generator: Adobe Illustrator 17.0.0, SVG Export Plug-In . SVG Version: 6.00 Build 0)  -->
<!DOCTYPE svg PUBLIC "-//W3C//DTD SVG 1.1//EN" "http://www.w3.org/Graphics/SVG/1.1/DTD/svg11.dtd">
<svg version="1.1" id="Layer_1" xmlns="http://www.w3.org/2000/svg" xmlns:xlink="http://www.w3.org/1999/xlink" x="0px" y="0px"
	 width="20px" height="20px" viewBox="0 0 20 20" enable-background="new 0 0 20 20" xml:space="preserve">
<path fill="#FFFFFF" d="M18.896,0H1.104C0.494,0,0,0.494,0,1.104v17.792C0,19.506,0.494,20,1.104,20h9.579v-7.745H8.076V9.237h2.606
	V7.011c0-2.583,1.578-3.99,3.882-3.99c1.104,0,2.053,0.082,2.329,0.119v2.7L15.296,5.84c-1.253,0-1.496,0.596-1.496,1.47v1.927
	h2.989L16.4,12.255h-2.6V20h5.097C19.506,20,20,19.506,20,18.896V1.104C20,0.494,19.506,0,18.896,0z"/>
</svg>
