<?xml version="1.0" encoding="utf-8"?>
<!-- Generator: Adobe Illustrator 17.0.0, SVG Export Plug-In . SVG Version: 6.00 Build 0)  -->
<!DOCTYPE svg PUBLIC "-//W3C//DTD SVG 1.1//EN" "http://www.w3.org/Graphics/SVG/1.1/DTD/svg11.dtd">
<svg version="1.1" id="Layer_1" xmlns="http://www.w3.org/2000/svg" xmlns:xlink="http://www.w3.org/1999/xlink" x="0px" y="0px"
	 width="20px" height="20px" viewBox="0 0 20 20" enable-background="new 0 0 20 20" xml:space="preserve">
<g>
	<path fill="#FFFFFF" d="M0,1.442C0,0.645,0.662,0,1.478,0h17.044C19.338,0,20,0.645,20,1.442v17.116C20,19.354,19.338,20,18.522,20
		H1.478C0.662,20,0,19.354,0,18.558V1.442L0,1.442z"/>
	<path fill-rule="evenodd" clip-rule="evenodd" fill="#FFFFFF" d="M6.062,16.721V7.633H3.042v9.088H6.062L6.062,16.721z
		 M4.552,6.392c1.053,0,1.709-0.698,1.709-1.571c-0.02-0.892-0.656-1.57-1.689-1.57c-1.033,0-1.709,0.679-1.709,1.57
		c0,0.872,0.656,1.571,1.669,1.571H4.552L4.552,6.392z"/>
	<path fill-rule="evenodd" clip-rule="evenodd" fill="#FFFFFF" d="M7.734,16.721h3.021v-5.075c0-0.272,0.02-0.543,0.1-0.737
		c0.218-0.543,0.715-1.105,1.55-1.105c1.093,0,1.53,0.834,1.53,2.055v4.862h3.021V11.51c0-2.792-1.49-4.091-3.478-4.091
		c-1.63,0-2.345,0.911-2.742,1.531h0.02V7.633H7.734C7.774,8.486,7.734,16.721,7.734,16.721L7.734,16.721z"/>
</g>
</svg>
