<?xml version="1.0" encoding="utf-8"?>
<!-- Generator: Adobe Illustrator 17.0.0, SVG Export Plug-In . SVG Version: 6.00 Build 0)  -->
<!DOCTYPE svg PUBLIC "-//W3C//DTD SVG 1.1//EN" "http://www.w3.org/Graphics/SVG/1.1/DTD/svg11.dtd">
<svg version="1.1" id="Layer_1" xmlns="http://www.w3.org/2000/svg" xmlns:xlink="http://www.w3.org/1999/xlink" x="0px" y="0px"
	 width="20px" height="20px" viewBox="0 0 20 20" enable-background="new 0 0 20 20" xml:space="preserve">
<path fill="#FFFFFF" d="M18.522,0H1.478C0.662,0,0,0.645,0,1.442v17.116C0,19.354,0.662,20,1.478,20h17.044
	C19.338,20,20,19.354,20,18.558V1.442C20,0.645,19.338,0,18.522,0z M6.062,16.721h-3.02V7.633h3.02V16.721z M4.552,6.392h-0.02
	c-1.013,0-1.669-0.699-1.669-1.571c0-0.891,0.676-1.57,1.709-1.57c1.033,0,1.669,0.678,1.689,1.57
	C6.261,5.694,5.605,6.392,4.552,6.392z M16.956,16.721h-3.021v-4.862c0-1.221-0.437-2.055-1.53-2.055
	c-0.835,0-1.332,0.562-1.55,1.105c-0.08,0.194-0.1,0.465-0.1,0.737v5.075H7.734c0,0,0.04-8.235,0-9.088h3.022v1.288
	c0.401-0.619,1.117-1.502,2.722-1.502c1.988,0,3.478,1.299,3.478,4.091V16.721z"/>
</svg>
