<?xml version="1.0" encoding="utf-8"?>
<!-- Generator: Adobe Illustrator 17.0.0, SVG Export Plug-In . SVG Version: 6.00 Build 0)  -->
<!DOCTYPE svg PUBLIC "-//W3C//DTD SVG 1.1//EN" "http://www.w3.org/Graphics/SVG/1.1/DTD/svg11.dtd">
<svg version="1.1" id="Layer_1" xmlns="http://www.w3.org/2000/svg" xmlns:xlink="http://www.w3.org/1999/xlink" x="0px" y="0px"
	 width="24.61px" height="20px" viewBox="0 0 24.61 20" enable-background="new 0 0 24.61 20" xml:space="preserve">
<path fill="#FFFFFF" d="M24.61,2.368c-0.905,0.402-1.878,0.673-2.9,0.795c1.042-0.625,1.843-1.614,2.22-2.793
	c-0.976,0.579-2.056,0.999-3.206,1.225C19.803,0.613,18.491,0,17.039,0C14.25,0,11.99,2.261,11.99,5.049
	c0,0.396,0.045,0.781,0.131,1.151C7.924,5.989,4.204,3.979,1.713,0.924C1.279,1.67,1.03,2.537,1.03,3.463
	c0,1.752,0.891,3.297,2.246,4.202C2.448,7.639,1.67,7.412,0.989,7.034C0.989,7.055,0.989,7.076,0.989,7.097
	c0,2.446,1.74,4.487,4.05,4.951c-0.424,0.115-0.87,0.177-1.33,0.177c-0.325,0-0.642-0.032-0.95-0.091
	c0.642,2.006,2.507,3.466,4.717,3.506c-1.728,1.354-3.905,2.161-6.271,2.161c-0.408,0-0.809-0.024-1.204-0.071
	C2.235,19.164,4.889,20,7.74,20c9.287,0,14.366-7.694,14.366-14.366c0-0.219-0.005-0.437-0.015-0.653
	C23.077,4.269,23.933,3.38,24.61,2.368z"/>
</svg>
