<?xml version="1.0" encoding="utf-8"?>
<!-- Generator: Adobe Illustrator 17.1.0, SVG Export Plug-In . SVG Version: 6.00 Build 0)  -->
<!DOCTYPE svg PUBLIC "-//W3C//DTD SVG 1.1//EN" "http://www.w3.org/Graphics/SVG/1.1/DTD/svg11.dtd">
<svg version="1.1" id="Layer_1" xmlns="http://www.w3.org/2000/svg" xmlns:xlink="http://www.w3.org/1999/xlink" x="0px" y="0px"
	 width="50px" height="50px" viewBox="0 0 50 50" enable-background="new 0 0 50 50" xml:space="preserve">
<path d="M37.4,23.4H26.6V12.6c0-0.9-0.7-1.6-1.6-1.6s-1.6,0.7-1.6,1.6v10.8H12.6c-0.9,0-1.6,0.7-1.6,1.6s0.7,1.6,1.6,1.6h10.8v10.8
	c0,0.9,0.7,1.6,1.6,1.6s1.6-0.7,1.6-1.6V26.6h10.8c0.9,0,1.6-0.7,1.6-1.6S38.3,23.4,37.4,23.4z M25,0C11.2,0,0,11.2,0,25
	s11.2,25,25,25c13.8,0,25-11.2,25-25S38.8,0,25,0z M25,48.4C12.1,48.4,1.6,37.9,1.6,25C1.6,12.1,12.1,1.6,25,1.6S48.4,12.1,48.4,25
	C48.4,37.9,37.9,48.4,25,48.4z"/>
</svg>
