<?xml version="1.0" encoding="utf-8"?>
<!-- Generator: Adobe Illustrator 17.1.0, SVG Export Plug-In . SVG Version: 6.00 Build 0)  -->
<!DOCTYPE svg PUBLIC "-//W3C//DTD SVG 1.1//EN" "http://www.w3.org/Graphics/SVG/1.1/DTD/svg11.dtd">
<svg version="1.1" id="Layer_1" xmlns="http://www.w3.org/2000/svg" xmlns:xlink="http://www.w3.org/1999/xlink" x="0px" y="0px"
	 width="50px" height="50px" viewBox="0 0 50 50" enable-background="new 0 0 50 50" xml:space="preserve">
<path d="M1.5,10.1c-0.8,0-1.5,0.7-1.5,1.5v24.9c0,0.8,0.7,1.5,1.5,1.5S3,37.3,3,36.5V11.6C3,10.7,2.3,10.1,1.5,10.1z M9,19.8
	c-0.8,0-1.5,0.7-1.5,1.5v15.2c0,0.8,0.7,1.5,1.5,1.5s1.5-0.7,1.5-1.5V21.3C10.5,20.5,9.8,19.8,9,19.8z M16.4,4.9
	c-0.8,0-1.5,0.7-1.5,1.5v30c0,0.8,0.7,1.5,1.5,1.5s1.5-0.7,1.5-1.5v-30C17.9,5.6,17.3,4.9,16.4,4.9z M23.9,14.9
	c-0.8,0-1.5,0.7-1.5,1.5v20c0,0.8,0.7,1.5,1.5,1.5s1.5-0.7,1.5-1.5v-20C25.4,15.6,24.7,14.9,23.9,14.9z M31.4,0
	c-0.8,0-1.5,0.7-1.5,1.5v35c0,0.8,0.7,1.5,1.5,1.5s1.5-0.7,1.5-1.5v-35C32.9,0.7,32.2,0,31.4,0z"/>
</svg>
