<?xml version="1.0" encoding="utf-8"?>
<!-- Generator: Adobe Illustrator 17.1.0, SVG Export Plug-In . SVG Version: 6.00 Build 0)  -->
<!DOCTYPE svg PUBLIC "-//W3C//DTD SVG 1.1//EN" "http://www.w3.org/Graphics/SVG/1.1/DTD/svg11.dtd">
<svg version="1.1" id="Layer_1" xmlns="http://www.w3.org/2000/svg" xmlns:xlink="http://www.w3.org/1999/xlink" x="0px" y="0px"
	 width="50px" height="50px" viewBox="0 0 50 50" enable-background="new 0 0 50 50" xml:space="preserve">
<path d="M39.5,47.6c-0.2,0-0.5-0.1-0.7-0.2L25,40.2l-13.8,7.3c-0.5,0.3-1.1,0.2-1.6-0.1C9.1,47,8.9,46.4,9,45.9l2.6-15.4L0.4,19.6
	c-0.4-0.4-0.6-1-0.4-1.5c0.2-0.5,0.6-0.9,1.2-1l15.5-2.2l6.9-14c0.5-1,2.2-1,2.7,0l6.9,14L48.7,17c0.6,0.1,1,0.5,1.2,1
	s0,1.1-0.4,1.5L38.4,30.5l2.6,15c0.1,0.2,0.2,0.4,0.2,0.7C41.1,47,40.5,47.6,39.5,47.6C39.6,47.6,39.5,47.6,39.5,47.6z M25,37
	c0.2,0,0.5,0.1,0.7,0.2l11.9,6.2l-2.3-13.2c-0.1-0.5,0.1-1,0.4-1.3l9.6-9.4l-13.3-1.9c-0.5-0.1-0.9-0.4-1.1-0.8L25,4.8l-5.9,12
	c-0.2,0.4-0.6,0.7-1.1,0.8L4.7,19.5l9.6,9.4c0.4,0.3,0.5,0.8,0.4,1.3l-2.3,13.2l11.9-6.2C24.5,37.1,24.8,37,25,37z"/>
</svg>
