<?xml version="1.0" encoding="utf-8"?>
<!-- Generator: Adobe Illustrator 17.1.0, SVG Export Plug-In . SVG Version: 6.00 Build 0)  -->
<!DOCTYPE svg PUBLIC "-//W3C//DTD SVG 1.1//EN" "http://www.w3.org/Graphics/SVG/1.1/DTD/svg11.dtd">
<svg version="1.1" id="Layer_1" xmlns="http://www.w3.org/2000/svg" xmlns:xlink="http://www.w3.org/1999/xlink" x="0px" y="0px"
	 width="50px" height="50px" viewBox="0 0 50 50" enable-background="new 0 0 50 50" xml:space="preserve">
<path d="M1.5,3h30C32.3,3,33,2.3,33,1.5S32.3,0,31.5,0h-30C0.7,0,0,0.7,0,1.5S0.7,3,1.5,3z M31.5,10.4h-30c-0.8,0-1.5,0.7-1.5,1.5
	s0.7,1.5,1.5,1.5h30c0.8,0,1.5-0.7,1.5-1.5S32.3,10.4,31.5,10.4z M31.5,20.8h-30c-0.8,0-1.5,0.7-1.5,1.5s0.7,1.5,1.5,1.5h30
	c0.8,0,1.5-0.7,1.5-1.5S32.3,20.8,31.5,20.8z"/>
</svg>
