<?xml version="1.0" encoding="utf-8"?>
<!-- Generator: Adobe Illustrator 17.1.0, SVG Export Plug-In . SVG Version: 6.00 Build 0)  -->
<!DOCTYPE svg PUBLIC "-//W3C//DTD SVG 1.1//EN" "http://www.w3.org/Graphics/SVG/1.1/DTD/svg11.dtd">
<svg version="1.1" id="Layer_1" xmlns="http://www.w3.org/2000/svg" xmlns:xlink="http://www.w3.org/1999/xlink" x="0px" y="0px"
	 width="50px" height="50px" viewBox="0 0 50 50" enable-background="new 0 0 50 50" xml:space="preserve">
<path d="M34.7,17.6L25,27.3l-9.7-9.7c-0.6-0.6-1.6-0.6-2.3,0c-0.6,0.6-0.6,1.7,0,2.3l10.9,10.9c0.3,0.3,0.7,0.5,1.1,0.5
	s0.8-0.2,1.1-0.5L37,19.9c0.6-0.6,0.6-1.7,0-2.3C36.4,17,35.4,17,34.7,17.6z M25,0C11.2,0,0,11.2,0,25c0,13.8,11.2,25,25,25
	c13.8,0,25-11.2,25-25C50,11.2,38.8,0,25,0z M25,48.4C12.1,48.4,1.6,37.9,1.6,25S12.1,1.6,25,1.6S48.4,12.1,48.4,25
	S37.9,48.4,25,48.4z"/>
</svg>
