<?xml version="1.0" encoding="utf-8"?>
<!-- Generator: Adobe Illustrator 17.1.0, SVG Export Plug-In . SVG Version: 6.00 Build 0)  -->
<!DOCTYPE svg PUBLIC "-//W3C//DTD SVG 1.1//EN" "http://www.w3.org/Graphics/SVG/1.1/DTD/svg11.dtd">
<svg version="1.1" id="Layer_1" xmlns="http://www.w3.org/2000/svg" xmlns:xlink="http://www.w3.org/1999/xlink" x="0px" y="0px"
	 width="50px" height="50px" viewBox="0 0 50 50" enable-background="new 0 0 50 50" xml:space="preserve">
<g>
	<path d="M25,42.2c-0.2,0-0.4,0-0.6-0.1c-1-0.4-24.4-11-24.4-28.8C0,6,6,0,13.3,0c5.1,0,9.5,2.9,11.7,7c2.2-4.2,6.7-7,11.7-7
		C44,0,50,6,50,13.3c0.1,17.8-23.4,28.4-24.4,28.8C25.4,42.2,25.2,42.2,25,42.2z M13.3,3.1C7.7,3.1,3.1,7.7,3.1,13.3
		c0,14.3,18.2,23.9,21.9,25.7c3.7-1.8,21.9-11.4,21.9-25.7c0-5.6-4.6-10.2-10.2-10.2c-5.6,0-10.2,4.6-10.2,10.2
		c0,0.9-0.7,1.6-1.6,1.6c-0.9,0-1.6-0.7-1.6-1.6C23.4,7.7,18.9,3.1,13.3,3.1z"/>
</g>
</svg>
