<?xml version="1.0" encoding="utf-8"?>
<!-- Generator: Adobe Illustrator 17.1.0, SVG Export Plug-In . SVG Version: 6.00 Build 0)  -->
<!DOCTYPE svg PUBLIC "-//W3C//DTD SVG 1.1//EN" "http://www.w3.org/Graphics/SVG/1.1/DTD/svg11.dtd">
<svg version="1.1" id="Layer_1" xmlns="http://www.w3.org/2000/svg" xmlns:xlink="http://www.w3.org/1999/xlink" x="0px" y="0px"
	 width="50px" height="50px" viewBox="0 0 50 50" enable-background="new 0 0 50 50" xml:space="preserve">
<path d="M34.9,15.1c-0.6-0.6-1.6-0.6-2.3,0L25,22.7l-7.6-7.6c-0.6-0.6-1.6-0.6-2.3,0s-0.6,1.7,0,2.3l7.6,7.6l-7.6,7.6
	c-0.6,0.6-0.6,1.6,0,2.3c0.3,0.3,0.7,0.5,1.1,0.5c0.4,0,0.8-0.2,1.1-0.5l7.6-7.6l7.6,7.6c0.3,0.3,0.7,0.5,1.1,0.5
	c0.4,0,0.8-0.2,1.1-0.5c0.6-0.6,0.6-1.6,0-2.3L27.3,25l7.6-7.6C35.5,16.7,35.5,15.7,34.9,15.1z M25,0C11.2,0,0,11.2,0,25
	c0,13.8,11.2,25,25,25c13.8,0,25-11.2,25-25C50,11.2,38.8,0,25,0z M25,48.4C12.1,48.4,1.6,37.9,1.6,25S12.1,1.6,25,1.6
	c12.9,0,23.4,10.5,23.4,23.4S37.9,48.4,25,48.4z"/>
</svg>
