<?xml version="1.0" encoding="utf-8"?>
<!-- Generator: Adobe Illustrator 17.1.0, SVG Export Plug-In . SVG Version: 6.00 Build 0)  -->
<!DOCTYPE svg PUBLIC "-//W3C//DTD SVG 1.1//EN" "http://www.w3.org/Graphics/SVG/1.1/DTD/svg11.dtd">
<svg version="1.1" id="Layer_1" xmlns="http://www.w3.org/2000/svg" xmlns:xlink="http://www.w3.org/1999/xlink" x="0px" y="0px"
	 width="50px" height="50px" viewBox="0 0 50 50" enable-background="new 0 0 50 50" xml:space="preserve">
<path d="M29.9,35v-3c3.5-1.7,6-5.3,6-9.5V10.7C35.9,4.8,31.1,0,25.2,0h-2.1c-5.9,0-10.7,4.8-10.7,10.7v11.8c0,4.2,2.5,7.8,6,9.5v3
	C11,36.7-0.1,40.1,0,44.4v4C0,49.3,0.7,50,1.6,50h45.3c0.9,0,1.6-0.7,1.6-1.6v-4C48.5,40.1,37.4,36.7,29.9,35z M15.6,22.4V10.7
	c0-4.2,3.4-7.5,7.5-7.5h2.1c4.2,0,7.5,3.4,7.5,7.5v11.8c0,4.2-3.4,7.5-7.5,7.5h-2.1C19,30,15.6,26.6,15.6,22.4z M45.3,46.9H3.1
	l0-2.5c0.4-1.6,8.5-4.7,17.3-6.7c0.7-0.2,1.2-0.8,1.2-1.5v-3.3c0.5,0.1,1,0.2,1.6,0.2h2.1c0.5,0,1.1-0.1,1.6-0.2v3.3
	c0,0.7,0.5,1.4,1.2,1.5c8.8,2,16.8,5.1,17.2,6.7V46.9z"/>
</svg>
