<?xml version="1.0" encoding="iso-8859-1"?>
<!-- Generator: Adobe Illustrator 17.0.0, SVG Export Plug-In . SVG Version: 6.00 Build 0)  -->
<!DOCTYPE svg PUBLIC "-//W3C//DTD SVG 1.1//EN" "http://www.w3.org/Graphics/SVG/1.1/DTD/svg11.dtd">
<svg version="1.1" id="Layer_1" xmlns="http://www.w3.org/2000/svg" xmlns:xlink="http://www.w3.org/1999/xlink" x="0px" y="0px"
	 width="58.096px" height="145px" viewBox="48.556 -24.5 58.096 145" style="enable-background:new 48.556 -24.5 58.096 145;"
	 xml:space="preserve">
<g>
	<path style="fill:#674F46;" d="M106.046-21.735l-4.29-2.584c-0.285-0.172-0.626-0.225-0.947-0.143
		c-0.323,0.079-0.6,0.285-0.771,0.569L87.271-2.693H49.809c-0.691,0-1.252,0.56-1.252,1.252v111.675v9.014
		c0,0.691,0.56,1.252,1.252,1.252h46.323c0.691,0,1.252-0.56,1.252-1.252v-9.014V-1.442c0-0.691-0.56-1.252-1.252-1.252h-0.093
		l10.434-17.324C106.83-20.609,106.639-21.379,106.046-21.735z M85.763-0.19l-13.654,22.67h-1.602H55.568V7.573
		c0-0.691-0.56-1.252-1.252-1.252c-0.691,0-1.252,0.56-1.252,1.252v14.908h-2.003V-0.19H85.763z M51.061,108.982V24.985h2.003
		v10.718c0,0.692,0.56,1.252,1.252,1.252c0.691,0,1.252-0.56,1.252-1.252V24.985h13.687v83.997H51.061z M71.759,24.985h2.504v83.997
		h-2.504V24.985z M76.767,24.985h18.112v83.997H76.767V24.985z M75.515,22.481H75.03L88.685-0.19h2.924l-13.654,22.67H75.515z
		 M94.879,117.996H51.061v-6.51h19.447h5.008h19.364V117.996z M94.879-0.19v22.67H80.876L94.531-0.19H94.879z M93.117-2.693h-2.924
		l11.345-18.835l2.145,1.292L93.117-2.693z"/>
	<path style="fill:#674F46;" d="M54.316,38.037c-0.691,0-1.252,0.56-1.252,1.252v3.839c0,0.691,0.56,1.252,1.252,1.252
		c0.691,0,1.252-0.56,1.252-1.252v-3.839C55.568,38.598,55.007,38.037,54.316,38.037z"/>
	<path style="fill:#674F46;" d="M54.316,50.831c-0.691,0-1.252,0.56-1.252,1.252v3.565c0,0.691,0.56,1.252,1.252,1.252
		c0.691,0,1.252-0.56,1.252-1.252v-3.565C55.568,51.391,55.007,50.831,54.316,50.831z"/>
	<path style="fill:#674F46;" d="M80.607,115.993h2.504c0.691,0,1.252-0.56,1.252-1.252c0-0.691-0.56-1.252-1.252-1.252h-2.504
		c-0.691,0-1.252,0.56-1.252,1.252C79.355,115.432,79.915,115.993,80.607,115.993z"/>
	<path style="fill:#674F46;" d="M61.327,113.489c-0.691,0-1.252,0.56-1.252,1.252c0,0.691,0.56,1.252,1.252,1.252h14.188
		c0.691,0,1.252-0.56,1.252-1.252c0-0.691-0.56-1.252-1.252-1.252H61.327z"/>
</g>
</svg>
