<?xml version="1.0" encoding="iso-8859-1"?>
<!-- Generator: Adobe Illustrator 17.0.0, SVG Export Plug-In . SVG Version: 6.00 Build 0)  -->
<!DOCTYPE svg PUBLIC "-//W3C//DTD SVG 1.1//EN" "http://www.w3.org/Graphics/SVG/1.1/DTD/svg11.dtd">
<svg version="1.1" id="Layer_1" xmlns="http://www.w3.org/2000/svg" xmlns:xlink="http://www.w3.org/1999/xlink" x="0px" y="0px"
	 width="101px" height="157.394px" viewBox="27.104 -30.697 101 157.394"
	 style="enable-background:new 27.104 -30.697 101 157.394;" xml:space="preserve">
<path style="fill:#674F46;" d="M119.448,75.182h-11.576V60.454h0.251c2.535,0,4.597-2.063,4.597-4.597
	c0-2.535-2.063-4.596-4.597-4.596H64.539c0.293-3.613,1.841-6.967,4.451-9.538c2.854-2.813,6.622-4.356,10.633-4.356
	c0.038,0,0.077,0,0.116,0h0.034c0.002,0,0.003-0.001,0.003-0.001h7.286c0.044,0,0.088,0,0.133,0c4.662,0,9.053-1.799,12.378-5.074
	c3.357-3.308,5.224-7.724,5.258-12.434c0.035-4.712-1.767-9.156-5.074-12.511c-3.307-3.357-7.723-5.224-12.444-5.258H75.06h-0.009
	h-10c-8.35,0-15.144-6.794-15.144-15.144s6.794-15.144,15.144-15.144c0.689,0,1.248-0.559,1.248-1.248
	c0-0.69-0.559-1.248-1.248-1.248c-9.727,0-17.64,7.913-17.64,17.64s7.913,17.64,17.64,17.64h9.991
	c4.044,0.029,7.835,1.632,10.674,4.514c2.839,2.881,4.386,6.695,4.356,10.739c-0.062,8.313-6.843,15.031-15.151,15.031h-0.113
	h-0.033H55.172c-9.306,0-16.932,7.248-17.577,16.392h-5.893c-2.535,0-4.597,2.062-4.597,4.596c0,2.535,2.063,4.597,4.597,4.597
	h0.251v57.006c0,5.094,4.144,9.238,9.237,9.238h57.445c5.094,0,9.238-4.144,9.238-9.238v-14.354
	c11.401-0.438,16.144-6.698,17.348-8.67c2.51-4.114,2.885-8.458,2.885-10.682C128.104,79.027,124.221,75.182,119.448,75.182z
	 M92.57,19.855c0.047-6.481-3.435-12.168-8.635-15.272h3.369c4.044,0.029,7.836,1.632,10.675,4.514
	c2.839,2.881,4.386,6.695,4.355,10.74c-0.029,4.044-1.633,7.835-4.514,10.674c-2.854,2.813-6.624,4.356-10.668,4.356
	c-0.038,0-0.077,0-0.115,0h-3.108C89.053,31.811,92.522,26.246,92.57,19.855z M70.598,37.365c-1.203,0.719-2.337,1.57-3.361,2.579
	c-3.089,3.043-4.897,7.029-5.196,11.317h-9.689c0.638-7.767,7.152-13.895,15.08-13.895H70.598z M55.172,37.365h3.261
	c-4.825,2.879-8.159,7.984-8.576,13.895h-9.765C40.73,43.493,47.243,37.365,55.172,37.365z M105.375,76.43v5.992v13.486v5.992v15.56
	c0,3.717-3.024,6.741-6.741,6.741H41.19c-3.717,0-6.741-3.024-6.741-6.741V60.454h70.927V76.43z M106.624,57.957H33.201h-1.499
	c-1.159,0-2.101-0.942-2.101-2.101c0-1.158,0.942-2.1,2.101-2.1h76.421c1.159,0,2.101,0.942,2.101,2.1
	c0,1.159-0.942,2.101-2.101,2.101H106.624z M107.872,83.67h11.659c0.046,0,0.085,0.038,0.085,0.084
	c0,8.91-7.435,10.62-11.744,10.865V83.67z M123.088,93.135c-1.034,1.695-5.109,7.077-15.216,7.491v-3.505
	c4.542-0.255,14.241-2.119,14.241-13.367c0-1.423-1.158-2.581-2.582-2.581h-11.659v-3.495h11.576c3.397,0,6.16,2.726,6.16,6.076
	C125.608,85.716,125.28,89.542,123.088,93.135z"/>
</svg>
