<?xml version="1.0" encoding="iso-8859-1"?>
<!-- Generator: Adobe Illustrator 17.0.0, SVG Export Plug-In . SVG Version: 6.00 Build 0)  -->
<!DOCTYPE svg PUBLIC "-//W3C//DTD SVG 1.1//EN" "http://www.w3.org/Graphics/SVG/1.1/DTD/svg11.dtd">
<svg version="1.1" id="Layer_1" xmlns="http://www.w3.org/2000/svg" xmlns:xlink="http://www.w3.org/1999/xlink" x="0px" y="0px"
	 width="116.919px" height="72px" viewBox="0 0 116.919 72" style="enable-background:new 0 0 116.919 72;" xml:space="preserve">
<path style="fill:#674F46;" d="M113.283,17.533c0.695-0.893,4.429-5.951,3.484-10.248c-0.418-1.9-1.64-3.36-3.63-4.338
	c-0.313-0.154-0.756-0.491-1.225-0.848C110.682,1.164,109.152,0,107.334,0c-3.523,0-5.997,4.075-8.022,13.216
	c-4.108,18.55-23.786,25.159-40.833,25.159c-9.706,0-19.326-2.108-25.736-5.64c-15.454-8.517-26.448-9.171-26.907-9.194
	c-0.229-0.009-0.46,0.04-0.662,0.15C4.13,24.26,3.057,25.48,2.16,26.891c-0.001,0.003-0.004,0.005-0.004,0.005
	C0.907,28.861,0,31.194,0,32.674C0,53.623,28.016,72,59.955,72c0.979,0,1.966-0.018,2.95-0.054
	c30.109-1.088,52.814-17.972,52.814-39.272c0-3.322-0.971-5.778-1.828-7.946C112.851,22.099,112.096,20.188,113.283,17.533z
	 M6.084,26.067c2.04,0.197,12.108,1.502,25.452,8.857c6.864,3.782,16.684,5.95,26.942,5.95c10.16,0,21.214-2.267,29.717-7.829
	C73.141,48.061,48.514,49.821,32.112,45.051C17.827,40.896,7.401,30.192,4.839,27.367C5.251,26.821,5.678,26.363,6.084,26.067z
	 M62.816,69.45c-0.954,0.034-1.911,0.052-2.86,0.052c-30.608,0-57.457-17.209-57.457-36.828c0-0.737,0.398-1.908,0.982-3.081
	C6.847,33.231,17.145,43.3,31.415,47.45c5.35,1.557,11.54,2.442,18.007,2.442c19.92,0,42.444-8.405,50.994-31.499
	c0.043-0.115,0.047-0.231,0.055-0.347c0.511-1.361,0.947-2.784,1.28-4.288c2.169-9.795,4.429-11.258,5.582-11.258
	c0.976,0,2.086,0.844,3.065,1.59c0.568,0.432,1.105,0.84,1.637,1.102c1.29,0.634,2.04,1.493,2.291,2.628
	c0.633,2.867-2.014,6.945-3.088,8.274c-0.063,0.079-0.118,0.166-0.161,0.258c-1.724,3.696-0.648,6.417,0.491,9.298
	c0.813,2.055,1.653,4.181,1.653,7.027C113.221,52.601,91.552,68.412,62.816,69.45z"/>
</svg>
