<?xml version="1.0" encoding="iso-8859-1"?>
<!-- Generator: Adobe Illustrator 17.0.0, SVG Export Plug-In . SVG Version: 6.00 Build 0)  -->
<!DOCTYPE svg PUBLIC "-//W3C//DTD SVG 1.1//EN" "http://www.w3.org/Graphics/SVG/1.1/DTD/svg11.dtd">
<svg version="1.1" id="Layer_1" xmlns="http://www.w3.org/2000/svg" xmlns:xlink="http://www.w3.org/1999/xlink" x="0px" y="0px"
	 width="193px" height="124.043px" viewBox="0 0 193 124.043" style="enable-background:new 0 0 193 124.043;" xml:space="preserve"
	>
<g>
	<path style="fill:#674F46;" d="M100.48,25.234h6.925c2.702,0.02,5.233,1.091,7.13,3.015c1.896,1.924,2.929,4.472,2.909,7.174
		c-0.02,2.702-1.091,5.234-3.015,7.13c-1.924,1.896-4.473,2.921-7.183,2.909h-0.023h-5.09c-6.956,0-12.616,5.66-12.616,12.617
		c0,0.691,0.56,1.251,1.251,1.251c0.691,0,1.251-0.56,1.251-1.251c0-5.577,4.537-10.115,10.114-10.115h0.928
		c-0.464,0.346-0.915,0.715-1.334,1.128c-2.4,2.365-3.737,5.524-3.761,8.894c-0.005,0.691,0.551,1.255,1.242,1.26
		c0.003,0,0.006,0,0.006,0c0.69,0,1.249-0.554,1.254-1.242c0.02-2.702,1.091-5.234,3.015-7.13c1.924-1.896,4.496-2.901,7.183-2.91
		h0.024l0.002,0h5.049c0.031,0,0.064,0,0.096,0c3.334,0,6.474-1.287,8.852-3.63c2.4-2.365,3.737-5.524,3.761-8.894
		c0.025-3.37-1.264-6.548-3.629-8.949c-2.365-2.401-5.524-3.736-8.903-3.761h-8.494h-0.009h-6.934
		c-5.577,0-10.115-4.538-10.115-10.115S94.903,2.502,100.48,2.502c0.691,0,1.251-0.56,1.251-1.251c0-0.691-0.56-1.251-1.251-1.251
		c-6.957,0-12.617,5.66-12.617,12.617S93.522,25.234,100.48,25.234z M115.907,25.234c2.702,0.02,5.233,1.091,7.129,3.015
		c1.897,1.924,2.93,4.472,2.91,7.174c-0.02,2.702-1.091,5.234-3.015,7.13c-1.906,1.878-4.424,2.91-7.128,2.91
		c-0.026,0-0.053,0-0.078,0h-0.873c0.464-0.346,0.914-0.714,1.333-1.127c2.4-2.365,3.737-5.524,3.761-8.894
		c0.025-3.37-1.264-6.548-3.629-8.949c-0.457-0.464-0.953-0.876-1.466-1.259H115.907z"/>
	<path style="fill:#674F46;" d="M191.749,88.017h-36.374c-0.036-2.862-1.085-5.581-3.022-7.723c-2.106-2.33-4.995-3.701-8.131-3.859
		c-2.248-0.12-4.443,0.414-6.386,1.518c-0.412-0.083-0.834-0.136-1.27-0.136c-0.801,0-1.586,0.15-2.323,0.438
		c-1.091-2.085-3.256-3.443-5.689-3.443c-0.98,0-1.928,0.224-2.8,0.656c-0.825-1.134-2.017-1.96-3.375-2.367
		c-0.509-1.222-1.598-2.013-2.709-2.383c-1.216-0.404-2.515-0.362-3.768-0.323c-1.267,0.039-2.581,0.079-3.835-0.33
		c-1.706-0.56-2.935-1.527-4.019-2.38c-0.976-0.768-1.899-1.493-2.985-1.753c-1.849-0.441-4.173,0.475-5.028,3.082
		c-0.079,0.241-0.14,0.486-0.203,0.731c-0.995-0.608-2.144-0.941-3.331-0.941c-1.772,0-3.423,0.718-4.622,1.971
		c-1.013-0.631-2.18-0.97-3.392-0.97c-0.427,0-0.847,0.044-1.256,0.125c-0.065-1.762-0.523-3.489-1.368-5.076
		c-1.555-2.92-4.171-2.867-5.939-1.937c-1.133,0.597-2.001,1.561-2.841,2.493c-0.85,0.944-1.73,1.919-2.894,2.539
		c-1.585,0.844-3.134,1.061-4.5,1.253c-1.231,0.172-2.393,0.337-3.332,0.941c-1.36,0.875-2.231,2.677-1.677,4.683
		c-0.078-0.003-0.155-0.013-0.233-0.013c-2.434,0-4.599,1.359-5.69,3.443c-0.737-0.289-1.522-0.438-2.323-0.438
		c-3.138,0-5.761,2.256-6.329,5.231c-0.545-0.148-1.111-0.223-1.685-0.223c-3.125,0-5.735,2.236-6.319,5.192H1.251
		C0.56,88.017,0,88.577,0,89.268v3.664c0,10.432,17.153,19.771,45.936,25.061v4.799c0,0.691,0.56,1.251,1.251,1.251h98.73
		c0.691,0,1.251-0.56,1.251-1.251v-4.818C175.888,112.681,193,103.352,193,92.932v-3.664C193,88.577,192.44,88.017,191.749,88.017z
		 M144.096,78.933c2.469,0.125,4.742,1.204,6.401,3.039c1.516,1.678,2.342,3.805,2.379,6.045h-1.977
		c-0.584-2.956-3.194-5.192-6.319-5.192c-0.574,0-1.14,0.075-1.685,0.223c-0.277-1.45-1.047-2.722-2.121-3.653
		C141.838,79.049,142.954,78.875,144.096,78.933z M102.412,69.792c0.462-1.409,1.551-1.554,2.07-1.428
		c0.551,0.132,1.231,0.667,2.018,1.285c1.186,0.932,2.661,2.094,4.786,2.791c1.67,0.548,3.274,0.499,4.694,0.453
		c1.127-0.036,2.105-0.066,2.9,0.198c1.746,0.581,1.295,1.955,1.126,2.472c-1.223,3.727-4.631,6.236-8.475,6.365
		c-0.491-2.322-1.954-4.363-4.072-5.529c-1.579-0.869-3.354-1.18-5.077-0.945C101.803,73.618,101.805,71.642,102.412,69.792z
		 M67.711,72.244c0.477-0.307,1.333-0.427,2.325-0.566c1.493-0.21,3.353-0.471,5.327-1.522c1.553-0.827,2.628-2.02,3.577-3.073
		c0.758-0.84,1.411-1.566,2.149-1.955c1.628-0.855,2.309,0.418,2.564,0.899c0.83,1.559,1.167,3.288,1.036,5.03
		c-0.292,0.216-0.57,0.452-0.824,0.717c-1.012-0.631-2.179-0.97-3.392-0.97c-0.22,0-0.436,0.017-0.652,0.039
		c-0.024-0.093-0.035-0.187-0.082-0.276c-0.325-0.611-1.085-0.843-1.692-0.517l-4.344,2.312c-0.217,0.115-0.365,0.295-0.478,0.494
		c-0.252-0.031-0.507-0.048-0.765-0.048c-1.938,0-3.721,0.87-4.925,2.302c-0.076-0.128-0.157-0.253-0.227-0.384
		C66.611,73.417,67.267,72.531,67.711,72.244z M48.42,85.327c0.785,0,1.543,0.231,2.193,0.668c0.41,0.275,0.939,0.283,1.357,0.025
		c0.418-0.259,0.646-0.739,0.582-1.227l-0.019-0.137c-0.019-0.131-0.04-0.261-0.04-0.397c0-2.173,1.768-3.941,3.941-3.941
		c0.808,0,1.591,0.25,2.263,0.725c0.338,0.238,0.772,0.294,1.159,0.15c0.388-0.145,0.678-0.472,0.777-0.874
		c0.434-1.77,2.002-3.007,3.814-3.007c0.883,0,1.73,0.306,2.45,0.885c0.306,0.245,0.71,0.333,1.089,0.238
		c0.38-0.095,0.693-0.364,0.846-0.724c0.62-1.458,2.044-2.401,3.628-2.401c0.884,0,1.73,0.306,2.449,0.884
		c0.306,0.244,0.71,0.332,1.089,0.238c0.379-0.095,0.693-0.363,0.846-0.723c0.621-1.459,2.045-2.401,3.628-2.401
		c1.024,0,1.997,0.397,2.738,1.116c0.273,0.265,0.65,0.398,1.025,0.344c0.376-0.046,0.711-0.26,0.91-0.583
		c0.729-1.177,1.978-1.88,3.341-1.88c1.022,0,1.995,0.397,2.739,1.117c0.273,0.264,0.648,0.397,1.025,0.343
		c0.375-0.046,0.71-0.261,0.909-0.583c0.728-1.177,1.977-1.879,3.341-1.879c1.131,0,2.208,0.497,2.959,1.361
		c-0.001,1.186,0.173,2.368,0.529,3.509c-0.151,0.071-0.304,0.13-0.452,0.211c-0.606,0.331-0.83,1.091-0.5,1.698
		c0.33,0.606,1.091,0.83,1.698,0.499c1.73-0.945,3.792-0.941,5.518,0.008c1.799,0.991,2.937,2.884,2.969,4.942
		c0.011,0.684,0.569,1.232,1.251,1.232c0.006,0,0.013,0,0.02,0c0.311-0.005,0.585-0.134,0.8-0.325
		c5.019-0.03,9.503-3.257,11.09-8.095c0.054-0.164,0.095-0.321,0.133-0.478c0.723,0.424,1.317,1.057,1.651,1.845
		c0.153,0.361,0.466,0.629,0.846,0.724c0.379,0.095,0.782,0.007,1.089-0.238c0.72-0.579,1.568-0.885,2.45-0.885
		c1.812,0,3.38,1.236,3.813,3.006c0.098,0.402,0.388,0.729,0.776,0.875c0.386,0.143,0.821,0.09,1.159-0.15
		c0.674-0.474,1.457-0.725,2.265-0.725c2.173,0,3.941,1.768,3.941,3.941c0,0.139-0.022,0.272-0.042,0.405l-0.017,0.124
		c-0.066,0.488,0.159,0.97,0.578,1.23c0.418,0.261,0.95,0.25,1.359-0.023c0.652-0.438,1.41-0.668,2.195-0.668
		c1.733,0,3.192,1.132,3.718,2.69H44.702C45.228,86.459,46.687,85.327,48.42,85.327z M144.666,121.541H48.439v-3.337h96.228V121.541
		z M190.498,92.932c0,9.096-17.163,17.817-44.797,22.77H47.299c-27.633-4.953-44.797-13.674-44.797-22.77v-2.413h187.996V92.932z"/>
	<path style="fill:#674F46;" d="M107.765,75.146l4.676,1.535c0.129,0.043,0.261,0.063,0.39,0.063c0.526,0,1.015-0.334,1.189-0.861
		c0.216-0.657-0.142-1.363-0.799-1.578l-4.676-1.535c-0.652-0.216-1.362,0.143-1.578,0.798
		C106.751,74.225,107.108,74.931,107.765,75.146z"/>
	<path style="fill:#674F46;" d="M90.766,61.103c-0.691,0-1.251,0.56-1.251,1.251v2.893c0,0.691,0.56,1.251,1.251,1.251
		c0.691,0,1.251-0.56,1.251-1.251v-2.893C92.017,61.663,91.457,61.103,90.766,61.103z"/>
</g>
</svg>
