<?xml version="1.0" encoding="iso-8859-1"?>
<!-- Generator: Adobe Illustrator 17.0.0, SVG Export Plug-In . SVG Version: 6.00 Build 0)  -->
<!DOCTYPE svg PUBLIC "-//W3C//DTD SVG 1.1//EN" "http://www.w3.org/Graphics/SVG/1.1/DTD/svg11.dtd">
<svg version="1.1" id="Layer_1" xmlns="http://www.w3.org/2000/svg" xmlns:xlink="http://www.w3.org/1999/xlink" x="0px" y="0px"
	 width="67.84px" height="130px" viewBox="43.685 -17 67.84 130" style="enable-background:new 43.685 -17 67.84 130;"
	 xml:space="preserve">
<g>
	<path style="fill:#674F46;" d="M52.17,35.587l13.875,13.875c0.613,0.613,1.426,0.95,2.293,0.95c0.867,0,1.681-0.337,2.293-0.95
		l13.877-13.875c1.262-1.265,1.262-3.322-0.001-4.586L70.632,17.126c-1.225-1.225-3.36-1.226-4.586,0L52.17,31.001
		C50.906,32.266,50.906,34.322,52.17,35.587z M53.934,32.764L67.809,18.89c0.141-0.141,0.329-0.219,0.529-0.219
		c0.2,0,0.388,0.078,0.529,0.219l13.875,13.875c0.292,0.291,0.292,0.768,0.001,1.059L68.866,47.698
		c-0.281,0.283-0.775,0.283-1.057,0L53.934,33.824C53.642,33.531,53.642,33.057,53.934,32.764z"/>
	<path style="fill:#674F46;" d="M72.399,55.611l-2.307,19.487c-0.21,1.775,1.063,3.391,2.838,3.601l19.486,2.308
		c0.13,0.016,0.257,0.022,0.384,0.022c1.641,0,3.024-1.23,3.217-2.861l2.308-19.486c0.211-1.776-1.063-3.392-2.838-3.602
		l-19.486-2.307C74.204,52.554,72.61,53.852,72.399,55.611z M95.849,58.389l-2.308,19.486c-0.045,0.377-0.362,0.661-0.74,0.661
		l-19.577-2.313c-0.409-0.049-0.704-0.422-0.655-0.831l2.307-19.485c0.045-0.373,0.358-0.656,0.818-0.656c0,0,0.009,0,0.013,0
		l19.486,2.307C95.603,57.607,95.898,57.98,95.849,58.389z"/>
	<path style="fill:#674F46;" d="M96.666,95.888l-0.657,8.312h-8.943c-0.612-4.639-4.593-8.231-9.397-8.231
		c-4.804,0-8.785,3.592-9.397,8.231H59.33l-0.657-8.312c-0.055-0.685-0.651-1.216-1.342-1.145c-0.687,0.055-1.199,0.655-1.145,1.342
		l0.747,9.461c0.052,0.649,0.592,1.149,1.243,1.149h11.261c0.689,0,1.247-0.558,1.247-1.247c0-3.851,3.134-6.984,6.984-6.984
		s6.984,3.134,6.984,6.984c0,0.689,0.558,1.247,1.247,1.247h11.261c0.651,0,1.192-0.5,1.243-1.149l0.747-9.461
		c0.055-0.687-0.458-1.287-1.145-1.342C97.3,94.672,96.72,95.203,96.666,95.888z"/>
	<path style="fill:#674F46;" d="M110.277-10.145H96.026C93.975-14.915,80.356-17,73.136-17c-7.846,0-19.946,1.888-21.694,6.855
		h-6.51c-0.689,0-1.247,0.558-1.247,1.247v37.417c0,0.043,0.002,0.086,0.007,0.129l8.63,83.234c0.065,0.635,0.601,1.119,1.24,1.119
		h48.086c0.639,0,1.175-0.483,1.24-1.119l8.63-83.234c0.005-0.043,0.007-0.086,0.007-0.129V-8.898
		C111.525-9.587,110.966-10.145,110.277-10.145z M73.136-14.506c8.517,0,17.146,2.253,19.818,4.36h-6.84H64.733
		c-2.628,0-4.609,3.361-4.609,7.816c0,0,0.001,0.017,0.001,0.025c0,0-0.001,0.003-0.001,0.004l0.001,0.006
		c0.003,1.331,0.193,2.632,0.551,3.772c0.01,0.042,0.021,0.083,0.035,0.124c0.09,0.265,0.133,0.501,0.133,0.72
		c0,1.238-1.007,2.245-2.245,2.245c-1.237,0-2.245-1.007-2.245-2.245c0-0.219,0.044-0.454,0.133-0.717
		c0.016-0.045,0.028-0.091,0.038-0.136c0.356-1.138,0.545-2.435,0.548-3.763L57.076-2.3c0-0.001-0.001-0.003-0.001-0.003
		c0-0.01,0.001-0.018,0.001-0.018c0-3.556-1.256-6.409-3.094-7.425C55.586-12.293,64.139-14.506,73.136-14.506z M46.179-7.651h6.288
		c0.729,0,1.779,1.597,2.047,4.104h-8.336V-7.651z M109.03,28.455l-8.507,82.051H54.686l-8.507-82.051V-1.053h8.325
		c-0.075,0.663-0.2,1.297-0.387,1.867c-0.012,0.037-0.022,0.074-0.03,0.112c-0.152,0.48-0.226,0.938-0.226,1.396
		c0,2.613,2.126,4.739,4.739,4.739c2.613,0,4.739-2.126,4.739-4.739c0-0.41-0.059-0.822-0.182-1.251
		c-0.017-0.16-0.062-0.31-0.133-0.445c-0.155-0.519-0.253-1.09-0.32-1.679h46.326V28.455z M109.03-3.547H62.685
		c0.268-2.507,1.318-4.104,2.047-4.104h21.381h8.928h0.02h13.968V-3.547z"/>
	<path style="fill:#674F46;" d="M103.325,21.093c0.689,0,1.247-0.558,1.247-1.247V2.884c0-0.689-0.558-1.247-1.247-1.247
		c-0.689,0-1.247,0.558-1.247,1.247v16.962C102.078,20.534,102.636,21.093,103.325,21.093z"/>
	<path style="fill:#674F46;" d="M103.325,28.131c0.689,0,1.247-0.558,1.247-1.247v-2.549c0-0.689-0.558-1.247-1.247-1.247
		c-0.689,0-1.247,0.558-1.247,1.247v2.549C102.078,27.573,102.636,28.131,103.325,28.131z"/>
</g>
</svg>
