<?xml version="1.0" encoding="iso-8859-1"?>
<!-- Generator: Adobe Illustrator 17.0.0, SVG Export Plug-In . SVG Version: 6.00 Build 0)  -->
<!DOCTYPE svg PUBLIC "-//W3C//DTD SVG 1.1//EN" "http://www.w3.org/Graphics/SVG/1.1/DTD/svg11.dtd">
<svg version="1.1" id="Layer_1" xmlns="http://www.w3.org/2000/svg" xmlns:xlink="http://www.w3.org/1999/xlink" x="0px" y="0px"
	 width="155.209px" height="96px" viewBox="0 0 155.209 96" style="enable-background:new 0 0 155.209 96;" xml:space="preserve">
<g>
	<path style="fill:#674F46;" d="M150.745,25.118c0.01-0.006,0.021-0.008,0.031-0.014c1.055-0.67,1.786-1.711,2.058-2.929
		c0.271-1.22,0.053-2.472-0.618-3.526c-0.669-1.055-1.71-1.785-2.928-2.057c-1.198-0.268-2.423-0.056-3.463,0.585
		c-5.253-6.782-12.363-11.899-20.666-14.749C113.928-1.424,101.867-0.674,91.2,4.543c-30.616,14.973-49.341,37.271-48.87,58.192
		c0.003,0.127,0.044,0.241,0.082,0.355H1.249C0.559,63.09,0,63.649,0,64.339c0,17.37,24.134,31.502,53.798,31.502
		c5.685,0,11.163-0.523,16.31-1.484l2.467,0.487C76.552,95.617,80.734,96,85.077,96c13.979,0,29.601-3.963,45.187-11.585
		c10.668-5.218,18.665-14.276,22.518-25.508C156.615,47.733,155.888,35.743,150.745,25.118z M148.744,19.031
		c0.568,0.126,1.053,0.466,1.365,0.957c0.311,0.492,0.414,1.074,0.287,1.642c-0.113,0.506-0.403,0.938-0.81,1.249
		c-0.702-1.266-1.458-2.491-2.269-3.67C147.758,18.991,148.255,18.92,148.744,19.031z M100.307,65.588
		c-2.259,13.175-22.234,23.309-46.508,23.309c-24.218,0-44.671-10.385-46.293-23.309H100.307z M2.545,65.588h2.449
		c1.529,14.286,23.179,25.807,48.805,25.807c26.155,0,46.892-11.016,49.032-25.807h2.222c-1.162,15.415-23.707,27.755-51.253,27.755
		C26.252,93.343,3.707,81.003,2.545,65.588z M150.418,58.096c-3.637,10.6-11.184,19.151-21.252,24.075
		c-18.326,8.96-37.34,12.801-52.801,10.754c18.42-5.006,31.231-15.934,31.231-28.586c0-0.69-0.559-1.249-1.249-1.249H44.754
		c0.043-0.131,0.077-0.266,0.073-0.412C44.379,42.744,62.568,21.328,92.297,6.788c10.068-4.923,21.45-5.634,32.052-1.996
		c10.6,3.637,19.151,11.185,24.074,21.253C153.346,36.112,154.056,47.494,150.418,58.096z"/>
	<path style="fill:#674F46;" d="M125.378,44.664h10.281c0.69,0,1.249-0.559,1.249-1.249s-0.559-1.249-1.249-1.249h-10.281
		c-0.69,0-1.249,0.559-1.249,1.249S124.688,44.664,125.378,44.664z"/>
	<path style="fill:#674F46;" d="M135.66,59.679h-10.281c-0.69,0-1.249,0.559-1.249,1.249c0,0.69,0.559,1.249,1.249,1.249h10.281
		c0.69,0,1.249-0.559,1.249-1.249C136.909,60.238,136.349,59.679,135.66,59.679z"/>
	<path style="fill:#674F46;" d="M143.62,50.126h-10.281c-0.69,0-1.249,0.559-1.249,1.249c0,0.69,0.559,1.249,1.249,1.249h10.281
		c0.69,0,1.249-0.559,1.249-1.249C144.869,50.685,144.31,50.126,143.62,50.126z"/>
</g>
</svg>
