<?xml version="1.0" encoding="iso-8859-1"?>
<!-- Generator: Adobe Illustrator 17.0.0, SVG Export Plug-In . SVG Version: 6.00 Build 0)  -->
<!DOCTYPE svg PUBLIC "-//W3C//DTD SVG 1.1//EN" "http://www.w3.org/Graphics/SVG/1.1/DTD/svg11.dtd">
<svg version="1.1" id="Layer_1" xmlns="http://www.w3.org/2000/svg" xmlns:xlink="http://www.w3.org/1999/xlink" x="0px" y="0px"
	 width="156.515px" height="83px" viewBox="-0.653 6.5 156.515 83" style="enable-background:new -0.653 6.5 156.515 83;"
	 xml:space="preserve">
<g>
	<path style="fill:#674F46;" d="M130.772,6.5H60.654c-4.967,0-9.754,1.118-13.815,3.135C42.735,7.59,37.974,6.5,33.011,6.5h-8.574
		c-13.835,0-25.089,8.475-25.089,18.893c0,3.852,1.517,7.539,4.392,10.692v49.631c0,0.071,0.008,0.144,0.022,0.218
		C3.859,87.916,5.503,89.5,7.509,89.5h70.073H147.7c1.998,0,3.636-1.571,3.746-3.543c0.016-0.079,0.023-0.16,0.023-0.241V36.085
		c2.875-3.153,4.392-6.84,4.392-10.692C155.862,14.975,144.606,6.5,130.772,6.5z M44.157,11.165
		c-0.554,0.364-1.098,0.739-1.612,1.142c-1.457-1.142-3.102-2.112-4.86-2.936C39.955,9.719,42.13,10.322,44.157,11.165z
		 M6.264,85.747c0-0.063-0.006-0.128-0.018-0.193V35.59c0-0.323-0.125-0.635-0.349-0.868c-2.645-2.758-4.044-5.984-4.044-9.329
		c0-9.035,10.131-16.386,22.582-16.386c6.67,0,12.973,2.14,17.29,5.87c0.47,0.407,1.169,0.407,1.639,0
		c4.317-3.73,10.618-5.87,17.289-5.87c12.453,0,22.583,7.351,22.583,16.386c0,3.345-1.399,6.571-4.045,9.329
		c-0.223,0.233-0.349,0.545-0.349,0.868v49.953c-0.011,0.068-0.017,0.135-0.017,0.204c0,0.687-0.558,1.246-1.245,1.246H7.509
		C6.823,86.993,6.264,86.434,6.264,85.747z M149.311,34.722c-0.223,0.233-0.349,0.545-0.349,0.868v49.947
		c-0.012,0.069-0.018,0.139-0.018,0.21c0,0.687-0.558,1.246-1.245,1.246H81.104c0.118-0.331,0.205-0.677,0.225-1.043
		c0.015-0.076,0.022-0.155,0.022-0.234V36.085c2.876-3.153,4.393-6.839,4.393-10.692c0-7.002-5.089-13.123-12.625-16.386h57.652
		c12.453,0,22.583,7.35,22.583,16.386C153.355,28.738,151.956,31.964,149.311,34.722z"/>
	<path style="fill:#674F46;" d="M143.06,34.489h-10.383c-0.692,0-1.254,0.561-1.254,1.254s0.561,1.254,1.254,1.254h10.383
		c0.692,0,1.254-0.561,1.254-1.254S143.752,34.489,143.06,34.489z"/>
	<path style="fill:#674F46;" d="M127.848,34.489h-3.279c-0.692,0-1.254,0.561-1.254,1.254s0.561,1.254,1.254,1.254h3.279
		c0.692,0,1.254-0.561,1.254-1.254S128.541,34.489,127.848,34.489z"/>
	<path style="fill:#674F46;" d="M111.818,34.489h-2.187c-0.692,0-1.254,0.561-1.254,1.254s0.561,1.254,1.254,1.254h2.187
		c0.692,0,1.254-0.561,1.254-1.254S112.51,34.489,111.818,34.489z"/>
	<path style="fill:#674F46;" d="M41.044,82.036H19.913c-0.692,0-1.254,0.561-1.254,1.254c0,0.692,0.561,1.254,1.254,1.254h21.132
		c0.692,0,1.254-0.561,1.254-1.254C42.298,82.597,41.737,82.036,41.044,82.036z"/>
	<path style="fill:#674F46;" d="M48.968,82.036h-2.823c-0.692,0-1.254,0.561-1.254,1.254c0,0.692,0.561,1.254,1.254,1.254h2.823
		c0.692,0,1.254-0.561,1.254-1.254C50.222,82.597,49.661,82.036,48.968,82.036z"/>
</g>
</svg>
