<?xml version="1.0" encoding="iso-8859-1"?>
<!-- Generator: Adobe Illustrator 17.0.0, SVG Export Plug-In . SVG Version: 6.00 Build 0)  -->
<!DOCTYPE svg PUBLIC "-//W3C//DTD SVG 1.1//EN" "http://www.w3.org/Graphics/SVG/1.1/DTD/svg11.dtd">
<svg version="1.1" id="Layer_1" xmlns="http://www.w3.org/2000/svg" xmlns:xlink="http://www.w3.org/1999/xlink" x="0px" y="0px"
	 width="118.717px" height="143px" viewBox="18.246 -23.5 118.717 143" style="enable-background:new 18.246 -23.5 118.717 143;"
	 xml:space="preserve">
<g>
	<path style="fill:#674F46;" d="M136.761,58.893c-0.232-0.354-0.625-0.568-1.048-0.568c-3.381,0-5.114,1.545-6.642,2.908
		c-1.368,1.22-2.549,2.273-4.978,2.273c-1.621,0-2.683-0.474-3.619-1.149c-3.342-11.116-13.69-18.846-25.342-18.846
		c-8.167,0-15.906,3.822-20.911,10.275c-3.542-1.685-7.448-2.571-11.364-2.571c-6.854,0-13.301,2.591-18.244,7.301
		c-0.564-0.114-1.169-0.191-1.857-0.191c-3.384,0-5.117,1.545-6.647,2.908c-1.369,1.219-2.551,2.273-4.982,2.273
		c-2.432,0-3.614-1.054-4.983-2.274c-1.53-1.363-3.263-2.907-6.646-2.907c-0.423,0-0.817,0.214-1.048,0.568
		c-0.23,0.355-0.267,0.802-0.096,1.188l25.931,58.674c0.2,0.453,0.649,0.745,1.144,0.745h64.354c0.495,0,0.944-0.292,1.144-0.745
		l25.931-58.674C137.027,59.695,136.991,59.247,136.761,58.893z M62.856,53.716c3.925,0,7.679,0.93,11.158,2.764
		c0.556,0.292,1.239,0.129,1.601-0.38c4.502-6.316,11.798-10.087,19.516-10.087c9.186,0,17.472,5.307,21.464,13.319
		c-1.067-0.589-2.371-1.006-4.121-1.006c-3.381,0-5.113,1.546-6.641,2.908c-1.368,1.22-2.549,2.273-4.976,2.273
		c-2.428,0-3.609-1.053-4.977-2.273c-1.528-1.364-3.26-2.908-6.641-2.908c-3.38,0-5.113,1.545-6.64,2.908
		c-1.368,1.219-2.549,2.273-4.977,2.273c-2.429,0-3.61-1.053-4.978-2.273c-1.529-1.363-3.261-2.908-6.643-2.908
		c-3.382,0-5.115,1.545-6.644,2.907c-1.369,1.22-2.551,2.274-4.981,2.274c-2.429,0-3.61-1.053-4.978-2.273
		c-0.651-0.581-1.349-1.188-2.186-1.702C51.56,55.773,57.047,53.716,62.856,53.716z M108.967,116.999H46.242L21.556,61.142
		c1.176,0.402,2.008,1.143,2.922,1.958c1.53,1.364,3.263,2.909,6.647,2.909c3.383,0,5.116-1.545,6.646-2.908
		c1.369-1.22,2.551-2.274,4.982-2.274c2.429,0,3.61,1.053,4.978,2.273c1.528,1.364,3.261,2.909,6.642,2.909
		c3.383,0,5.116-1.545,6.645-2.909c1.369-1.22,2.55-2.273,4.98-2.273c2.429,0,3.611,1.054,4.979,2.273
		c1.529,1.364,3.261,2.909,6.642,2.909s5.113-1.546,6.641-2.909c1.368-1.22,2.549-2.273,4.976-2.273
		c2.428,0,3.609,1.053,4.977,2.273c1.528,1.364,3.26,2.909,6.641,2.909c3.38,0,5.112-1.545,6.64-2.909
		c1.368-1.219,2.549-2.273,4.977-2.273c2.428,0,3.609,1.053,4.977,2.273c1.528,1.363,3.26,2.909,6.642,2.909
		c3.381,0,5.114-1.545,6.642-2.909c0.913-0.815,1.744-1.555,2.918-1.957L108.967,116.999z"/>
	<path style="fill:#674F46;" d="M80.437,111.871h-4.13c-0.691,0-1.251,0.56-1.251,1.251c0,0.691,0.56,1.251,1.251,1.251h4.13
		c0.691,0,1.251-0.56,1.251-1.251C81.688,112.431,81.128,111.871,80.437,111.871z"/>
	<path style="fill:#674F46;" d="M108.697,106.65c-0.633-0.267-1.37,0.026-1.64,0.661l-1.94,4.56H86.431
		c-0.691,0-1.251,0.56-1.251,1.251c0,0.691,0.56,1.251,1.251,1.251h19.512c0.501,0,0.954-0.3,1.151-0.761l2.265-5.321
		C109.629,107.655,109.333,106.921,108.697,106.65z"/>
	<path style="fill:#674F46;" d="M36.537,80.634c-0.271-0.635-1.004-0.929-1.64-0.661c-0.636,0.271-0.932,1.005-0.661,1.64
		l9.274,21.786c0.203,0.476,0.665,0.761,1.152,0.761c0.163,0,0.329-0.032,0.489-0.1c0.636-0.271,0.932-1.005,0.661-1.64
		L36.537,80.634z"/>
	<path style="fill:#674F46;" d="M53.8,24.349c0.031,0,0.063,0,0.094,0h5.057v0.001c0.025,0,0.052,0,0.077,0
		c2.665,0,5.176,1.029,7.076,2.901c1.92,1.891,2.988,4.417,3.007,7.102v4.547c0,0.691,0.56,1.251,1.251,1.251
		c0.691,0,1.251-0.56,1.251-1.251v-4.556c-0.024-3.363-1.357-6.514-3.752-8.874c-0.417-0.411-0.867-0.777-1.329-1.121h0.922
		c5.562,0,10.086,4.524,10.086,10.086v4.464c0,0.691,0.56,1.251,1.251,1.251c0.691,0,1.251-0.56,1.251-1.251v-4.464
		c0-6.94-5.647-12.587-12.587-12.587h-5.11h-0.075c-5.528,0-10.045-4.476-10.086-10.013c-0.021-2.694,1.01-5.234,2.901-7.152
		c1.891-1.92,4.417-2.988,7.11-3.007h6.908c6.94,0,12.587-5.647,12.587-12.588c0-6.94-5.647-12.587-12.587-12.587
		c-0.691,0-1.251,0.56-1.251,1.251c0,0.691,0.56,1.251,1.251,1.251c5.562,0,10.086,4.524,10.086,10.086S74.662-0.826,69.101-0.826
		h-6.917h-0.009h-8.481c-3.363,0.024-6.513,1.357-8.874,3.753c-2.359,2.394-3.645,5.565-3.621,8.927
		C41.25,18.764,46.887,24.35,53.8,24.349z M46.602,4.682c1.89-1.919,4.416-2.987,7.101-3.006h1.054
		c-0.509,0.381-1.001,0.79-1.456,1.252c-2.36,2.394-3.646,5.565-3.621,8.927c0.03,4.097,2.032,7.717,5.086,9.994h-0.905
		c-0.025,0-0.051,0-0.076,0c-2.666,0-5.178-1.029-7.078-2.902c-1.92-1.891-2.988-4.417-3.007-7.11
		C43.681,9.142,44.71,6.601,46.602,4.682z"/>
	<path style="fill:#674F46;" d="M70.362,42.642c-0.691,0-1.251,0.56-1.251,1.251v2.591c0,0.691,0.56,1.251,1.251,1.251
		c0.691,0,1.251-0.56,1.251-1.251v-2.591C71.612,43.202,71.053,42.642,70.362,42.642z"/>
</g>
</svg>
