<?xml version="1.0" encoding="iso-8859-1"?>
<!-- Generator: Adobe Illustrator 17.0.0, SVG Export Plug-In . SVG Version: 6.00 Build 0)  -->
<!DOCTYPE svg PUBLIC "-//W3C//DTD SVG 1.1//EN" "http://www.w3.org/Graphics/SVG/1.1/DTD/svg11.dtd">
<svg version="1.1" id="Layer_1" xmlns="http://www.w3.org/2000/svg" xmlns:xlink="http://www.w3.org/1999/xlink" x="0px" y="0px"
	 width="166px" height="146.507px" viewBox="0 0 166 146.507" style="enable-background:new 0 0 166 146.507;" xml:space="preserve"
	>
<path style="fill:#674F46;" d="M164.753,73.346H69.328c-0.584-11.102-9.773-19.961-21.018-19.961h-9.985H24.577
	c-6.671,0-12.1-5.428-12.1-12.099s5.428-12.099,12.1-12.099h5.996c0.036,0,0.072,0,0.108,0c7.997,0,14.532-6.476,14.592-14.485
	c0.029-3.898-1.462-7.574-4.198-10.35C38.34,1.574,34.687,0.029,30.788,0c-0.673-0.009-1.251,0.549-1.256,1.238
	s0.549,1.251,1.238,1.256c3.231,0.024,6.26,1.305,8.528,3.607c2.269,2.302,3.505,5.349,3.481,8.581
	c-0.049,6.641-5.467,12.01-12.135,12.01c-0.03,0-0.06,0-0.091,0H14.593C6.547,26.692,0,33.239,0,41.285
	c0,8.046,6.547,14.593,14.593,14.593h9.985h3.764c9.869,0,17.943,7.741,18.524,17.467H23.52c-0.689,0-1.247,0.558-1.247,1.247
	c0,28.77,17.089,54.698,43.536,66.055c0.037,0.016,0.079,0.012,0.117,0.024v4.589c0,0.689,0.558,1.247,1.247,1.247h54.036
	c0.689,0,1.247-0.558,1.247-1.247v-4.611l0.008-0.002C148.912,129.291,166,103.363,166,74.593
	C166,73.904,165.442,73.346,164.753,73.346z M14.593,53.384c-6.671,0-12.099-5.428-12.099-12.099s5.427-12.099,12.099-12.099h1.834
	c-3.884,2.625-6.443,7.069-6.443,12.099c0,5.03,2.559,9.474,6.443,12.099H14.593z M48.31,55.878c9.869,0,17.943,7.741,18.524,17.467
	h-7.491c-0.397-7.56-4.773-14.079-11.091-17.467H48.31z M38.268,55.878h0.057c9.869,0,17.944,7.741,18.524,17.467h-7.49
	C48.962,65.786,44.586,59.267,38.268,55.878z M163.495,75.84c-0.032,1.767-0.133,3.522-0.296,5.263H25.074
	c-0.163-1.741-0.264-3.495-0.296-5.263H163.495z M119.963,144.013H68.421v-3.242h51.542V144.013z M121.716,138.255H66.559
	c-22.608-9.805-38.08-30.664-41.206-54.658H162.92C159.794,107.59,144.323,128.449,121.716,138.255z"/>
</svg>
