<?xml version="1.0" encoding="utf-8"?>
<!-- Generator: Adobe Illustrator 17.0.0, SVG Export Plug-In . SVG Version: 6.00 Build 0)  -->
<!DOCTYPE svg PUBLIC "-//W3C//DTD SVG 1.1//EN" "http://www.w3.org/Graphics/SVG/1.1/DTD/svg11.dtd">
<svg version="1.1" id="Layer_1" xmlns="http://www.w3.org/2000/svg" xmlns:xlink="http://www.w3.org/1999/xlink" x="0px" y="0px"
	 width="247px" height="27.462px" viewBox="0 0 247 27.462" enable-background="new 0 0 247 27.462" xml:space="preserve">
<g>
	<g>
		<g>
			<path fill="#314040" d="M21.888,0.077v5.446h-8.182v21.939H8.182V5.523H0V0.077H21.888z"/>
		</g>
		<g>
			<path fill="#314040" d="M46.639,10.995c0,4.091-1.5,7.1-4.5,9.026l2.71,7.441h-5.83l-2.071-5.599
				c-0.529,0.051-0.946,0.077-1.253,0.077h-5.523v5.523H24.7V0h10.995c1.824,0,3.648,0.469,5.472,1.406
				C44.815,3.231,46.639,6.427,46.639,10.995z M35.695,16.467c0.886,0,1.798-0.221,2.736-0.665c1.824-0.937,2.736-2.54,2.736-4.807
				c0-2.301-0.912-3.895-2.736-4.781c-0.938-0.494-1.85-0.742-2.736-0.742h-5.523v10.995H35.695z"/>
		</g>
		<g>
			<path fill="#314040" d="M75.318,27.462H68.9l-1.534-3.835H55.911l-1.56,3.835h-6.418L61.664,0.077L75.318,27.462z M64.988,18.027
				l-3.324-6.648l-3.324,6.648H64.988z"/>
		</g>
		<g>
			<path fill="#314040" d="M89.126,0.077c2.267,0,4.534,0.562,6.801,1.688c4.585,2.267,6.878,6.256,6.878,11.967
				c0,5.71-2.293,9.725-6.878,12.043c-2.267,1.125-4.535,1.688-6.801,1.688H78.131V0.077H89.126z M89.126,22.015
				c1.33,0,2.685-0.349,4.065-1.048c2.762-1.381,4.143-3.793,4.143-7.236c0-3.392-1.381-5.779-4.143-7.16
				c-1.381-0.682-2.736-1.023-4.065-1.023h-5.523v16.467H89.126z"/>
		</g>
		<g>
			<path fill="#314040" d="M111.09,0.077v27.385h-5.472V0.077H111.09z"/>
		</g>
		<g>
			<path fill="#314040" d="M138.578,22.015c-2.762,3.631-6.41,5.446-10.944,5.446c-3.784,0-7.031-1.33-9.742-3.988
				c-2.659-2.711-3.989-5.958-3.989-9.742c0-3.785,1.33-7.007,3.989-9.665c2.711-2.659,5.958-3.989,9.742-3.989
				c4.534,0,8.183,1.824,10.944,5.472l-3.912,3.912c-1.636-2.608-3.98-3.912-7.032-3.912c-2.267,0-4.211,0.81-5.83,2.429
				c-1.62,1.569-2.429,3.486-2.429,5.754c0,2.267,0.809,4.211,2.429,5.83c1.619,1.636,3.563,2.455,5.83,2.455
				c3.052,0,5.396-1.33,7.032-3.989L138.578,22.015z"/>
		</g>
		<g>
			<path fill="#314040" d="M146.862,0.077v27.385h-5.472V0.077H146.862z"/>
		</g>
		<g>
			<path fill="#314040" d="M153.664,4.066c2.711-2.659,5.958-3.989,9.742-3.989c3.801,0,7.023,1.33,9.665,3.989
				c2.659,2.659,3.989,5.881,3.989,9.665c0,3.784-1.33,7.031-3.989,9.742c-2.642,2.659-5.864,3.988-9.665,3.988
				c-3.784,0-7.031-1.33-9.742-3.988c-2.659-2.711-3.988-5.958-3.988-9.742C149.675,9.946,151.005,6.725,153.664,4.066z
				 M157.576,19.561c1.619,1.636,3.563,2.455,5.83,2.455c2.267,0,4.185-0.818,5.754-2.455c1.636-1.619,2.454-3.563,2.454-5.83
				c0-2.267-0.818-4.185-2.454-5.754c-1.569-1.619-3.486-2.429-5.754-2.429c-2.267,0-4.211,0.81-5.83,2.429
				c-1.62,1.569-2.429,3.486-2.429,5.754C155.147,15.998,155.956,17.942,157.576,19.561z"/>
		</g>
		<g>
			<path fill="#314040" d="M179.873,27.462V0.077l15.878,14.754V0.077h5.549v27.385l-15.955-14.83v14.83H179.873z"/>
		</g>
		<g>
			<path fill="#314040" d="M223.316,0.077v5.472h-13.731v5.446h11.507v5.472h-11.507v5.549h13.731v5.446h-19.203V0.077H223.316z"/>
		</g>
		<g>
			<path fill="#314040" d="M228.743,25.851c-1.245-0.596-2.208-1.21-2.889-1.841l1.917-1.995l1.841-2.071
				c0.358,0.341,0.852,0.656,1.483,0.946c1.568,0.75,3.34,1.125,5.318,1.125c3.171,0,4.884-0.869,5.14-2.608V19.28
				c0-0.494-0.179-0.963-0.537-1.406c-0.836-0.938-2.37-1.406-4.603-1.406c-3.921,0-6.81-1.082-8.668-3.247
				c-1.278-1.38-1.917-2.983-1.917-4.807c0-0.341,0.025-0.682,0.077-1.023c0.29-2.165,1.372-3.938,3.247-5.319
				c1.909-1.33,4.329-1.994,7.262-1.994c2.813,0,5.37,0.537,7.671,1.611c1.244,0.597,2.208,1.219,2.889,1.867l-3.759,3.989
				c0-0.102-0.494-0.4-1.483-0.895c-1.569-0.733-3.342-1.099-5.319-1.099c-3.17,0-4.858,0.835-5.062,2.506v0.358
				c0,0.444,0.153,0.835,0.46,1.176c0.835,0.938,2.369,1.406,4.602,1.406c3.904,0,6.819,1.083,8.745,3.247
				c1.228,1.432,1.841,3.034,1.841,4.807c0,0.392-0.026,0.759-0.077,1.099c-0.239,2.165-1.321,3.912-3.248,5.242
				c-1.909,1.381-4.03,2.071-6.961,2.071C233.902,27.462,231.044,26.925,228.743,25.851z"/>
		</g>
	</g>
</g>
</svg>
