<?xml version="1.0" encoding="utf-8"?>
<!-- Generator: Adobe Illustrator 17.0.0, SVG Export Plug-In . SVG Version: 6.00 Build 0)  -->
<!DOCTYPE svg PUBLIC "-//W3C//DTD SVG 1.1//EN" "http://www.w3.org/Graphics/SVG/1.1/DTD/svg11.dtd">
<svg version="1.1" id="Layer_1" xmlns="http://www.w3.org/2000/svg" xmlns:xlink="http://www.w3.org/1999/xlink" x="0px" y="0px"
	 width="101px" height="157.394px" viewBox="0 0 101 157.394" enable-background="new 0 0 101 157.394" xml:space="preserve">
<g>
	<path fill="#8C2816" d="M92.344,105.879H80.767V91.151h0.251c2.535,0,4.597-2.063,4.597-4.597s-2.063-4.596-4.597-4.596H37.435
		c0.293-3.613,1.841-6.967,4.451-9.538c2.854-2.813,6.622-4.356,10.633-4.356c0.038,0,0.077,0,0.116,0h0.034l0.003-0.001h7.286
		c0.044,0,0.088,0,0.133,0c4.662,0,9.053-1.799,12.378-5.074c3.357-3.308,5.224-7.724,5.258-12.434
		c0.035-4.712-1.767-9.155-5.074-12.511c-3.307-3.357-7.723-5.224-12.444-5.259H47.955h-0.009h-10
		c-8.35,0-15.144-6.794-15.144-15.144S29.597,2.496,37.947,2.496c0.69,0,1.248-0.559,1.248-1.248S38.636,0,37.947,0
		c-9.727,0-17.64,7.913-17.64,17.64c0,9.727,7.913,17.64,17.64,17.64h9.991c4.044,0.029,7.835,1.632,10.674,4.514
		c2.839,2.881,4.386,6.695,4.356,10.739c-0.062,8.313-6.843,15.031-15.151,15.031h-0.113h-0.033H28.067
		c-9.306,0-16.932,7.248-17.577,16.392H4.597C2.063,81.957,0,84.019,0,86.553s2.063,4.597,4.597,4.597h0.251v57.006
		c0,5.094,4.144,9.238,9.238,9.238H71.53c5.094,0,9.237-4.144,9.237-9.238v-14.354c11.401-0.438,16.144-6.698,17.348-8.669
		c2.51-4.114,2.885-8.458,2.885-10.682C101,109.724,97.116,105.879,92.344,105.879z M65.465,50.552
		c0.047-6.481-3.435-12.168-8.635-15.272H60.2c4.044,0.029,7.836,1.632,10.675,4.514c2.839,2.881,4.386,6.695,4.355,10.74
		c-0.029,4.044-1.633,7.835-4.514,10.674c-2.854,2.813-6.624,4.356-10.668,4.356c-0.038,0-0.077,0-0.115,0h-3.108
		C61.949,62.508,65.417,56.942,65.465,50.552z M43.494,68.062c-1.203,0.719-2.337,1.57-3.361,2.579
		c-3.089,3.043-4.897,7.03-5.196,11.317h-9.689c0.638-7.767,7.152-13.895,15.08-13.895H43.494z M28.067,68.062h3.261
		c-4.825,2.879-8.159,7.984-8.576,13.895h-9.765C13.625,74.19,20.139,68.062,28.067,68.062z M78.271,107.127v5.992v13.486v5.992
		v15.56c0,3.717-3.024,6.741-6.741,6.741H14.085c-3.717,0-6.741-3.024-6.741-6.741V91.151h70.926V107.127z M79.519,88.654H6.096
		H4.597c-1.159,0-2.101-0.942-2.101-2.101c0-1.158,0.942-2.1,2.101-2.1h76.421c1.159,0,2.101,0.942,2.101,2.1
		c0,1.159-0.942,2.101-2.101,2.101H79.519z M80.767,114.367h11.659c0.046,0,0.085,0.038,0.085,0.084
		c0,8.91-7.435,10.62-11.744,10.865V114.367z M95.983,123.832c-1.034,1.695-5.109,7.077-15.216,7.491v-3.505
		c4.542-0.255,14.241-2.119,14.241-13.367c0-1.423-1.158-2.581-2.581-2.581H80.767v-3.495h11.576c3.397,0,6.16,2.726,6.16,6.076
		C98.503,116.413,98.176,120.239,95.983,123.832z"/>
	<path opacity="0.25" fill="#8C2816" d="M69.311,89.497v58.282c0,0,0.016,6.293-5.712,7.778l1.405,1.022h8.476l5.712-5.558V89.497
		H69.311z"/>
	<path opacity="0.25" fill="#8C2816" d="M66.828,88.61c1.23,0,2.226-0.997,2.226-2.226c0-1.23-0.997-2.226-2.226-2.226L67.227,83
		l14.821,0.475c0,0,1.853,2.189,1.853,2.33c0,0.141,0.154,1.067,0,1.453c-0.154,0.386-2.007,2.084-2.239,2.239
		s-2.47,0.309-2.47,0.309l-11.039,0.463L66.828,88.61z"/>
	<rect x="80.469" y="107.301" opacity="0.25" fill="#8C2816" width="4.088" height="6.28"/>
	<rect x="80.469" y="126.522" opacity="0.25" fill="#8C2816" width="4.088" height="6.28"/>
</g>
</svg>
