<?xml version="1.0" encoding="utf-8"?>
<!-- Generator: Adobe Illustrator 17.0.0, SVG Export Plug-In . SVG Version: 6.00 Build 0)  -->
<!DOCTYPE svg PUBLIC "-//W3C//DTD SVG 1.1//EN" "http://www.w3.org/Graphics/SVG/1.1/DTD/svg11.dtd">
<svg version="1.1" id="Layer_1" xmlns="http://www.w3.org/2000/svg" xmlns:xlink="http://www.w3.org/1999/xlink" x="0px" y="0px"
	 width="58.096px" height="145px" viewBox="0 0 58.096 145" enable-background="new 0 0 58.096 145" xml:space="preserve">
<g>
	<g>
		<path fill="#8C2816" d="M57.445,2.874l-4.283-2.58c-0.284-0.172-0.625-0.225-0.945-0.143c-0.322,0.079-0.599,0.284-0.77,0.568
			L38.699,21.886H1.296c-0.69,0-1.25,0.56-1.25,1.25v111.5v9c0,0.69,0.56,1.25,1.25,1.25h46.25c0.69,0,1.25-0.56,1.25-1.25v-9
			v-111.5c0-0.69-0.56-1.25-1.25-1.25h-0.093L57.871,4.589C58.227,3.998,58.037,3.23,57.445,2.874z M37.193,24.386L23.561,47.021
			h-1.599H7.046V32.136c0-0.69-0.56-1.25-1.25-1.25s-1.25,0.56-1.25,1.25v14.885h-2V24.386H37.193z M2.546,133.386V49.521h2v10.701
			c0,0.691,0.56,1.25,1.25,1.25s1.25-0.559,1.25-1.25V49.521h13.666v83.865H2.546z M23.212,49.521h2.5v83.865h-2.5V49.521z
			 M28.212,49.521h18.084v83.865H28.212V49.521z M26.962,47.021h-0.484l13.633-22.635h2.919L29.398,47.021H26.962z M46.296,142.386
			H2.546v-6.5h19.416h5h19.334V142.386z M46.296,24.386v22.635H32.315l13.633-22.635H46.296z M44.536,21.886h-2.919L52.943,3.08
			l2.142,1.29L44.536,21.886z"/>
		<path fill="#8C2816" d="M5.796,62.553c-0.69,0-1.25,0.56-1.25,1.25v3.833c0,0.69,0.56,1.25,1.25,1.25s1.25-0.56,1.25-1.25v-3.833
			C7.046,63.113,6.486,62.553,5.796,62.553z"/>
		<path fill="#8C2816" d="M5.796,75.327c-0.69,0-1.25,0.56-1.25,1.25v3.56c0,0.69,0.56,1.25,1.25,1.25s1.25-0.56,1.25-1.25v-3.56
			C7.046,75.886,6.486,75.327,5.796,75.327z"/>
		<path fill="#8C2816" d="M32.046,140.386h2.5c0.69,0,1.25-0.56,1.25-1.25s-0.56-1.25-1.25-1.25h-2.5c-0.69,0-1.25,0.56-1.25,1.25
			S31.355,140.386,32.046,140.386z"/>
		<path fill="#8C2816" d="M12.796,137.886c-0.69,0-1.25,0.56-1.25,1.25s0.56,1.25,1.25,1.25h14.166c0.69,0,1.25-0.56,1.25-1.25
			s-0.56-1.25-1.25-1.25H12.796z"/>
	</g>
	<polygon opacity="0.25" fill="#8C2816" points="45.939,22.819 40.851,32.019 40.851,134.769 1.939,134.652 1.939,143.402 
		47.772,143.402 47.772,23.319 	"/>
</g>
</svg>
