<?xml version="1.0" encoding="utf-8"?>
<!-- Generator: Adobe Illustrator 17.0.0, SVG Export Plug-In . SVG Version: 6.00 Build 0)  -->
<!DOCTYPE svg PUBLIC "-//W3C//DTD SVG 1.1//EN" "http://www.w3.org/Graphics/SVG/1.1/DTD/svg11.dtd">
<svg version="1.1" id="Layer_1" xmlns="http://www.w3.org/2000/svg" xmlns:xlink="http://www.w3.org/1999/xlink" x="0px" y="0px"
	 width="101px" height="157px" viewBox="0 0 101 157" enable-background="new 0 0 101 157" xml:space="preserve">
<g>
	<path fill="#EDE4CA" d="M72.701,38.066c-3.309-3.358-7.729-5.228-12.453-5.262H47.988h-0.009H37.972
		c-8.355,0-15.152-6.797-15.152-15.152c0-8.356,6.797-15.152,15.152-15.152c0.69,0,1.25-0.56,1.25-1.25c0-0.69-0.56-1.25-1.25-1.25
		c-9.733,0-17.652,7.919-17.652,17.652s7.919,17.652,17.652,17.652h9.997c4.047,0.029,7.841,1.634,10.681,4.517
		c2.841,2.883,4.389,6.699,4.359,10.747c-0.062,8.317-6.847,15.04-15.16,15.04h-0.113h-0.034H28.086
		c-9.733,0-17.652,7.919-17.652,17.652c0,0.69,0.56,1.25,1.25,1.25c0.69,0,1.25-0.56,1.25-1.25c0-8.356,6.797-15.152,15.152-15.152
		h3.261c-5.165,3.083-8.643,8.712-8.643,15.152c0,0.69,0.56,1.25,1.25,1.25c0.69,0,1.25-0.56,1.25-1.25
		c0-8.356,6.797-15.152,15.152-15.152h3.177c-1.207,0.716-2.346,1.565-3.374,2.578c-3.358,3.31-5.228,7.729-5.263,12.443
		c-0.005,0.69,0.55,1.255,1.241,1.26c0.003,0,0.006,0,0.009,0c0.686,0,1.245-0.554,1.25-1.24
		c0.062-8.317,6.847-15.041,15.195-15.041h0.114h7.291c0.044,0,0.088,0,0.131,0c9.673,0,17.579-7.833,17.651-17.522
		C77.814,45.871,76.011,41.425,72.701,38.066z M60.086,65.608c-0.037,0-0.076,0-0.113,0h-3.107c5.127-3.06,8.596-8.629,8.644-15.022
		c0.035-4.715-1.769-9.161-5.078-12.52c-1.07-1.086-2.267-1.999-3.542-2.762h3.35c4.047,0.029,7.841,1.634,10.681,4.517
		c2.841,2.883,4.389,6.699,4.359,10.747C75.218,58.886,68.433,65.608,60.086,65.608z"/>
	<polygon fill="#8DD3CB" points="79.678,89.567 5.711,89.567 1.895,88.212 0.895,86.111 3.895,82.761 82.236,82.761 83.986,84.692 
		84.611,86.817 83.111,89.567 	"/>
	<polygon fill="#8DD3CB" points="79.736,106.317 79.736,113.067 93.827,113.067 93.827,115.067 90.702,122.606 84.611,125.817 
		79.736,126.567 79.736,132.192 87.861,130.567 93.827,127.567 99.077,120.192 99.702,113.692 97.952,109.317 94.452,106.317 	"/>
	<polygon fill="#EDE4CA" points="79.678,149.942 73.395,155.567 12.145,155.567 5.711,149.942 5.711,89.942 79.678,89.942 	"/>
	<path fill="#314040" d="M38.825,82.761"/>
	<g>
		<path fill="#314040" d="M79.539,133.436c-0.69,0-1.25-0.56-1.25-1.25v-5.996c0-0.69,0.56-1.25,1.25-1.25
			c3.909,0,12.966-1.063,12.966-10.912c0-0.045-0.039-0.083-0.085-0.083H79.539c-0.69,0-1.25-0.56-1.25-1.25v-5.996
			c0-0.69,0.56-1.25,1.25-1.25h12.799c4.776,0,8.663,3.849,8.663,8.579c0,2.226-0.375,6.573-2.887,10.689
			C96.865,126.762,91.868,133.436,79.539,133.436z M80.789,127.412v3.498c10.11-0.414,14.155-5.8,15.19-7.496
			c2.193-3.594,2.521-7.424,2.521-9.387c0-3.352-2.765-6.079-6.163-6.079H80.789v3.496H92.42c1.425,0,2.585,1.159,2.585,2.583
			C95.004,117.08,93.986,126.834,80.789,127.412z"/>
	</g>
	<path fill="#314040" d="M81.039,90.712H4.601C2.064,90.712,0,88.648,0,86.111c0-2.537,2.064-4.601,4.601-4.601h76.438
		c2.537,0,4.601,2.063,4.601,4.601C85.64,88.648,83.576,90.712,81.039,90.712z M4.601,84.011c-1.158,0-2.101,0.942-2.101,2.101
		c0,1.158,0.942,2.101,2.101,2.101h76.438c1.159,0,2.101-0.942,2.101-2.101c0-1.158-0.942-2.101-2.101-2.101H4.601z"/>
	<rect x="5.711" y="105.448" fill="#8DD3CB" width="73.966" height="27.987"/>
	<path fill="#314040" d="M71.578,157H14.095c-5.098,0-9.245-4.147-9.245-9.245V89.462c0-0.69,0.56-1.25,1.25-1.25h73.438
		c0.69,0,1.25,0.56,1.25,1.25v58.293C80.789,152.853,76.675,157,71.578,157z M7.351,90.712v57.043c0,3.72,3.025,6.745,6.745,6.745
		h57.482c3.719,0,6.711-3.025,6.711-6.745V90.712H7.351z"/>
</g>
</svg>
