<?xml version="1.0" encoding="utf-8"?>
<!-- Generator: Adobe Illustrator 17.0.0, SVG Export Plug-In . SVG Version: 6.00 Build 0)  -->
<!DOCTYPE svg PUBLIC "-//W3C//DTD SVG 1.1//EN" "http://www.w3.org/Graphics/SVG/1.1/DTD/svg11.dtd">
<svg version="1.1" id="Layer_1" xmlns="http://www.w3.org/2000/svg" xmlns:xlink="http://www.w3.org/1999/xlink" x="0px" y="0px"
	 width="59px" height="147px" viewBox="0 0 59 147" enable-background="new 0 0 59 147" xml:space="preserve">
<g>
	<polygon fill="#EDE4CA" points="23.342,135.981 27.035,136.276 27.035,49.055 31.27,49.055 57.201,4.442 53.701,2.109 
		25.663,49.699 22.429,50.305 	"/>
	<rect x="1.104" y="136.568" fill="#4FA84C" width="47.597" height="9.042"/>
	<g>
		<polygon fill="#68BC68" points="28.589,49.055 28.205,136.003 21.851,135.975 22.435,49.397 1.944,49.316 1.944,136.568 
			47.708,136.568 47.708,49.055 		"/>
		<g>
			<g>
				<g>
					<path fill="#314040" d="M48.317,147H1.25C0.56,147,0,146.441,0,145.75V23.438c0-0.69,0.56-1.25,1.25-1.25h47.067
						c0.69,0,1.25,0.56,1.25,1.25V145.75C49.567,146.441,49.008,147,48.317,147z M2.5,144.5h44.567V24.688H2.5V144.5z"/>
				</g>
				<g>
					<path fill="#314040" d="M27.339,137.827h-5.096c-0.69,0-1.25-0.56-1.25-1.25V49.055c0-0.69,0.56-1.25,1.25-1.25h5.096
						c0.69,0,1.25,0.56,1.25,1.25v87.522C28.589,137.268,28.03,137.827,27.339,137.827z M23.494,135.327h2.596V50.305h-2.596
						V135.327z"/>
				</g>
				<g>
					<path fill="#314040" d="M48.317,50.305H1.25c-0.69,0-1.25-0.56-1.25-1.25s0.56-1.25,1.25-1.25h47.067
						c0.69,0,1.25,0.56,1.25,1.25S49.008,50.305,48.317,50.305z"/>
				</g>
				<g>
					<path fill="#171752" d="M30.54,49.055"/>
				</g>
				<g>
					<path fill="#314040" d="M30.54,50.305c-0.22,0-0.442-0.058-0.644-0.18c-0.591-0.355-0.782-1.124-0.426-1.715L56.034,4.304
						l-2.224-1.339L25.663,49.699c-0.357,0.59-1.125,0.783-1.716,0.426c-0.591-0.355-0.782-1.124-0.426-1.715L52.314,0.605
						c0.357-0.592,1.123-0.781,1.716-0.427l4.365,2.629c0.284,0.172,0.488,0.448,0.568,0.77c0.08,0.321,0.028,0.662-0.143,0.945
						L31.611,49.7C31.376,50.09,30.963,50.305,30.54,50.305z"/>
				</g>
				<g>
					<path fill="#314040" d="M6.953,62.486c-0.69,0-1.25-0.56-1.25-1.25V32.611c0-0.691,0.56-1.25,1.25-1.25
						c0.691,0,1.25,0.559,1.25,1.25v28.625C8.203,61.927,7.643,62.486,6.953,62.486z"/>
				</g>
				<g>
					<path fill="#314040" d="M6.953,70.042c-0.69,0-1.25-0.559-1.25-1.25v-3.907c0-0.69,0.56-1.25,1.25-1.25
						c0.691,0,1.25,0.56,1.25,1.25v3.907C8.203,69.482,7.643,70.042,6.953,70.042z"/>
				</g>
				<g>
					<path fill="#314040" d="M6.953,82.782c-0.69,0-1.25-0.56-1.25-1.25v-3.628c0-0.69,0.56-1.25,1.25-1.25
						c0.691,0,1.25,0.56,1.25,1.25v3.628C8.203,82.222,7.643,82.782,6.953,82.782z"/>
				</g>
			</g>
			<g>
				<g>
					<path fill="#314040" d="M48.317,147H1.25C0.56,147,0,146.441,0,145.75v-9.173c0-0.69,0.56-1.25,1.25-1.25h47.067
						c0.69,0,1.25,0.56,1.25,1.25v9.173C49.567,146.441,49.008,147,48.317,147z M2.5,144.5h44.567v-6.673H2.5V144.5z"/>
				</g>
				<g>
					<path fill="#314040" d="M35.068,142.413H32.52c-0.69,0-1.25-0.559-1.25-1.25c0-0.69,0.56-1.25,1.25-1.25h2.548
						c0.69,0,1.25,0.56,1.25,1.25C36.318,141.854,35.759,142.413,35.068,142.413z"/>
				</g>
				<g>
					<path fill="#314040" d="M27.339,142.413H12.901c-0.69,0-1.25-0.559-1.25-1.25c0-0.69,0.56-1.25,1.25-1.25h14.439
						c0.69,0,1.25,0.56,1.25,1.25C28.589,141.854,28.03,142.413,27.339,142.413z"/>
				</g>
			</g>
		</g>
	</g>
</g>
</svg>
