<?xml version="1.0" encoding="utf-8"?>
<!-- Generator: Adobe Illustrator 17.0.0, SVG Export Plug-In . SVG Version: 6.00 Build 0)  -->
<!DOCTYPE svg PUBLIC "-//W3C//DTD SVG 1.1//EN" "http://www.w3.org/Graphics/SVG/1.1/DTD/svg11.dtd">
<svg version="1.1" id="Layer_1" xmlns="http://www.w3.org/2000/svg" xmlns:xlink="http://www.w3.org/1999/xlink" x="0px" y="0px"
	 width="105px" height="157px" viewBox="0 0 105 157" enable-background="new 0 0 105 157" xml:space="preserve">
<g>
	<rect x="36.099" y="150.206" fill="#68BC68" width="32.765" height="6.045"/>
	<path fill="#EDE4CA" d="M3.755,87.396l97.2-0.857c-0.087-0.224,16.3,43.724-31.652,63.667H36.099
		C36.67,150.409-12.014,132.836,3.755,87.396z"/>
	<polygon fill="#68BC68" points="102.627,89.819 3.201,89.819 3.755,87.396 3.838,85.27 100.694,85.27 101.799,87.105 	"/>
	<g>
		<path fill="#314040" d="M68.986,157h-32.82c-0.691,0-1.25-0.559-1.25-1.25v-5.398c0-0.69,0.56-1.25,1.25-1.25h32.82
			c0.691,0,1.25,0.56,1.25,1.25v5.398C70.236,156.441,69.676,157,68.986,157z M37.416,154.5h30.32v-2.898h-30.32V154.5z"/>
	</g>
	<path fill="#FEF6DB" d="M45.859,79.581h22.301l-1.258-2.75l-2.987-3.004l-2.265-0.871c0,0-0.011-1.75-0.568-2.125
		c-0.557-0.375-3.156-0.5-3.42-0.875s0-1.75,0-1.75l-2.889-1.889l-3.127-1.406l-2.501,1.406l-0.578,1.25l-1.25,1.569l-3.673,1.25
		l-1.423,2.19L45.859,79.581z"/>
	<polygon fill="#F2C000" points="68.548,78.873 63.619,73.046 73.369,54.206 87.867,78.873 	"/>
	<g>
		<path fill="#314040" d="M87.646,80.718c-0.446,0-0.878-0.239-1.103-0.66l-12.89-24.074l-9.87,18.434
			c-0.325,0.609-1.082,0.836-1.692,0.513c-0.609-0.326-0.838-1.084-0.512-1.692L72.55,52.745c0.217-0.406,0.641-0.66,1.102-0.66
			c0.461,0,0.885,0.254,1.102,0.66l13.993,26.133c0.326,0.608,0.097,1.366-0.512,1.692C88.047,80.67,87.845,80.718,87.646,80.718z"
			/>
	</g>
	<g>
		<path fill="#314040" d="M72.118,68.817h-1.564c-0.691,0-1.25-0.56-1.25-1.25c0-0.69,0.56-1.25,1.25-1.25h1.564
			c0.691,0,1.25,0.56,1.25,1.25C73.369,68.258,72.809,68.817,72.118,68.817z"/>
	</g>
	<g>
		<path fill="#314040" d="M74.31,63.031h-0.938c-0.691,0-1.25-0.56-1.25-1.25s0.56-1.25,1.25-1.25h0.938
			c0.691,0,1.25,0.56,1.25,1.25S75.001,63.031,74.31,63.031z"/>
	</g>
	<g>
		<path fill="#314040" d="M77.441,75.077h-1.565c-0.691,0-1.25-0.56-1.25-1.25s0.56-1.25,1.25-1.25h1.565
			c0.691,0,1.25,0.56,1.25,1.25S78.131,75.077,77.441,75.077z"/>
	</g>
	<g>
		<path fill="#314040" d="M67.297,80.715c-0.691,0-1.25-0.56-1.25-1.25c0-2.093-1.566-3.86-3.644-4.113
			c-0.571-0.07-1.021-0.52-1.09-1.091c-0.231-1.894-1.715-3.377-3.61-3.607c-0.571-0.069-1.021-0.52-1.09-1.091
			c-0.252-2.076-2.022-3.643-4.116-3.643s-3.863,1.566-4.116,3.644c-0.069,0.57-0.519,1.02-1.09,1.09
			c-1.754,0.213-3.179,1.517-3.548,3.242c-0.145,0.676-0.812,1.099-1.484,0.962c-0.675-0.145-1.106-0.809-0.962-1.483
			c0.526-2.463,2.393-4.389,4.778-5.026c0.765-2.865,3.38-4.928,6.422-4.928s5.656,2.062,6.422,4.928
			c2.297,0.61,4.09,2.402,4.7,4.698c2.866,0.766,4.929,3.379,4.929,6.419C68.548,80.155,67.988,80.715,67.297,80.715z"/>
	</g>
	<g>
		<g>
			<path fill="#68BC68" d="M57.662,51.388"/>
		</g>
		<g>
			<g>
				<path fill="#68BC68" d="M58.599,42.61c-0.691,0-1.25-0.56-1.25-1.25c0-0.69,0.56-1.25,1.25-1.25h11.997c0.022,0,0.043,0,0.064,0
					c2.351,0,4.538-0.895,6.194-2.525c1.67-1.646,2.6-3.844,2.617-6.188c0.036-4.84-3.874-8.807-8.715-8.843H57.14
					c-6.22,0-11.281-5.059-11.281-11.277C45.859,5.059,50.92,0,57.14,0c0.691,0,1.25,0.56,1.25,1.25c0,0.691-0.56,1.25-1.25,1.25
					c-4.841,0-8.78,3.938-8.78,8.777c0,4.84,3.939,8.777,8.78,8.777h13.624c6.23,0.046,11.253,5.143,11.207,11.36
					c-0.022,3.013-1.216,5.836-3.363,7.95c-2.146,2.114-4.995,3.224-8.001,3.244L58.599,42.61z"/>
			</g>
			<g>
				<path fill="#68BC68" d="M63.187,42.609c-0.028,0-0.057,0-0.085,0c-0.677-0.005-1.238-0.548-1.251-1.225
					c-0.014-0.677,0.504-1.241,1.18-1.273l0.021-0.001c0.021,0.001,0.043,0.001,0.064,0.001c4.881,0,8.814-3.896,8.85-8.714
					c0.036-4.84-3.874-8.807-8.715-8.843c-0.691-0.005-1.246-0.569-1.241-1.259c0.005-0.688,0.564-1.241,1.25-1.241
					c0.003,0,0.006,0,0.009,0c6.22,0.046,11.244,5.143,11.198,11.36C74.421,37.605,69.369,42.609,63.187,42.609z"/>
			</g>
			<g>
				<path fill="#68BC68" d="M56.024,61.156c-0.691,0-1.25-0.559-1.25-1.25v-8.593c0.046-6.199,5.098-11.203,11.28-11.203
					c0.028,0,0.057,0,0.085,0c0.689,0.005,1.254,0.566,1.251,1.255c-0.002,0.688-0.551,1.245-1.24,1.245h-0.021
					c-0.022,0-0.044,0-0.066,0c-4.82,0-8.753,3.895-8.788,8.712v8.584C57.274,60.597,56.715,61.156,56.024,61.156z"/>
			</g>
			<g>
				<path fill="#68BC68" d="M55.608,41.36"/>
			</g>
			<g>
				<path fill="#68BC68" d="M48.567,54.997c-0.691,0-1.25-0.56-1.25-1.25v-2.359c0-6.219,5.061-11.277,11.282-11.277
					c0.691,0,1.25,0.56,1.25,1.25c0,0.69-0.56,1.25-1.25,1.25c-4.842,0-8.781,3.938-8.781,8.777v2.359
					C49.818,54.438,49.258,54.997,48.567,54.997z"/>
			</g>
		</g>
	</g>
	<g>
		<path fill="#68BC68" d="M48.567,61.156c-0.691,0-1.25-0.559-1.25-1.25v-2.089c0-0.69,0.56-1.25,1.25-1.25
			c0.691,0,1.25,0.56,1.25,1.25v2.089C49.818,60.597,49.258,61.156,48.567,61.156z"/>
	</g>
	<polygon fill="#F2C000" points="17.593,78.873 29.082,57.894 31.422,54.206 45.921,78.873 	"/>
	<g>
		<path fill="#314040" d="M45.391,80.718c-0.446,0-0.878-0.239-1.103-0.66l-12.89-24.074l-12.89,24.074
			c-0.326,0.608-1.084,0.836-1.692,0.513c-0.609-0.326-0.838-1.084-0.512-1.692l13.993-26.133c0.218-0.406,0.641-0.66,1.102-0.66
			s0.885,0.254,1.102,0.66l13.993,26.133c0.326,0.608,0.097,1.366-0.512,1.692C45.793,80.67,45.591,80.718,45.391,80.718z"/>
	</g>
	<g>
		<path fill="#314040" d="M29.864,71.637h-1.565c-0.691,0-1.25-0.56-1.25-1.25c0-0.691,0.56-1.25,1.25-1.25h1.565
			c0.691,0,1.25,0.559,1.25,1.25C31.114,71.077,30.555,71.637,29.864,71.637z"/>
	</g>
	<g>
		<path fill="#314040" d="M32.056,64.911h-0.938c-0.691,0-1.25-0.56-1.25-1.25c0-0.691,0.56-1.25,1.25-1.25h0.938
			c0.691,0,1.25,0.559,1.25,1.25C33.306,64.352,32.746,64.911,32.056,64.911z"/>
	</g>
	<g>
		<path fill="#314040" d="M37.066,76.017h-1.564c-0.691,0-1.25-0.56-1.25-1.25c0-0.69,0.56-1.25,1.25-1.25h1.564
			c0.691,0,1.25,0.56,1.25,1.25C38.316,75.457,37.756,76.017,37.066,76.017z"/>
	</g>
	<g>
		<g>
			<g>
				<path fill="#314040" d="M70.1,151.602H34.893c-0.142,0-0.282-0.025-0.416-0.071C13.712,144.206,0,124.88,0,103.439
					c0-8.592,2.243-17.095,6.486-24.59c0.222-0.393,0.638-0.635,1.088-0.635h89.851c0.45,0,0.867,0.242,1.088,0.635
					c4.243,7.495,6.486,15.998,6.486,24.59c0,21.44-13.717,40.767-34.483,48.091C70.383,151.577,70.242,151.602,70.1,151.602z
					 M35.109,149.102h34.776c19.658-7.025,32.614-25.349,32.614-45.662c0-7.92-2.006-15.761-5.809-22.725H8.31
					c-3.803,6.964-5.809,14.805-5.809,22.725C2.501,123.753,15.451,142.076,35.109,149.102z"/>
			</g>
		</g>
	</g>
</g>
</svg>
