<?xml version="1.0" encoding="utf-8"?>
<!-- Generator: Adobe Illustrator 17.0.0, SVG Export Plug-In . SVG Version: 6.00 Build 0)  -->
<!DOCTYPE svg PUBLIC "-//W3C//DTD SVG 1.1//EN" "http://www.w3.org/Graphics/SVG/1.1/DTD/svg11.dtd">
<svg version="1.1" id="Layer_1" xmlns="http://www.w3.org/2000/svg" xmlns:xlink="http://www.w3.org/1999/xlink" x="0px" y="0px"
	 width="131px" height="132px" viewBox="0 0 131 132" enable-background="new 0 0 131 132" xml:space="preserve">
<g>
	<path fill="#EDE4CA" d="M73.491,8.224c-0.619-0.619-1.607-0.519-2.708-0.907c-9.37-3.307-30.492,11.194-43.548,24.25
		C12.294,46.509-3.514,71.794,3.812,77.903c0.673,0.562,4.631,2.165,5.799,2.165c8.084,0,27.741-13.023,40.875-26
		C71.361,33.442,78.399,13.132,73.491,8.224z"/>
	<g>
		<g>
			<path fill="#314040" d="M9.162,80.941c-2.64,0-4.721-0.742-6.184-2.205c-6.904-6.903,3.357-27.98,23.361-47.984
				C41.632,15.46,58.43,5.185,68.141,5.185c2.64,0,4.721,0.742,6.184,2.205c3.465,3.465,2.799,10.468-1.877,19.718
				c-4.471,8.845-12.101,18.883-21.484,28.267C35.672,70.667,18.873,80.941,9.162,80.941z M68.141,7.685
				c-8.949,0-25.412,10.212-40.034,24.834C7.826,52.801-0.345,71.877,4.746,76.969c0.977,0.978,2.463,1.473,4.416,1.473
				c8.949,0,25.412-10.212,40.033-24.834c9.201-9.201,16.667-19.013,21.021-27.627c4.089-8.089,4.942-14.221,2.341-16.822
				C71.579,8.181,70.094,7.685,68.141,7.685z"/>
		</g>
	</g>
	<g>
		<g>
			<path fill="#4FA84C" d="M64.042,14.817c-6.387,0-22.096,10.908-32.413,21.225C19.823,47.848,7.243,66.715,11.122,70.593
				c0.49,0.49,1.217,0.717,2.139,0.717c6.388,0,22.097-10.908,32.413-21.224C57.48,38.279,70.06,19.412,66.181,15.534
				C65.692,15.044,64.964,14.817,64.042,14.817L64.042,14.817z"/>
		</g>
	</g>
	<g>
		<g>
			<path fill="#314040" d="M67.155,130.182c-16.817,0.001-34.052-6.708-47.319-19.975c-9.852-9.851-16.385-22.11-18.893-35.451
				c-0.127-0.678,0.319-1.331,0.998-1.459c0.68-0.123,1.332,0.319,1.459,0.998c2.415,12.844,8.71,24.65,18.204,34.145
				c24.406,24.406,62.74,25.785,85.454,3.072c10.991-10.991,16.731-25.923,16.163-42.047c-0.569-16.157-7.4-31.572-19.235-43.407
				c-9.384-9.384-21.045-15.65-33.724-18.123c-0.678-0.132-1.12-0.788-0.988-1.466c0.133-0.677,0.789-1.112,1.466-0.987
				c13.169,2.567,25.276,9.071,35.013,18.809c12.284,12.283,19.375,28.296,19.966,45.087c0.592,16.824-5.407,32.416-16.894,43.902
				C97.518,124.586,82.511,130.182,67.155,130.182z"/>
		</g>
	</g>
	<path fill="#68BC68" d="M107.057,111.513c-22.713,22.713-61.047,21.334-85.454-3.072C13.536,100.373,7.789,90.633,4.759,80.01
		c1.224,0.616,2.694,0.932,4.403,0.932c9.711,0,26.509-10.275,41.801-25.566c9.384-9.384,17.014-19.422,21.484-28.267
		c3.962-7.838,5.033-14.052,3.164-17.878c10.602,3.035,20.326,8.781,28.373,16.828c11.834,11.835,18.666,27.25,19.235,43.407
		C123.787,85.59,118.047,100.521,107.057,111.513z"/>
	<g>
		<g>
			<path fill="#314040" d="M64.55,106.311c-3.454,0-6.84-1.14-9.587-3.234c-0.549-0.419-0.654-1.203-0.235-1.752
				c0.418-0.55,1.202-0.655,1.752-0.236c2.417,1.846,5.416,2.796,8.473,2.717c0.682-0.051,1.266,0.521,1.288,1.211
				c0.021,0.689-0.521,1.267-1.211,1.287C64.87,106.308,64.71,106.311,64.55,106.311z"/>
		</g>
	</g>
	<g>
		<g>
			<path fill="#314040" d="M112.148,27.854c-3.454,0-6.84-1.14-9.586-3.234c-0.549-0.419-0.654-1.203-0.235-1.752
				c0.42-0.55,1.202-0.655,1.752-0.236c2.418,1.845,5.42,2.801,8.473,2.717c0.677-0.062,1.266,0.521,1.288,1.211
				c0.021,0.689-0.521,1.267-1.211,1.287C112.468,27.851,112.308,27.854,112.148,27.854z"/>
		</g>
	</g>
	<g>
		<g>
			<path fill="#314040" d="M91.945,27.901c-0.107,0-0.216-0.014-0.325-0.043c-3.497-0.938-6.589-3.065-8.707-5.994
				c-0.405-0.56-0.279-1.341,0.28-1.745c0.559-0.404,1.341-0.279,1.745,0.28c1.783,2.464,4.385,4.256,7.329,5.045
				c0.666,0.179,1.062,0.864,0.884,1.53C93.001,27.533,92.496,27.901,91.945,27.901z"/>
		</g>
	</g>
	<g>
		<g>
			<path fill="#314040" d="M70.683,8.019c-0.107,0-0.216-0.014-0.325-0.043c-3.497-0.937-6.589-3.065-8.708-5.994
				c-0.405-0.559-0.279-1.341,0.28-1.745c0.558-0.404,1.341-0.279,1.745,0.28c1.783,2.464,4.386,4.256,7.33,5.045
				c0.667,0.179,1.062,0.864,0.884,1.53C71.74,7.651,71.235,8.019,70.683,8.019z"/>
		</g>
	</g>
	<g>
		<g>
			<path fill="#314040" d="M100.66,61.217c-0.347,0-0.691-0.144-0.938-0.424c-2.393-2.718-3.79-6.202-3.933-9.812
				c-0.027-0.69,0.51-1.271,1.199-1.299c0.704-0.034,1.271,0.51,1.299,1.199c0.121,3.039,1.296,5.972,3.31,8.26
				c0.457,0.519,0.406,1.309-0.112,1.765C101.248,61.114,100.953,61.217,100.66,61.217z"/>
		</g>
	</g>
	<g>
		<g>
			<path fill="#314040" d="M129.749,71.794c-0.227,0-0.458-0.062-0.665-0.192c-2.616-1.645-4.584-4.032-5.826-6.824
				c-0.213-0.479-0.446-2.835,0.208-3.057c0.656-0.218,1.364,0.129,1.585,0.782c0.976,2.881,2.784,5.36,5.364,6.983
				c0.585,0.367,0.76,1.139,0.393,1.724C130.57,71.587,130.164,71.794,129.749,71.794z"/>
		</g>
	</g>
	<g>
		<g>
			<path fill="#314040" d="M34.117,100.201c-0.367,0-0.729-0.16-0.977-0.469c-1.902-2.373-4.589-4.035-7.567-4.68
				c-0.675-0.146-1.104-0.812-0.958-1.486c0.146-0.673,0.812-1.105,1.486-0.957c3.538,0.766,6.73,2.74,8.99,5.561
				c0.432,0.538,0.345,1.325-0.194,1.757C34.666,100.111,34.39,100.201,34.117,100.201z"/>
		</g>
	</g>
	<g>
		<g>
			<path fill="#314040" d="M1.249,89.142c-0.219,0-0.44-0.057-0.641-0.178c-0.592-0.354-0.785-1.122-0.431-1.714
				c1.561-2.609,2.032-5.708,1.596-8.725c-0.099-0.684,0.375-1.317,1.059-1.416c0.688-0.096,1.318,0.376,1.416,1.059
				c0.517,3.584-0.07,7.265-1.925,10.365C2.089,88.926,1.674,89.142,1.249,89.142z"/>
		</g>
	</g>
	<g>
		<g>
			<path fill="#314040" d="M93.283,109.145c-0.457,0-0.897-0.251-1.117-0.687c-0.311-0.617-0.063-1.368,0.553-1.68
				c3.231-1.631,6.956-2.102,10.486-1.332c0.675,0.147,1.102,0.814,0.955,1.488c-0.147,0.675-0.813,1.098-1.488,0.955
				c-2.972-0.652-6.107-0.251-8.827,1.121C93.664,109.102,93.472,109.145,93.283,109.145z"/>
		</g>
	</g>
	<g>
		<g>
			<path fill="#314040" d="M97.388,121.936c-0.457,0-0.897-0.251-1.117-0.687c-0.311-0.617-0.063-1.368,0.553-1.68
				c3.231-1.63,6.956-2.103,10.486-1.332c0.675,0.147,1.102,0.814,0.955,1.488c-0.147,0.675-0.815,1.102-1.488,0.955
				c-2.973-0.65-6.107-0.251-8.827,1.121C97.769,121.893,97.577,121.936,97.388,121.936z"/>
		</g>
	</g>
	<g>
		<g>
			<path fill="#314040" d="M48.965,132c-0.379,0-0.753-0.172-0.999-0.497c-0.415-0.552-0.306-1.335,0.246-1.751
				c1.779-1.342,3.821-2.284,5.97-2.78c1.342-0.31,5.341,0.209,5.316,0.898c-0.025,0.69-0.61,1.257-1.294,1.204
				c-3.042-0.107-6.054,0.84-8.486,2.674C49.491,131.918,49.227,132,48.965,132z"/>
		</g>
	</g>
	<g>
		<g>
			<path fill="#314040" d="M32.456,130.057c-0.239,0-0.48-0.068-0.693-0.211c-0.574-0.384-0.729-1.159-0.345-1.733
				c2.184-3.269,1.302-7.704-1.966-9.889c-0.574-0.384-0.728-1.16-0.344-1.733c0.383-0.573,1.161-0.728,1.734-0.345
				c4.413,2.95,5.605,8.941,2.654,13.356C33.255,129.861,32.859,130.057,32.456,130.057z"/>
		</g>
	</g>
	<path fill="#314040" d="M64.042,17.317c0.155,0,0.266,0.012,0.34,0.024c0.176,0.902-0.435,4.515-5.29,12.121
		c-4.058,6.355-9.734,13.404-15.186,18.856C33.373,58.851,18.48,68.81,13.261,68.81c-0.155,0-0.266-0.012-0.34-0.024
		c-0.176-0.902,0.435-4.515,5.291-12.121c4.058-6.355,9.734-13.404,15.186-18.856C43.931,27.276,58.824,17.317,64.042,17.317
		 M64.042,14.817c-6.387,0-22.096,10.908-32.413,21.225C19.823,47.848,7.243,66.715,11.122,70.593
		c0.489,0.49,1.216,0.717,2.139,0.717c6.388,0,22.097-10.908,32.413-21.224C57.48,38.279,70.06,19.412,66.182,15.534
		C65.692,15.044,64.964,14.817,64.042,14.817L64.042,14.817z"/>
</g>
</svg>
