<?xml version="1.0" encoding="utf-8"?>
<!-- Generator: Adobe Illustrator 17.0.0, SVG Export Plug-In . SVG Version: 6.00 Build 0)  -->
<!DOCTYPE svg PUBLIC "-//W3C//DTD SVG 1.1//EN" "http://www.w3.org/Graphics/SVG/1.1/DTD/svg11.dtd">
<svg version="1.1" id="Layer_1" xmlns="http://www.w3.org/2000/svg" xmlns:xlink="http://www.w3.org/1999/xlink" x="0px" y="0px"
	 width="123px" height="72px" viewBox="0 0 123 72" enable-background="new 0 0 123 72" xml:space="preserve">
<g>
	<polygon fill="#EDE4CA" points="97.245,29.067 94.87,26.192 52.072,67.986 53.572,70.861 	"/>
	<path fill="#314040" d="M97.765,27.829c-0.488-0.488-1.28-0.488-1.768,0L54.513,69.31c-0.255,0.255-0.671,0.255-0.926,0
		c-0.255-0.255-0.255-0.67,0-0.925l41.484-41.481c0.488-0.488,0.488-1.28,0-1.768c-0.488-0.488-1.28-0.488-1.768,0L51.82,66.616
		c-1.23,1.23-1.23,3.231,0,4.461c1.23,1.23,3.231,1.23,4.461,0l41.484-41.481C98.253,29.109,98.253,28.317,97.765,27.829z"/>
	<g>
		<circle fill="#8DD3CB" cx="106.25" cy="16.75" r="15.666"/>
		<path fill="#314040" d="M118.1,28.599c-6.534,6.534-17.165,6.534-23.699,0s-6.534-17.165,0-23.699s17.165-6.534,23.699,0
			C124.633,11.434,124.633,22.066,118.1,28.599z M116.332,26.832c5.559-5.559,5.559-14.604,0-20.163
			c-5.559-5.559-14.605-5.559-20.164,0c-5.559,5.559-5.559,14.604,0,20.163C101.727,32.391,110.773,32.39,116.332,26.832z"/>
		<path fill="#314040" d="M114.564,8.436c-4.584-4.584-12.044-4.584-16.628,0c-0.488,0.488-0.488,1.28,0,1.768
			c0.488,0.488,1.28,0.488,1.768,0c3.609-3.609,9.483-3.61,13.092,0c3.61,3.61,3.61,9.483,0,13.093c-0.488,0.488-0.488,1.28,0,1.768
			c0.488,0.488,1.28,0.488,1.768,0C119.149,20.479,119.149,13.02,114.564,8.436z"/>
	</g>
	<g>
		<path fill="#EDE4CA" d="M52.033,22.968c0,0,0.176-0.063,0.491-0.176c2.699-0.965,15.595-5.588,15.259-5.699
			c-0.375-0.125-8.5-4.5-8.5-4.5l-4.5-8.294l-6,15.044l-7.875,0.125L16.533,43.093v8.75l-15.25,5.572l8.25,4.553l4.5,8.75l6-14.679
			l8.75-0.946l23.75-23.376"/>
		<g>
			<path fill="#314040" d="M17.425,54.562c-3.805-3.805-3.804-9.995,0-13.8L37.627,20.56c3.805-3.804,9.995-3.804,13.799,0
				c3.804,3.804,3.804,9.994,0,13.799L31.224,54.561C27.419,58.366,21.229,58.366,17.425,54.562z M19.192,42.53
				c-2.83,2.83-2.83,7.434,0,10.264c2.829,2.829,7.434,2.829,10.263-0.001l20.202-20.202c2.829-2.829,2.83-7.434,0-10.263
				c-2.83-2.83-7.434-2.83-10.264,0L19.192,42.53z"/>
			<path fill="#314040" d="M68.041,18.305L52.53,24.16c-0.459,0.174-0.978,0.062-1.325-0.285l-3.094-3.094
				c-0.347-0.347-0.459-0.866-0.285-1.325L53.68,3.944c0.17-0.456,0.592-0.769,1.079-0.806c0.485-0.035,0.948,0.215,1.184,0.642
				l4.369,7.894l7.893,4.368c0.427,0.236,0.677,0.699,0.642,1.184c-0.022,0.306-0.155,0.586-0.363,0.794
				C68.361,18.143,68.211,18.242,68.041,18.305z M50.449,19.584l1.954,1.953l12.228-4.615l-5.843-3.233
				c-0.205-0.114-0.375-0.283-0.489-0.489l-3.234-5.844L50.449,19.584z"/>
			<path fill="#314040" d="M14.87,71.634c-0.488,0.488-1.28,0.488-1.768,0c-0.14-0.14-0.24-0.304-0.3-0.481l-4.264-7.705
				l-7.893-4.369c-0.427-0.236-0.677-0.698-0.642-1.184c0.036-0.487,0.35-0.909,0.805-1.079l15.511-5.855
				c0.459-0.174,0.978-0.062,1.325,0.285l3.094,3.094c0.347,0.347,0.459,0.866,0.285,1.325L15.17,71.177
				c-0.063,0.17-0.162,0.319-0.285,0.443C14.88,71.625,14.875,71.63,14.87,71.634z M16.448,53.585L4.22,58.2l5.844,3.234
				c0.205,0.114,0.375,0.283,0.489,0.489l3.234,5.843l4.615-12.228L16.448,53.585z"/>
			<polygon fill="#314040" points="24.592,56.231 24.104,56.039 24.583,56.067 			"/>
		</g>
		
			<ellipse transform="matrix(-0.7071 -0.7071 0.7071 -0.7071 32.4358 88.4517)" fill="#68BC68" cx="34.537" cy="37.508" rx="4.618" ry="8.125"/>
	</g>
</g>
</svg>
