<?xml version="1.0" encoding="utf-8"?>
<!-- Generator: Adobe Illustrator 17.0.0, SVG Export Plug-In . SVG Version: 6.00 Build 0)  -->
<!DOCTYPE svg PUBLIC "-//W3C//DTD SVG 1.1//EN" "http://www.w3.org/Graphics/SVG/1.1/DTD/svg11.dtd">
<svg version="1.1" id="Layer_1" xmlns="http://www.w3.org/2000/svg" xmlns:xlink="http://www.w3.org/1999/xlink" x="0px" y="0px"
	 width="155px" height="30px" viewBox="0 0 155 30" enable-background="new 0 0 155 30" xml:space="preserve">
<g>
	<polygon fill="#68BC68" points="66.875,21.692 62.125,19.817 60.125,14.95 63.5,9.567 66.875,8.192 148.222,8.192 153.222,11.442 
		154.097,13.75 152.847,17.442 151.222,20.567 147.847,21.692 	"/>
	<path fill="#FEF6DB" d="M31.125,1.425c0,0,12.75,0.883,13.375,13.576S31.125,29.085,31.125,29.085S2.5,26.207,1.125,14.95
		C-0.25,3.692,31.125,1.425,31.125,1.425z"/>
	<g>
		<g>
			<path fill="#314040" d="M61.751,15c0-2.975,2.412-5.386,5.386-5.386h79.977c2.975,0,5.386,2.411,5.386,5.386
				c0,2.975-2.412,5.386-5.386,5.386H67.137C64.163,20.386,61.751,17.975,61.751,15 M59.251,15c0,4.349,3.538,7.886,7.886,7.886
				h79.977c4.349,0,7.886-3.538,7.886-7.886s-3.538-7.886-7.886-7.886H67.137C62.789,7.114,59.251,10.652,59.251,15L59.251,15z"/>
		</g>
		<path fill="#314040" d="M61.082,15c0,0.69-0.56,1.25-1.25,1.25H44.535c-0.69,0-1.25-0.56-1.25-1.25s0.56-1.25,1.25-1.25h15.297
			C60.522,13.75,61.082,14.31,61.082,15z"/>
		<path fill="#314040" d="M45.785,15c0,8.399-7.556,15-16.844,15c-4.708,0-11.77-1.455-17.572-3.966C6.183,23.789,0,20.053,0,15
			S6.183,6.211,11.369,3.966C17.172,1.455,24.233,0,28.941,0C38.229,0,45.785,6.601,45.785,15z M2.5,15
			c0,6.576,18.182,12.5,26.441,12.5c7.909,0,14.344-5.479,14.344-12.5S36.851,2.5,28.941,2.5C20.682,2.5,2.5,8.424,2.5,15z"/>
		<path fill="#314040" d="M39.454,14.949c0,5.167-4.203,9.37-9.37,9.37c-0.69,0-1.25-0.559-1.25-1.25c0-0.69,0.56-1.25,1.25-1.25
			c3.788,0,6.87-3.082,6.87-6.87s-3.082-6.87-6.87-6.87c-0.69,0-1.25-0.56-1.25-1.25s0.56-1.25,1.25-1.25
			C35.251,5.58,39.454,9.783,39.454,14.949z"/>
	</g>
</g>
</svg>
