<?xml version="1.0" encoding="utf-8"?>
<!-- Generator: Adobe Illustrator 17.0.0, SVG Export Plug-In . SVG Version: 6.00 Build 0)  -->
<!DOCTYPE svg PUBLIC "-//W3C//DTD SVG 1.1//EN" "http://www.w3.org/Graphics/SVG/1.1/DTD/svg11.dtd">
<svg version="1.1" id="Layer_1" xmlns="http://www.w3.org/2000/svg" xmlns:xlink="http://www.w3.org/1999/xlink" x="0px" y="0px"
	 width="192.15px" height="137px" viewBox="0 0 192.15 137" enable-background="new 0 0 192.15 137" xml:space="preserve">
<g>
	<polygon fill="#4FA84C" points="82.978,76.334 80.061,75.834 76.978,79.03 73.061,81.584 68.978,82.917 66.395,83.584 
		65.228,86.12 66.395,89.084 66.645,89.417 67.734,90.058 69.317,88.008 72.395,86.894 74.686,87.897 76.645,86.12 79.311,85.084 
		83.478,86.584 85.895,84.492 85.895,80.75 	"/>
	<rect x="2.5" y="102.205" fill="#4FA84C" width="187.445" height="8.246"/>
	<path fill="#EDE4CA" d="M188.986,110.192c0,0-0.667,12.859-45,19.833H47.32c0,0-32.566-4.649-43.45-19.574L188.986,110.192z"/>
	<polygon fill="#68BC68" points="187.82,112.726 4.445,112.726 3.07,110.303 2.07,108.177 189.945,108.177 189.07,110.012 	"/>
	<polyline fill="#FEF6DB" points="148.486,102.545 42.653,101.859 44.153,97.896 47.986,96.556 50.653,96.556 52.82,92.81 
		58.82,92.81 61.986,89.578 67.32,89.911 70.487,86.894 74.487,88.008 79.54,85.192 84.32,86.894 86.761,84.106 91.616,84.492 
		96.128,82.449 100.625,84.492 101.226,89.911 103.57,89.579 106.429,90.328 108.32,91.859 110.006,93.217 110.091,95.052 
		113.584,96.324 116.82,94.526 119.941,91.329 121.32,88.692 123.153,87.897 124.487,89.911 128.653,88.539 130.82,90.328 
		132.486,92.497 136.18,92.497 139.398,92.81 140.486,93.217 141.486,96.556 144.82,97.192 146.523,98.135 148.486,99.678 
		149.07,101.817 	"/>
	<path fill="#4FA84C" d="M151.82,94.872l-2.625-2.092l-3.625-1.451l-3.125-0.762l-4.75,2.243c0.375-0.368,3,2.757,3,2.757v2.007
		h4.748l2.877,1.493l0.75,2.75l3.362,0.728l1.013-2.853L151.82,94.872z"/>
	<g>
		<g>
			<path fill="#4FA84C" d="M100.625,57.825"/>
		</g>
		<g>
			<g>
				<path fill="#4FA84C" d="M115.322,47.76c-0.031,0-0.062,0-0.094,0h-13.546c-0.69,0-1.25-0.56-1.25-1.25s0.56-1.25,1.25-1.25
					h13.532c5.604,0.078,10.13-4.44,10.171-9.99c0.041-5.55-4.44-10.098-9.99-10.14h-15.358c-6.928,0-12.565-5.637-12.565-12.564
					C87.472,5.637,93.108,0,100.037,0c0.69,0,1.25,0.56,1.25,1.25s-0.56,1.25-1.25,1.25c-5.55,0-10.065,4.516-10.065,10.065
					c0,5.55,4.515,10.064,10.065,10.064h15.368c6.938,0.052,12.532,5.73,12.481,12.658C127.835,42.185,122.208,47.76,115.322,47.76z
					"/>
			</g>
			<g>
				<path fill="#4FA84C" d="M106.858,47.76c-0.032,0-0.063,0-0.095,0c-0.688-0.005-1.255-0.566-1.252-1.255
					c0.002-0.689,0.55-1.245,1.238-1.245h0.023c2.729,0.027,5.233-1.009,7.148-2.896c1.915-1.887,2.981-4.407,3-7.095
					c0.041-5.55-4.44-10.098-9.99-10.14c-0.69-0.005-1.246-0.569-1.241-1.26c0.005-0.688,0.556-1.215,1.259-1.24
					c6.928,0.052,12.523,5.73,12.472,12.658c-0.025,3.355-1.355,6.501-3.746,8.857C113.307,46.479,110.179,47.76,106.858,47.76z"/>
			</g>
			<g>
				<path fill="#4FA84C" d="M98.778,69.214c-0.69,0-1.25-0.56-1.25-1.25V57.741c0.025-3.365,1.355-6.511,3.746-8.866
					s5.579-3.62,8.912-3.614c0.679,0.005,1.241,0.55,1.253,1.229c0.011,0.678-0.508,1.241-1.186,1.27l-0.023,0.001
					c-2.773-0.005-5.285,1.01-7.2,2.896c-1.915,1.887-2.981,4.407-3,7.095v10.214C100.028,68.654,99.468,69.214,98.778,69.214z"/>
			</g>
			<g>
				<path fill="#4FA84C" d="M98.308,46.51"/>
			</g>
			<g>
				<path fill="#4FA84C" d="M90.366,61.442c-0.69,0-1.25-0.56-1.25-1.25v-2.367c0-6.929,5.637-12.565,12.565-12.565
					c0.69,0,1.25,0.56,1.25,1.25s-0.56,1.25-1.25,1.25c-5.55,0-10.065,4.516-10.065,10.065v2.367
					C91.616,60.883,91.057,61.442,90.366,61.442z"/>
			</g>
		</g>
	</g>
	<g>
		<g>
			<path fill="#314040" d="M66.958,90.328c-0.369,0-0.734-0.162-0.98-0.474c-0.439-0.554-0.832-1.154-1.168-1.783
				c-1.285-2.414-0.342-4.717,1.254-5.742c0.935-0.603,2.093-0.766,3.319-0.938c1.359-0.191,2.901-0.407,4.478-1.247
				c1.159-0.616,2.034-1.588,2.88-2.526c0.837-0.929,1.702-1.889,2.831-2.483c1.762-0.929,4.369-0.981,5.918,1.931
				c1.157,2.174,1.597,4.608,1.272,7.04c-0.092,0.685-0.723,1.152-1.405,1.074c-0.684-0.092-1.269-0.039-1.164-0.721
				c0.322-2.11,0-4.51-0.91-6.22c-0.254-0.477-0.929-1.743-2.545-0.894c-0.735,0.388-1.386,1.109-2.14,1.946
				c-0.945,1.048-2.016,2.236-3.562,3.06c-1.966,1.047-3.817,1.307-5.305,1.516c-0.987,0.139-1.839,0.259-2.313,0.563
				c-0.441,0.284-1.092,1.164-0.399,2.466c0.264,0.496,0.574,0.969,0.919,1.405c0.429,0.541,0.338,1.327-0.203,1.756
				C67.504,90.24,67.23,90.328,66.958,90.328z"/>
		</g>
		<g>
			<path fill="#314040" d="M73.966,86.894c-0.447,0-0.879-0.24-1.104-0.663c-0.324-0.609-0.093-1.366,0.516-1.69l4.325-2.302
				c0.607-0.326,1.367-0.094,1.691,0.517c0.324,0.609,0.093,1.366-0.516,1.69l-4.035,2.448
				C74.655,86.993,74.164,86.894,73.966,86.894z"/>
		</g>
	</g>
	<g>
		<g>
			<path fill="#314040" d="M153.444,103.069c-0.021,0-0.042-0.001-0.064-0.002c-0.689-0.034-1.22-0.621-1.186-1.311
				c0.256-5.074-3.663-9.41-8.736-9.666c-1.898-0.092-3.757,0.387-5.364,1.397c-0.583,0.37-1.355,0.191-1.724-0.392
				c-0.368-0.585-0.192-1.356,0.393-1.724c2.044-1.286,4.401-1.905,6.821-1.778c6.449,0.325,11.432,5.837,11.107,12.287
				C154.658,102.551,154.106,103.069,153.444,103.069z"/>
		</g>
	</g>
	<g>
		<path fill="#4FA84C" d="M90.366,69.214c-0.69,0-1.25-0.56-1.25-1.25v-2.88c0-0.69,0.56-1.25,1.25-1.25s1.25,0.56,1.25,1.25v2.88
			C91.616,68.654,91.057,69.214,90.366,69.214z"/>
	</g>
	<g>
		<path fill="#314040" d="M43.04,103.625c-0.69,0-1.25-0.56-1.25-1.25c0-3.539,2.879-6.419,6.419-6.419
			c0.57,0,1.132,0.075,1.674,0.222c0.568-2.962,3.179-5.207,6.304-5.207c0.797,0,1.578,0.147,2.312,0.435
			c1.087-2.074,3.243-3.427,5.666-3.427c0.974,0,1.917,0.223,2.784,0.65c1.191-1.641,3.107-2.645,5.194-2.645
			c0.974,0,1.917,0.223,2.784,0.65c1.19-1.641,3.106-2.645,5.193-2.645c1.207,0,2.368,0.336,3.376,0.964
			c1.195-1.246,2.839-1.961,4.603-1.961c1.206,0,2.368,0.336,3.375,0.964c1.195-1.246,2.839-1.962,4.603-1.962
			c1.86,0,3.628,0.815,4.849,2.236c0.45,0.523,0.39,1.312-0.134,1.763c-0.523,0.448-1.312,0.39-1.763-0.134
			c-0.746-0.867-1.822-1.365-2.953-1.365c-1.355,0-2.598,0.698-3.322,1.869c-0.199,0.321-0.534,0.536-0.909,0.582
			c-0.377,0.052-0.753-0.079-1.024-0.343c-0.738-0.716-1.706-1.11-2.723-1.11c-1.356,0-2.598,0.698-3.322,1.868
			c-0.199,0.321-0.534,0.536-0.909,0.582c-0.376,0.054-0.753-0.08-1.024-0.343c-0.738-0.716-1.705-1.11-2.723-1.11
			c-1.575,0-2.991,0.938-3.607,2.387c-0.153,0.36-0.466,0.629-0.846,0.724c-0.379,0.094-0.782,0.009-1.087-0.237
			c-0.717-0.575-1.56-0.879-2.438-0.879c-1.575,0-2.991,0.938-3.608,2.388c-0.153,0.36-0.466,0.628-0.846,0.723
			c-0.38,0.098-0.782,0.009-1.087-0.237c-0.717-0.575-1.56-0.879-2.438-0.879c-1.802,0-3.361,1.229-3.792,2.988
			c-0.099,0.401-0.389,0.729-0.776,0.874c-0.387,0.143-0.821,0.088-1.159-0.149c-0.668-0.472-1.447-0.721-2.251-0.721
			c-2.161,0-3.918,1.758-3.918,3.919c0,0.139,0.023,0.272,0.042,0.407l0.017,0.117c0.066,0.488-0.16,0.97-0.578,1.229
			c-0.418,0.262-0.949,0.251-1.358-0.023c-0.647-0.435-1.401-0.664-2.182-0.664c-2.161,0-3.919,1.758-3.919,3.919
			C44.29,103.065,43.73,103.625,43.04,103.625z"/>
	</g>
	<g>
		<path fill="#314040" d="M149.11,103.625c-0.69,0-1.25-0.56-1.25-1.25c0-2.161-1.758-3.919-3.919-3.919
			c-0.78,0-1.534,0.229-2.181,0.664c-0.409,0.274-0.941,0.285-1.358,0.023c-0.418-0.26-0.644-0.741-0.578-1.229l0.017-0.117
			c0.019-0.135,0.042-0.269,0.042-0.407c0-2.161-1.758-3.919-3.919-3.919c-0.804,0-1.583,0.249-2.251,0.721
			c-0.337,0.238-0.771,0.294-1.159,0.149c-0.387-0.146-0.678-0.472-0.776-0.874c-0.431-1.759-1.99-2.988-3.792-2.988
			c-0.878,0-1.721,0.304-2.437,0.879c-0.305,0.245-0.707,0.335-1.087,0.237c-0.379-0.095-0.692-0.362-0.846-0.723
			c-0.487-1.147-1.501-2.001-2.711-2.285c-0.672-0.157-1.089-0.83-0.931-1.502c0.157-0.672,0.827-1.091,1.502-0.932
			c1.506,0.354,2.826,1.245,3.723,2.477c0.867-0.429,1.811-0.651,2.786-0.651c2.423,0,4.579,1.352,5.667,3.426
			c0.733-0.286,1.514-0.434,2.311-0.434c3.125,0,5.736,2.245,6.304,5.206c0.542-0.146,1.103-0.221,1.673-0.221
			c3.54,0,6.419,2.88,6.419,6.419C150.36,103.065,149.8,103.625,149.11,103.625z"/>
	</g>
	<path fill="#4FA84C" d="M115.445,85.493c-0.375,0.176-3.25-0.691-3.25-0.691l-3-1.352l-2.766-2.132l-2.484-1.625l-1.75,1.125
		l-1.404,2.274v2.902l0.436,3.917l2.344-0.333l2.859,0.333l1.641,1.418l2.735,4.995l5.265-1.452l3.871-3.543l0.879-4.137
		l-1.875-2.391C118.945,84.802,115.82,85.317,115.445,85.493z"/>
	<g>
		<path fill="#314040" d="M112.334,89.911c-0.129,0-0.26-0.02-0.39-0.062l-4.655-1.527c-0.656-0.215-1.013-0.921-0.798-1.577
			c0.215-0.655,0.92-1.017,1.577-0.798l4.655,1.527c0.656,0.215,1.013,0.921,0.798,1.577
			C113.349,89.577,112.859,89.911,112.334,89.911z"/>
	</g>
	<path fill="#314040" d="M110.734,97.574c-0.271,0-0.543-0.01-0.816-0.028c-0.688-0.048-1.208-0.645-1.161-1.333
		c0.048-0.689,0.659-1.208,1.333-1.161c4.196,0.28,8.064-2.309,9.381-6.321c0.169-0.514,0.616-1.879-1.118-2.455
		c-0.789-0.263-1.76-0.234-2.885-0.197c-1.409,0.046-3.009,0.095-4.674-0.452c-2.117-0.694-3.587-1.85-4.768-2.778
		c-0.783-0.616-1.459-1.148-2.008-1.279c-0.51-0.12-1.595,0.02-2.055,1.419c-0.707,2.158-0.596,4.49,0.315,6.568
		c0.277,0.632-0.011,1.369-0.643,1.646c-0.632,0.277-1.37-0.011-1.647-0.643c-1.158-2.643-1.3-5.608-0.4-8.352
		c0.852-2.597,3.166-3.513,5.01-3.071c1.082,0.259,2.001,0.98,2.973,1.746c1.08,0.849,2.303,1.812,4.001,2.368
		c1.247,0.409,2.555,0.369,3.818,0.329c1.248-0.039,2.541-0.079,3.751,0.322c1.89,0.629,3.732,2.475,2.704,5.607
		C120.259,94.351,115.761,97.574,110.734,97.574z"/>
	<path fill="#314040" d="M109.986,97.896c-0.681,0-1.239-0.547-1.249-1.23c-0.032-2.047-1.165-3.931-2.955-4.916
		c-1.716-0.943-3.767-0.947-5.489-0.008c-0.604,0.329-1.364,0.106-1.696-0.499c-0.33-0.605-0.107-1.365,0.499-1.696
		c2.475-1.35,5.426-1.344,7.892,0.014c2.574,1.417,4.203,4.124,4.249,7.066c0.011,0.69-0.54,1.259-1.23,1.27
		C110,97.896,109.993,97.896,109.986,97.896z"/>
	<rect x="48.478" y="129.75" fill="#4FA84C" width="95.833" height="6"/>
	<g>
		<g>
			<g>
				<path fill="#314040" d="M145.169,131.188H46.982c-0.074,0-0.147-0.007-0.22-0.02C17.481,125.936,0,116.536,0,106.023v-3.648
					c0-0.69,0.56-1.25,1.25-1.25H190.9c0.69,0,1.25,0.56,1.25,1.25v3.648c0,10.513-17.481,19.912-46.762,25.145
					C145.316,131.181,145.242,131.188,145.169,131.188z M47.093,128.688h97.965c27.508-4.931,44.593-13.611,44.593-22.664v-2.398
					H2.5v2.398C2.5,115.076,19.585,123.757,47.093,128.688z"/>
			</g>
		</g>
	</g>
	<g>
		<g>
			<path fill="#314040" d="M143.924,137H48.073c-0.69,0-1.25-0.56-1.25-1.25v-5.812c0-0.69,0.56-1.25,1.25-1.25h95.851
				c0.691,0,1.25,0.56,1.25,1.25v5.812C145.174,136.44,144.615,137,143.924,137z M49.323,134.5h93.351v-3.312H49.323V134.5z"/>
		</g>
	</g>
</g>
</svg>
