<?xml version="1.0" encoding="utf-8"?>
<!-- Generator: Adobe Illustrator 17.0.0, SVG Export Plug-In . SVG Version: 6.00 Build 0)  -->
<!DOCTYPE svg PUBLIC "-//W3C//DTD SVG 1.1//EN" "http://www.w3.org/Graphics/SVG/1.1/DTD/svg11.dtd">
<svg version="1.1" id="Layer_1" xmlns="http://www.w3.org/2000/svg" xmlns:xlink="http://www.w3.org/1999/xlink" x="0px" y="0px"
	 width="67.84px" height="130px" viewBox="0 0 67.84 130" enable-background="new 0 0 67.84 130" xml:space="preserve">
<g>
	<g>
		<path fill="#8C2816" d="M8.486,52.587l13.875,13.875c0.613,0.613,1.427,0.95,2.293,0.95c0.867,0,1.681-0.337,2.293-0.95
			l13.877-13.875c1.262-1.265,1.262-3.322-0.001-4.586L26.947,34.126c-1.225-1.225-3.36-1.226-4.586,0L8.486,48.001
			C7.221,49.266,7.221,51.322,8.486,52.587z M10.249,49.764l13.875-13.875c0.141-0.141,0.329-0.219,0.529-0.219
			c0.2,0,0.388,0.078,0.529,0.219l13.875,13.875c0.292,0.291,0.292,0.768,0.001,1.059L25.181,64.699
			c-0.281,0.283-0.775,0.283-1.057,0L10.249,50.824C9.957,50.531,9.957,50.057,10.249,49.764z"/>
		<path fill="#8C2816" d="M28.714,72.611l-2.307,19.487c-0.21,1.775,1.063,3.391,2.838,3.601l19.486,2.308
			c0.13,0.016,0.257,0.022,0.384,0.022c1.641,0,3.024-1.23,3.217-2.861l2.308-19.486c0.211-1.776-1.063-3.392-2.838-3.602
			l-19.486-2.307C30.519,69.554,28.925,70.853,28.714,72.611z M52.164,75.389l-2.308,19.486c-0.045,0.377-0.362,0.661-0.741,0.661
			l-19.577-2.313c-0.409-0.049-0.704-0.422-0.655-0.831l2.307-19.485c0.045-0.373,0.358-0.656,0.818-0.656h0.013l19.486,2.307
			C51.919,74.607,52.213,74.98,52.164,75.389z"/>
		<path fill="#8C2816" d="M52.981,112.888l-0.657,8.312h-8.943c-0.612-4.639-4.593-8.231-9.397-8.231s-8.785,3.592-9.397,8.231
			h-8.943l-0.657-8.312c-0.055-0.685-0.651-1.216-1.342-1.145c-0.687,0.055-1.199,0.655-1.145,1.342l0.747,9.461
			c0.052,0.649,0.592,1.149,1.243,1.149h11.261c0.689,0,1.247-0.558,1.247-1.247c0-3.851,3.134-6.984,6.984-6.984
			c3.851,0,6.984,3.134,6.984,6.984c0,0.689,0.558,1.247,1.247,1.247h11.261c0.651,0,1.192-0.5,1.243-1.149l0.747-9.461
			c0.055-0.687-0.458-1.287-1.145-1.342C53.615,111.672,53.035,112.203,52.981,112.888z"/>
		<path fill="#8C2816" d="M66.593,6.855H52.341C50.29,2.085,36.671,0,29.451,0C21.605,0,9.505,1.888,7.757,6.855h-6.51
			C0.558,6.855,0,7.413,0,8.102v37.417c0,0.043,0.002,0.086,0.007,0.129l8.63,83.234C8.702,129.517,9.238,130,9.877,130h48.085
			c0.639,0,1.175-0.483,1.24-1.119l8.63-83.234c0.005-0.043,0.007-0.086,0.007-0.129V8.102C67.84,7.413,67.282,6.855,66.593,6.855z
			 M29.451,2.494c8.517,0,17.146,2.253,19.818,4.36h-6.84H21.048c-2.628,0-4.609,3.361-4.609,7.816l0.001,0.025L16.439,14.7
			l0.001,0.006c0.003,1.331,0.193,2.632,0.551,3.772c0.01,0.042,0.021,0.083,0.035,0.124c0.09,0.265,0.133,0.501,0.133,0.72
			c0,1.237-1.007,2.245-2.245,2.245c-1.237,0-2.245-1.007-2.245-2.245c0-0.219,0.044-0.454,0.134-0.717
			c0.016-0.045,0.028-0.091,0.038-0.136c0.356-1.138,0.545-2.435,0.548-3.763l0.001-0.006l-0.001-0.003
			c0-0.01,0.001-0.018,0.001-0.018c0-3.556-1.256-6.409-3.094-7.425C11.901,4.707,20.455,2.494,29.451,2.494z M2.494,9.349h6.288
			c0.729,0,1.779,1.597,2.047,4.104H2.494V9.349z M65.345,45.455l-8.507,82.051H11.002L2.494,45.455V15.947h8.325
			c-0.075,0.663-0.2,1.297-0.387,1.867c-0.012,0.037-0.022,0.074-0.03,0.112c-0.152,0.48-0.226,0.938-0.226,1.396
			c0,2.613,2.126,4.739,4.739,4.739c2.613,0,4.739-2.126,4.739-4.739c0-0.41-0.059-0.822-0.182-1.251
			c-0.017-0.16-0.062-0.31-0.134-0.445c-0.155-0.519-0.253-1.09-0.32-1.679h46.326V45.455z M65.345,13.453H19.001
			c0.268-2.507,1.318-4.104,2.047-4.104H42.43h8.928h0.02h13.968V13.453z"/>
		<path fill="#8C2816" d="M60.692,38.093c0.689,0,1.247-0.558,1.247-1.247V19.884c0-0.689-0.558-1.247-1.247-1.247
			c-0.689,0-1.247,0.558-1.247,1.247v16.962C59.445,37.534,60.003,38.093,60.692,38.093z"/>
		<path fill="#8C2816" d="M60.692,45.131c0.689,0,1.247-0.558,1.247-1.247v-2.549c0-0.689-0.558-1.247-1.247-1.247
			c-0.689,0-1.247,0.558-1.247,1.247v2.549C59.445,44.573,60.003,45.131,60.692,45.131z"/>
	</g>
	<polygon opacity="0.25" fill="#8C2816" points="61.967,7.98 61.967,45.74 53.92,128.923 57.925,129.69 66.932,44.831 66.24,7.98 	
		"/>
	<polygon opacity="0.25" fill="#8C2816" points="49.111,73.608 46.493,96.548 49.958,96.933 50.574,95.317 53.92,74.608 
		51.882,73.3 	"/>
	<polygon opacity="0.25" fill="#8C2816" points="22.09,36.194 38.333,52.899 40.797,50.157 39.873,48.357 25.092,34.14 
		23.476,34.14 	"/>
</g>
</svg>
