<?xml version="1.0" encoding="utf-8"?>
<!-- Generator: Adobe Illustrator 17.0.0, SVG Export Plug-In . SVG Version: 6.00 Build 0)  -->
<!DOCTYPE svg PUBLIC "-//W3C//DTD SVG 1.1//EN" "http://www.w3.org/Graphics/SVG/1.1/DTD/svg11.dtd">
<svg version="1.1" id="Layer_1" xmlns="http://www.w3.org/2000/svg" xmlns:xlink="http://www.w3.org/1999/xlink" x="0px" y="0px"
	 width="69px" height="132px" viewBox="0 0 69 132" enable-background="new 0 0 69 132" xml:space="preserve">
<g>
	<rect x="1.631" y="8.239" fill="#68BC68" width="66.79" height="6.727"/>
	<polygon fill="#EDE4CA" points="0.958,14.967 0.007,46.517 9.894,130.692 59.473,130.692 67.835,45.972 68.421,14.967 	"/>
	<g>
		<g>
			<path fill="#8DD3CB" d="M25.052,68.687c-0.877,0-1.702-0.341-2.323-0.962L8.583,53.578c-1.28-1.279-1.281-3.363,0-4.644
				l14.147-14.146c1.241-1.242,3.404-1.24,4.646,0l14.146,14.146c1.281,1.281,1.28,3.365,0,4.644L27.374,67.725
				C26.754,68.345,25.93,68.687,25.052,68.687z"/>
		</g>
		<g>
			<path fill="#8DD3CB" d="M49.992,99.905c-0.128,0-0.257-0.008-0.388-0.023l-19.868-2.354c-0.871-0.103-1.65-0.539-2.193-1.229
				c-0.543-0.688-0.786-1.548-0.682-2.42l2.353-19.867c0.211-1.78,1.829-3.092,3.648-2.875l19.868,2.354
				c0.871,0.103,1.65,0.539,2.193,1.229c0.543,0.688,0.786,1.548,0.682,2.42l-2.353,19.867
				C53.056,98.659,51.655,99.905,49.992,99.905z"/>
		</g>
		<g>
			<path fill="#314040" d="M54.439,125.572H42.958c-0.69,0-1.25-0.56-1.25-1.25c0-3.939-3.204-7.143-7.142-7.143
				c-3.938,0-7.143,3.204-7.143,7.143c0,0.69-0.56,1.25-1.25,1.25H14.692c-0.652,0-1.195-0.501-1.246-1.151l-0.762-9.647
				c-0.054-0.688,0.46-1.29,1.148-1.345c0.693-0.052,1.291,0.46,1.345,1.147l0.671,8.496h9.156c0.615-4.729,4.668-8.393,9.562-8.393
				c4.893,0,8.947,3.664,9.562,8.393h9.156l0.671-8.496c0.054-0.688,0.652-1.202,1.345-1.147c0.688,0.055,1.202,0.656,1.147,1.345
				l-0.762,9.647C55.634,125.071,55.091,125.572,54.439,125.572z"/>
		</g>
		<g>
			<path fill="#314040" d="M59.013,132H9.987c-0.641,0-1.177-0.484-1.243-1.121L0.007,46.517C0.002,46.474,0,46.431,0,46.388V8.239
				c0-0.69,0.56-1.25,1.25-1.25h7.621c0.69,0,4.848,0.56,4.848,1.25c0,0.69-0.56,1.25-1.25,1.25H2.5v36.834l8.614,83.177h46.771
				L66.5,46.323V9.489H43.176c-0.69,0-1.25-0.56-1.25-1.25c0-0.69,0.56-1.25,1.25-1.25H67.75c0.69,0,1.25,0.56,1.25,1.25v38.148
				c0,0.043-0.003,0.086-0.007,0.129l-8.738,84.362C60.19,131.516,59.653,132,59.013,132z"/>
		</g>
		<g>
			<path fill="#314040" d="M60.662,38.794c-0.69,0-1.25-0.56-1.25-1.25V20.251c0-0.69,0.56-1.25,1.25-1.25
				c0.69,0,1.25,0.56,1.25,1.25v17.293C61.912,38.234,61.353,38.794,60.662,38.794z"/>
		</g>
		<g>
			<path fill="#314040" d="M60.662,45.972c-0.69,0-1.25-0.56-1.25-1.25v-2.6c0-0.69,0.56-1.25,1.25-1.25c0.69,0,1.25,0.56,1.25,1.25
				v2.6C61.912,45.412,61.353,45.972,60.662,45.972z"/>
		</g>
		<g>
			<path fill="#314040" d="M12.299,16.217H2.208c-0.691,0-1.25-0.56-1.25-1.25s0.559-1.25,1.25-1.25h10.091
				c0.69,0,1.25,0.56,1.25,1.25S12.989,16.217,12.299,16.217z"/>
		</g>
		<g>
			<path fill="#314040" d="M67.171,16.217H17.949c-0.69,0-1.25-0.56-1.25-1.25s0.56-1.25,1.25-1.25h49.223
				c0.69,0,1.25,0.56,1.25,1.25S67.862,16.217,67.171,16.217z"/>
		</g>
		<polygon fill="#314040" points="67.835,9.489 18.844,9.489 20.719,6.989 67.835,6.989 		"/>
		<path fill="#EDE4CA" d="M9.894,7.524c0,0,2.788,3.639,1.742,8.693c-1.046,5.054,0.733,7.299,3.833,6.809
			C21.803,22.026,15.428,7,21.376,7l30.083-0.007c0,0-4.898-5.635-20.694-5.968C14.969,0.692,9.894,7.524,9.894,7.524z"/>
		<path fill="#314040" d="M45.003,2.02C40.516,0.755,34.887,0,29.944,0C21.941,0,9.586,1.924,7.831,6.989l0.436,2.501
			c2.022,0,2.782,2.172,2.782,5.446c0,1.15-0.165,2.262-0.475,3.213c-0.012,0.037-0.022,0.073-0.031,0.11
			c-0.154,0.489-0.229,0.955-0.229,1.42c0,2.652,2.158,4.811,4.81,4.811s4.81-2.158,4.81-4.811c0-0.417-0.06-0.835-0.185-1.271
			c-0.016-0.16-0.063-0.311-0.134-0.448c-0.272-0.908-0.416-1.949-0.416-3.024c0-2.341,0.381-5.212,2.178-5.446
			c0,0-0.472-2.489,0-2.489l30.635,0.627l1.272-0.634C52.48,5.013,49.704,3.344,45.003,2.02z M21.376,6.989
			c-2.667,0-4.678,3.416-4.678,7.946c0,1.364,0.194,2.699,0.561,3.87c0.01,0.045,0.022,0.089,0.037,0.133
			c0.093,0.272,0.138,0.515,0.138,0.74c0,1.274-1.037,2.311-2.31,2.311s-2.31-1.036-2.31-2.311c0-0.226,0.045-0.468,0.138-0.74
			c0.015-0.043,0.027-0.088,0.037-0.132c0.367-1.171,0.561-2.507,0.561-3.871c0-3.62-1.285-6.529-3.162-7.552
			C12.004,4.773,20.747,2.5,29.944,2.5c8.728,0,17.571,2.325,20.261,4.489H21.376z"/>
	</g>
</g>
</svg>
