<?xml version="1.0" encoding="utf-8"?>
<!-- Generator: Adobe Illustrator 17.0.0, SVG Export Plug-In . SVG Version: 6.00 Build 0)  -->
<!DOCTYPE svg PUBLIC "-//W3C//DTD SVG 1.1//EN" "http://www.w3.org/Graphics/SVG/1.1/DTD/svg11.dtd">
<svg version="1.1" id="Layer_1" xmlns="http://www.w3.org/2000/svg" xmlns:xlink="http://www.w3.org/1999/xlink" x="0px" y="0px"
	 width="155px" height="96px" viewBox="0 0 155 96" enable-background="new 0 0 155 96" xml:space="preserve">
<g>
	<g>
		<g>
			<g>
				<path fill="#314040" d="M149.92,25.245c-0.414,0-0.818-0.205-1.056-0.58c-0.37-0.583-0.198-1.355,0.385-1.725
					c0.491-0.312,0.831-0.798,0.958-1.366c0.127-0.568,0.025-1.151-0.288-1.643c-0.644-1.015-1.994-1.315-3.009-0.671
					c-0.582,0.371-1.355,0.199-1.725-0.385c-0.37-0.583-0.198-1.355,0.385-1.725c2.178-1.384,5.075-0.738,6.46,1.44
					c0.67,1.055,0.89,2.308,0.617,3.528c-0.272,1.22-1.003,2.261-2.059,2.931C150.381,25.183,150.15,25.245,149.92,25.245z"/>
			</g>
		</g>
		<path fill="#4FA84C" d="M42.753,63.807c0,0,1.345-29.177,28.336-45.635C89.846,6.735,107.554-3.187,124.844,2.969
			c7.446,2.651,15.074,7.717,22.246,17.865c20.292,28.713-2.412,57.589-26.833,66.339c-16.623,5.956-40.202,9.152-50.5,5.333
			c-2.087-0.774,16.532-2.916,25.875-9.833c7.746-5.735,12.12-16.248,10.125-18.453L42.753,63.807z"/>
		<g>
			<path opacity="0.25" fill="#314040" d="M113.867,89.396c-0.308,0.072-0.646,0.151-0.988,0.231
				C113.262,89.539,113.587,89.462,113.867,89.396z"/>
			<path opacity="0.25" fill="#314040" d="M110.193,90.258c0,0,0.363-0.085,0.891-0.209
				C110.802,90.115,110.51,90.184,110.193,90.258z"/>
			<path opacity="0.25" fill="#314040" d="M112.88,89.628c-0.574,0.135-1.156,0.271-1.633,0.383
				C111.876,89.863,112.417,89.737,112.88,89.628z"/>
			<path opacity="0.25" fill="#314040" d="M115.062,89.117c-0.169,0.04-0.45,0.105-0.792,0.186
				C114.656,89.212,114.913,89.152,115.062,89.117z"/>
			<path opacity="0.25" fill="#314040" d="M141.396,13.863c0.006,0.006,0.011,0.012,0.017,0.018l0.069,0.045L141.396,13.863z"/>
			<path opacity="0.25" fill="#314040" d="M141.396,13.863c-2.581-2.652-5.679-5.057-9.452-6.938L141.396,13.863z"/>
			<path opacity="0.25" fill="#314040" d="M115.062,89.117C115.303,89.06,115.276,89.066,115.062,89.117L115.062,89.117z"/>
		</g>
		<g>
			<g>
				<path fill="#314040" d="M84.842,96c-4.347,0.001-8.532-0.382-12.511-1.157l-2.653-0.523c-0.677-0.134-1.118-0.792-0.984-1.469
					c0.133-0.678,0.795-1.114,1.468-0.984l2.65,0.524c16.013,3.119,36.482-0.61,56.15-10.23
					c20.799-10.172,29.444-35.369,19.272-56.168c-4.927-10.075-13.484-17.509-24.093-21.149c-10.608-3.641-22-2.931-32.075,1.997
					C62.314,21.392,44.111,42.705,44.56,62.654c0.016,0.691-0.531,1.263-1.221,1.278c-0.718,0.028-1.263-0.532-1.278-1.222
					C41.589,41.774,60.33,19.46,90.968,4.475c10.674-5.223,22.744-5.853,33.985-1.997c11.241,3.857,20.306,11.741,25.527,22.417
					c10.777,22.037,1.618,48.733-20.419,59.512C114.464,92.034,98.831,96,84.842,96z"/>
			</g>
		</g>
		<g>
			<path fill="#314040" d="M135.461,44.625h-10.289c-0.69,0-1.25-0.559-1.25-1.25c0-0.69,0.56-1.25,1.25-1.25h10.289
				c0.69,0,1.25,0.56,1.25,1.25C136.711,44.065,136.151,44.625,135.461,44.625z"/>
		</g>
		<g>
			<path fill="#314040" d="M135.461,62.152h-10.289c-0.69,0-1.25-0.56-1.25-1.25c0-0.69,0.56-1.25,1.25-1.25h10.289
				c0.69,0,1.25,0.56,1.25,1.25C136.711,61.593,136.151,62.152,135.461,62.152z"/>
		</g>
		<g>
			<path fill="#314040" d="M143.427,52.592h-10.289c-0.69,0-1.25-0.559-1.25-1.25c0-0.69,0.56-1.25,1.25-1.25h10.289
				c0.69,0,1.25,0.56,1.25,1.25C144.677,52.032,144.118,52.592,143.427,52.592z"/>
		</g>
	</g>
	<g>
		<polygon fill="#314040" points="101.885,65.566 5.926,65.566 4.923,63.066 103.045,63.066 		"/>
		<path fill="#68BC68" d="M6.897,64.316C8.58,77.313,29.293,89.302,53.848,89.302c24.213,0,44.253-11.21,47.041-24.387L6.897,64.316
			z"/>
		<g>
			<path fill="#314040" d="M53.839,95.841C24.152,95.841,0,81.699,0,64.316c0-0.69,0.559-1.25,1.25-1.25h105.178
				c0.69,0,1.25,0.56,1.25,1.25C107.678,81.699,83.526,95.841,53.839,95.841z M2.547,65.566
				c1.163,15.426,23.725,27.774,51.292,27.774s50.129-12.349,51.292-27.774H2.547z"/>
		</g>
	</g>
</g>
</svg>
