<?xml version="1.0" encoding="utf-8"?>
<!-- Generator: Adobe Illustrator 17.0.0, SVG Export Plug-In . SVG Version: 6.00 Build 0)  -->
<!DOCTYPE svg PUBLIC "-//W3C//DTD SVG 1.1//EN" "http://www.w3.org/Graphics/SVG/1.1/DTD/svg11.dtd">
<svg version="1.1" id="Layer_1" xmlns="http://www.w3.org/2000/svg" xmlns:xlink="http://www.w3.org/1999/xlink" x="0px" y="0px"
	 width="151px" height="147px" viewBox="0 0 151 147" enable-background="new 0 0 151 147" xml:space="preserve">
<g>
	<polygon fill="#EDE4CA" points="52.734,59.817 47.811,63.043 38.178,57.442 42.319,56.368 	"/>
	<path fill="#F2C000" d="M89.064,144.442l-2.501-56.937L74.061,66.192v-8.844l2.956-0.98h50.191c0,0,34.258,6.451,18.004,31.138
		l-0.25,56.937l-3.001,0.95L89.064,144.442z"/>
	<path fill="#FEF6DB" d="M88.614,145.392l1.154-57.954c0,0,14.241-22.951-11.397-29.168c-25.637-6.217-30.561,4.773-30.561,4.773
		S31.468,51.908,19.098,57.18c-5.385,2.295-14.901,7.432-16.754,13.526c-2.403,7.905,3.751,16.8,3.751,16.8l-0.328,55.608
		l2.328,2.279H88.614z"/>
	<g>
		<path fill="#68BC68" d="M40.838,21.288H28.073c-0.024,0-0.046,0-0.07,0c-5.149,0-9.358-4.169-9.396-9.324
			c-0.019-2.51,0.941-4.876,2.703-6.664c1.761-1.787,4.114-2.781,6.624-2.8c0.691-0.005,1.246-0.568,1.241-1.259
			C29.17,0.554,28.612,0,27.925,0c-0.003,0-0.006,0-0.009,0c-3.177,0.023-6.156,1.282-8.387,3.546
			c-2.23,2.263-3.446,5.259-3.422,8.436c0.048,6.529,5.376,11.808,11.909,11.807c0.029,0,0.059,0,0.088,0h4.75v0.001
			c0.024,0,0.048,0,0.072,0c2.482,0,4.821,0.958,6.592,2.702c1.788,1.761,2.783,4.113,2.801,6.613v6.18c0,0.69,0.56,1.25,1.25,1.25
			c0.691,0,1.25-0.56,1.25-1.25v-6.188c-0.023-3.178-1.283-6.155-3.547-8.386c-0.338-0.333-0.697-0.635-1.065-0.922h0.63
			c5.181,0,9.396,4.215,9.396,9.395v10.79c0,0.69,0.56,1.25,1.25,1.25c0.691,0,1.25-0.56,1.25-1.25v-10.79
			C52.734,26.624,47.398,21.288,40.838,21.288z"/>
		<path fill="#68BC68" d="M43.57,42.723c-0.691,0-1.25,0.56-1.25,1.25v2.433c0,0.691,0.56,1.25,1.25,1.25
			c0.691,0,1.25-0.559,1.25-1.25v-2.433C44.82,43.282,44.26,42.723,43.57,42.723z"/>
		<path fill="#68BC68" d="M51.484,47.307c-0.691,0-1.25,0.56-1.25,1.25v3.094c0,0.69,0.56,1.25,1.25,1.25
			c0.691,0,1.25-0.56,1.25-1.25v-3.094C52.734,47.866,52.175,47.307,51.484,47.307z"/>
	</g>
	<path fill="#314040" d="M52.569,61.336c-0.197,0-0.397-0.047-0.583-0.144c-4.317-2.281-9.419-3.486-14.755-3.486h-9.514
		c-0.691,0-1.25-0.56-1.25-1.25c0-0.69,0.56-1.25,1.25-1.25h9.514c5.741,0,11.247,1.306,15.923,3.775
		c0.61,0.323,0.844,1.079,0.521,1.689C53.451,61.094,53.017,61.336,52.569,61.336z"/>
	<path fill="#314040" d="M142.101,147H86.687c-0.691,0-1.25-0.559-1.25-1.25c0-0.69,0.56-1.25,1.25-1.25h55.414
		c0.84,0,1.522-0.683,1.522-1.522c0-0.073,0.006-0.145,0.019-0.218V87.335c0-0.322,0.125-0.633,0.348-0.865
		c2.961-3.086,4.526-6.697,4.526-10.446c0-10.101-11.304-18.318-25.199-18.318H67.904c-0.691,0-1.25-0.56-1.25-1.25
		c0-0.69,0.56-1.25,1.25-1.25h55.414c15.274,0,27.699,9.339,27.699,20.818c0,4.254-1.684,8.326-4.874,11.806v55.113
		c0,0.083-0.008,0.166-0.025,0.246C146.009,145.309,144.249,147,142.101,147z"/>
	<path fill="#314040" d="M136.953,88.756h-11.522c-0.691,0-1.25-0.56-1.25-1.25s0.56-1.25,1.25-1.25h11.522
		c0.691,0,1.25,0.56,1.25,1.25S137.643,88.756,136.953,88.756z"/>
	<path fill="#314040" d="M120.074,88.756h-3.639c-0.691,0-1.25-0.56-1.25-1.25s0.56-1.25,1.25-1.25h3.639
		c0.691,0,1.25,0.56,1.25,1.25S120.765,88.756,120.074,88.756z"/>
	<path fill="#314040" d="M102.402,88.756h-2.426c-0.691,0-1.25-0.56-1.25-1.25s0.56-1.25,1.25-1.25h2.426
		c0.691,0,1.25,0.56,1.25,1.25S103.092,88.756,102.402,88.756z"/>
	<path fill="#314040" d="M46.145,141.501H22.697c-0.691,0-1.25-0.56-1.25-1.25c0-0.69,0.56-1.25,1.25-1.25h23.448
		c0.691,0,1.25,0.56,1.25,1.25C47.395,140.941,46.835,141.501,46.145,141.501z"/>
	<path fill="#314040" d="M54.938,141.501h-3.133c-0.691,0-1.25-0.56-1.25-1.25c0-0.69,0.56-1.25,1.25-1.25h3.133
		c0.691,0,1.25,0.56,1.25,1.25C56.188,140.941,55.628,141.501,54.938,141.501z"/>
	<path fill="#314040" d="M86.687,147H8.934c-2.156,0-3.921-1.704-4.019-3.836c-0.015-0.075-0.023-0.15-0.023-0.222V87.829
		c-3.191-3.479-4.874-7.552-4.874-11.806c0-11.479,12.426-20.818,27.699-20.818c7.619,0,14.875,2.351,20.094,6.479
		c5.219-4.129,12.474-6.479,20.093-6.479c15.274,0,27.699,9.339,27.699,20.818c0,4.254-1.683,8.326-4.874,11.806v55.113
		c0,0.083-0.008,0.166-0.025,0.246C90.594,145.309,88.835,147,86.687,147z M7.392,142.778c0.012,0.067,0.019,0.135,0.019,0.199
		c0,0.84,0.683,1.522,1.522,1.522h77.753c0.84,0,1.522-0.683,1.522-1.522c0-0.073,0.006-0.145,0.019-0.218V87.335
		c0-0.322,0.125-0.633,0.348-0.865c2.961-3.086,4.526-6.697,4.526-10.446c0-10.101-11.304-18.318-25.199-18.318
		c-7.435,0-14.46,2.387-19.276,6.547c-0.47,0.406-1.165,0.406-1.635,0c-4.816-4.16-11.841-6.547-19.276-6.547
		c-13.895,0-25.199,8.218-25.199,18.318c0,3.749,1.565,7.36,4.526,10.446c0.224,0.232,0.348,0.543,0.348,0.865V142.778z"/>
</g>
</svg>
