<?xml version="1.0" encoding="utf-8"?>
<!-- Generator: Adobe Illustrator 17.0.0, SVG Export Plug-In . SVG Version: 6.00 Build 0)  -->
<!DOCTYPE svg PUBLIC "-//W3C//DTD SVG 1.1//EN" "http://www.w3.org/Graphics/SVG/1.1/DTD/svg11.dtd">
<svg version="1.1" id="Layer_1" xmlns="http://www.w3.org/2000/svg" xmlns:xlink="http://www.w3.org/1999/xlink" x="0px" y="0px"
	 width="156.515px" height="83px" viewBox="0 0 156.515 83" enable-background="new 0 0 156.515 83" xml:space="preserve">
<g>
	<g>
		<path fill="#8C2816" d="M131.425,0H61.307c-4.967,0-9.754,1.118-13.815,3.135C43.388,1.09,38.627,0,33.664,0h-8.574
			C11.255,0,0,8.476,0,18.893c0,3.852,1.517,7.539,4.392,10.692v49.631c0,0.071,0.008,0.144,0.023,0.218
			C4.512,81.416,6.156,83,8.162,83h70.073h70.118c1.998,0,3.636-1.571,3.746-3.543c0.016-0.079,0.023-0.16,0.023-0.241V29.585
			c2.875-3.153,4.392-6.84,4.392-10.692C156.515,8.476,145.259,0,131.425,0z M44.81,4.665c-0.554,0.364-1.098,0.739-1.611,1.142
			c-1.457-1.142-3.102-2.112-4.86-2.936C40.608,3.219,42.784,3.822,44.81,4.665z M6.917,79.247c0-0.063-0.006-0.128-0.018-0.193
			V29.09c0-0.323-0.125-0.635-0.349-0.868c-2.645-2.758-4.044-5.984-4.044-9.329c0-9.035,10.131-16.386,22.582-16.386
			c6.67,0,12.973,2.14,17.29,5.87c0.47,0.408,1.169,0.408,1.639,0c4.317-3.73,10.618-5.87,17.289-5.87
			c12.453,0,22.583,7.351,22.583,16.386c0,3.345-1.399,6.572-4.045,9.329c-0.223,0.233-0.349,0.545-0.349,0.868v49.953
			c-0.011,0.068-0.017,0.135-0.017,0.204c0,0.687-0.558,1.246-1.245,1.246H8.162C7.476,80.493,6.917,79.934,6.917,79.247z
			 M149.964,28.222c-0.223,0.233-0.349,0.545-0.349,0.868v49.947c-0.012,0.069-0.018,0.139-0.018,0.21
			c0,0.687-0.558,1.246-1.245,1.246H81.757c0.118-0.331,0.205-0.677,0.225-1.043c0.015-0.076,0.022-0.155,0.022-0.234V29.585
			c2.876-3.153,4.394-6.839,4.394-10.692c0-7.002-5.089-13.123-12.625-16.386h57.652c12.453,0,22.583,7.35,22.583,16.386
			C154.008,22.238,152.609,25.465,149.964,28.222z"/>
		<path fill="#8C2816" d="M143.713,27.989H133.33c-0.692,0-1.254,0.561-1.254,1.254c0,0.692,0.561,1.253,1.254,1.253h10.383
			c0.693,0,1.254-0.561,1.254-1.253C144.966,28.551,144.405,27.989,143.713,27.989z"/>
		<path fill="#8C2816" d="M128.501,27.989h-3.279c-0.692,0-1.254,0.561-1.254,1.254c0,0.692,0.561,1.253,1.254,1.253h3.279
			c0.692,0,1.254-0.561,1.254-1.253C129.755,28.551,129.194,27.989,128.501,27.989z"/>
		<path fill="#8C2816" d="M112.471,27.989h-2.187c-0.692,0-1.254,0.561-1.254,1.254c0,0.692,0.561,1.253,1.254,1.253h2.187
			c0.692,0,1.254-0.561,1.254-1.253C113.725,28.551,113.163,27.989,112.471,27.989z"/>
		<path fill="#8C2816" d="M41.697,75.536H20.566c-0.692,0-1.254,0.561-1.254,1.254s0.561,1.254,1.254,1.254h21.132
			c0.692,0,1.254-0.561,1.254-1.254S42.39,75.536,41.697,75.536z"/>
		<path fill="#8C2816" d="M49.621,75.536h-2.823c-0.693,0-1.254,0.561-1.254,1.254s0.561,1.254,1.254,1.254h2.823
			c0.692,0,1.254-0.561,1.254-1.254S50.314,75.536,49.621,75.536z"/>
	</g>
	<polygon opacity="0.25" fill="#8C2816" points="35.004,1.801 42.951,7.468 47.004,4.635 41.838,1.801 	"/>
	<path opacity="0.25" fill="#8C2816" d="M70.171,1.801c0,0,11.92,4.865,14,12c2.08,7.135-3.667,15.441-3.667,15.441l-0.333,52.559
		h68.333l2.5-2V29.243c0,0,9.333-11.775,0-20.275c-9.333-8.5-16-7.167-16-7.167H70.171z"/>
</g>
</svg>
