<?xml version="1.0" encoding="utf-8"?>
<!-- Generator: Adobe Illustrator 17.0.0, SVG Export Plug-In . SVG Version: 6.00 Build 0)  -->
<!DOCTYPE svg PUBLIC "-//W3C//DTD SVG 1.1//EN" "http://www.w3.org/Graphics/SVG/1.1/DTD/svg11.dtd">
<svg version="1.1" id="Layer_1" xmlns="http://www.w3.org/2000/svg" xmlns:xlink="http://www.w3.org/1999/xlink" x="0px" y="0px"
	 width="118px" height="145px" viewBox="0 0 118 145" enable-background="new 0 0 118 145" xml:space="preserve">
<g>
	<g>
		<g>
			<g>
				<g>
					<path fill="#FEF6DB" d="M49.769,57.872"/>
				</g>
				<g>
					<g>
						<path fill="#FEF6DB" d="M35.075,47.798c-3.338,0-6.469-1.282-8.839-3.618c-2.393-2.357-3.724-6.506-3.749-9.865
							c-0.051-6.933,5.547-11.615,12.481-11.666h15.39c5.555,0,10.074-4.52,10.074-10.074S55.914,2.5,50.359,2.5
							c-0.69,0-1.25-0.559-1.25-1.25c0-0.69,0.56-1.25,1.25-1.25c6.934,0,12.574,5.641,12.574,12.574s-5.641,12.574-12.574,12.574
							H34.978c-5.545,0.042-10.031,4.595-9.99,10.149c0.02,2.69,1.087,5.213,3.003,7.102c1.917,1.889,4.442,2.922,7.146,2.897
							l13.576,0.001c0.69,0,1.25,0.56,1.25,1.25c0,0.69-0.56,1.25-1.25,1.25H35.169C35.137,47.798,35.106,47.798,35.075,47.798z"/>
					</g>
					<g>
						<path fill="#FEF6DB" d="M43.588,47.797l-0.023-0.001c-0.033,0-0.066,0-0.099,0c-3.262,0-6.39-1.282-8.759-3.616
							c-2.392-2.357-3.724-5.505-3.749-8.864C30.908,28.383,36.507,22.7,43.44,22.649c0.003,0,0.006,0,0.009,0
							c0.686,0,1.245,0.554,1.25,1.24c0.005,0.69-0.55,1.255-1.241,1.26c-5.555,0.042-10.041,4.595-10,10.149
							c0.02,2.69,1.086,5.213,3.003,7.102c1.917,1.889,4.44,2.922,7.146,2.897l0.033,1.251L43.588,47.797z"/>
					</g>
					<g>
						<path fill="#FEF6DB" d="M51.618,62.571c-0.69,0-1.25-0.56-1.25-1.25v-3.532c-0.041-5.521-4.553-9.991-10.073-9.991
							c-0.025,0-0.05,0-0.075,0l-0.033-2.5h0.023c0.031,0,0.063,0,0.094,0c6.882,0,12.513,5.579,12.564,12.482v3.541
							C52.868,62.012,52.309,62.571,51.618,62.571z"/>
					</g>
					<g>
						<path fill="#FEF6DB" d="M52.088,46.547"/>
					</g>
					<g>
						<path fill="#FEF6DB" d="M60.037,62.571c-0.69,0-1.25-0.56-1.25-1.25v-3.449c0-5.555-4.52-10.074-10.075-10.074
							c-0.69,0-1.25-0.56-1.25-1.25c0-0.69,0.56-1.25,1.25-1.25c6.934,0,12.575,5.641,12.575,12.574v3.449
							C61.287,62.012,60.727,62.571,60.037,62.571z"/>
					</g>
				</g>
			</g>
		</g>
		<g>
			<path fill="#FEF6DB" d="M51.618,70.148c-0.69,0-1.25-0.56-1.25-1.25V66.31c0-0.69,0.56-1.25,1.25-1.25s1.25,0.56,1.25,1.25v2.588
				C52.868,69.588,52.309,70.148,51.618,70.148z"/>
		</g>
	</g>
	<path fill="#68BC68" d="M26.514,85.408c0,0,5.375,5.923,9.25,5.173s7.687-5.847,12.5-5.173s7.928,6.055,10.589,5.239
		c2.661-0.816,6.953-5.074,11.536-5.3c4.583-0.226,7.25,5.859,12,4.734s8.696-5.536,12.5-4.741c3.804,0.795,5.036,2.647,5.036,2.647
		s-2.722-16.88-21.379-18.331c-18.657-1.451-22.238,10.537-22.238,10.537S38.514,70.609,26.514,85.408z"/>
	<g>
		<path fill="#314040" d="M100.611,89.178c-0.546,0-1.047-0.359-1.203-0.91c-2.895-10.262-12.372-17.429-23.048-17.429
			c-7.709,0-14.997,3.767-19.495,10.075c-0.362,0.508-1.047,0.671-1.601,0.38c-3.475-1.832-7.225-2.761-11.145-2.761
			c-6.416,0-12.441,2.504-16.968,7.05c-0.487,0.489-1.279,0.491-1.768,0.004c-0.489-0.487-0.491-1.278-0.004-1.768
			c4.999-5.021,11.654-7.786,18.739-7.786c3.913,0,7.814,0.886,11.351,2.568c5.001-6.445,12.73-10.263,20.889-10.263
			c11.789,0,22.256,7.916,25.454,19.249c0.188,0.665-0.199,1.355-0.864,1.543C100.838,89.163,100.723,89.178,100.611,89.178z"/>
	</g>
	<g>
		<g>
			<path fill="#314040" d="M91.288,145H27.005c-0.495,0-0.943-0.292-1.144-0.745L0.107,85.646c-0.171-0.386-0.135-0.833,0.096-1.188
				c0.23-0.354,0.625-0.567,1.047-0.567c3.38,0,5.111,1.543,6.639,2.904c1.368,1.219,2.402,2.271,4.83,2.271
				c2.428,0,3.609-1.053,4.977-2.271c1.528-1.361,3.259-2.904,6.64-2.904c3.378,0,5.109,1.543,6.636,2.905
				c1.366,1.218,2.546,2.271,4.972,2.271c2.426,0,3.607-1.053,4.974-2.271c1.528-1.362,3.259-2.905,6.638-2.905
				c3.378,0,5.109,1.543,6.636,2.905c1.366,1.218,2.546,2.271,4.972,2.271c2.425,0,3.604-1.053,4.971-2.271
				c1.526-1.362,3.257-2.905,6.634-2.905c3.377,0,5.108,1.543,6.634,2.905c1.366,1.218,2.545,2.271,4.97,2.271
				c2.425,0,3.604-1.053,4.97-2.271c1.526-1.362,3.257-2.905,6.634-2.905c3.378,0,5.109,1.543,6.635,2.905
				c1.366,1.218,2.546,2.271,4.971,2.271c2.425,0,3.165-1.053,4.531-2.271c1.527-1.362,3.257-2.905,6.636-2.905
				c0.423,0,0.817,0.214,1.047,0.567c0.231,0.354,0.267,0.802,0.096,1.188l-25.462,58.608C92.232,144.708,91.783,145,91.288,145z
				 M27.819,142.5h62.655l24.216-55.792c-1.171,0.401-2,1.141-2.913,1.954c-1.527,1.362-2.817,2.905-6.195,2.905
				c-3.378,0-5.108-1.543-6.635-2.905c-1.366-1.218-2.546-2.271-4.971-2.271c-2.425,0-3.604,1.053-4.97,2.271
				c-1.526,1.362-3.257,2.905-6.634,2.905c-3.377,0-5.108-1.543-6.634-2.905c-1.366-1.218-2.545-2.271-4.97-2.271
				c-2.425,0-3.604,1.052-4.97,2.271c-1.526,1.362-3.257,2.905-6.635,2.905c-3.378,0-5.109-1.543-6.636-2.905
				c-1.366-1.218-2.546-2.271-4.972-2.271c-2.427,0-3.607,1.053-4.975,2.271c-1.527,1.361-3.258,2.904-6.637,2.904
				c-3.379,0-5.109-1.543-6.636-2.905c-1.366-1.218-2.546-2.271-4.972-2.271c-2.428,0-3.609,1.053-4.976,2.271
				c-1.528,1.361-3.259,2.904-6.64,2.904c-3.38,0-4.965-1.543-6.493-2.904c-0.914-0.814-1.744-1.554-2.918-1.956L27.819,142.5z"/>
		</g>
		<g>
			<path fill="#314040" d="M61.683,139.878h-4.125c-0.69,0-1.25-0.56-1.25-1.25c0-0.691,0.56-1.25,1.25-1.25h4.125
				c0.69,0,1.25,0.559,1.25,1.25C62.933,139.318,62.373,139.878,61.683,139.878z"/>
		</g>
		<g>
			<path fill="#314040" d="M87.16,139.878H67.67c-0.69,0-1.25-0.56-1.25-1.25c0-0.691,0.56-1.25,1.25-1.25h18.663l1.938-4.555
				c0.271-0.636,1.005-0.93,1.64-0.661c0.635,0.27,0.931,1.005,0.661,1.64l-2.262,5.315
				C88.114,139.578,87.661,139.878,87.16,139.878z"/>
		</g>
		<g>
			<path fill="#314040" d="M25.946,129.678c-0.486,0-0.948-0.285-1.15-0.761l-9.264-21.763c-0.27-0.635,0.025-1.369,0.66-1.64
				c0.634-0.269,1.37,0.025,1.64,0.661l9.264,21.763c0.271,0.635-0.025,1.369-0.66,1.64
				C26.276,129.646,26.11,129.678,25.946,129.678z"/>
		</g>
	</g>
</g>
</svg>
