<?xml version="1.0" encoding="utf-8"?>
<!-- Generator: Adobe Illustrator 17.0.0, SVG Export Plug-In . SVG Version: 6.00 Build 0)  -->
<!DOCTYPE svg PUBLIC "-//W3C//DTD SVG 1.1//EN" "http://www.w3.org/Graphics/SVG/1.1/DTD/svg11.dtd">
<svg version="1.1" id="Layer_1" xmlns="http://www.w3.org/2000/svg" xmlns:xlink="http://www.w3.org/1999/xlink" x="0px" y="0px"
	 width="118.717px" height="143px" viewBox="0 0 118.717 143" enable-background="new 0 0 118.717 143" xml:space="preserve">
<g>
	<g>
		<path fill="#8C2816" d="M118.515,82.393c-0.231-0.354-0.625-0.568-1.048-0.568c-3.381,0-5.114,1.544-6.643,2.908
			c-1.368,1.22-2.549,2.274-4.978,2.274c-1.621,0-2.683-0.474-3.619-1.149c-3.342-11.116-13.689-18.847-25.342-18.847
			c-8.167,0-15.906,3.822-20.911,10.275c-3.542-1.685-7.447-2.571-11.364-2.571c-6.854,0-13.301,2.591-18.244,7.301
			c-0.564-0.114-1.169-0.191-1.857-0.191c-3.384,0-5.117,1.544-6.647,2.908c-1.369,1.219-2.551,2.274-4.982,2.274
			c-2.432,0-3.614-1.054-4.983-2.275c-1.53-1.363-3.263-2.907-6.646-2.907c-0.423,0-0.817,0.214-1.048,0.568
			c-0.23,0.355-0.267,0.802-0.096,1.188l25.931,58.674c0.2,0.453,0.649,0.745,1.144,0.745h64.354c0.495,0,0.944-0.292,1.144-0.745
			l25.931-58.674C118.781,83.195,118.745,82.747,118.515,82.393z M44.61,77.216c3.924,0,7.679,0.93,11.158,2.764
			c0.556,0.292,1.239,0.129,1.601-0.38c4.502-6.316,11.798-10.087,19.516-10.087c9.186,0,17.472,5.307,21.464,13.319
			c-1.067-0.589-2.371-1.006-4.121-1.006c-3.381,0-5.113,1.545-6.641,2.908c-1.368,1.22-2.549,2.274-4.976,2.274
			c-2.428,0-3.609-1.053-4.977-2.274c-1.528-1.364-3.26-2.908-6.642-2.908c-3.38,0-5.112,1.544-6.64,2.908
			c-1.368,1.219-2.549,2.274-4.977,2.274c-2.429,0-3.61-1.053-4.978-2.274c-1.529-1.363-3.261-2.908-6.643-2.908
			c-3.382,0-5.116,1.544-6.644,2.907c-1.369,1.22-2.551,2.275-4.981,2.275c-2.429,0-3.61-1.053-4.978-2.274
			c-0.651-0.581-1.349-1.188-2.186-1.702C33.314,79.273,38.801,77.216,44.61,77.216z M90.721,140.499H27.996L3.31,84.642
			c1.176,0.401,2.008,1.143,2.922,1.958c1.53,1.364,3.263,2.909,6.647,2.909c3.383,0,5.116-1.545,6.646-2.908
			c1.369-1.22,2.551-2.274,4.983-2.274c2.429,0,3.61,1.053,4.978,2.273c1.528,1.364,3.261,2.909,6.642,2.909
			c3.383,0,5.116-1.545,6.645-2.909c1.369-1.22,2.55-2.273,4.98-2.273c2.429,0,3.611,1.054,4.979,2.273
			c1.529,1.364,3.261,2.909,6.642,2.909c3.381,0,5.113-1.546,6.641-2.909c1.368-1.22,2.549-2.273,4.976-2.273
			c2.428,0,3.609,1.053,4.977,2.273c1.528,1.364,3.26,2.909,6.642,2.909c3.38,0,5.112-1.545,6.641-2.909
			c1.368-1.219,2.549-2.273,4.977-2.273c2.428,0,3.609,1.053,4.977,2.273c1.528,1.363,3.26,2.909,6.642,2.909
			c3.381,0,5.114-1.545,6.642-2.909c0.913-0.815,1.744-1.555,2.918-1.957L90.721,140.499z"/>
		<path fill="#8C2816" d="M62.191,135.371h-4.13c-0.691,0-1.251,0.56-1.251,1.251c0,0.691,0.56,1.251,1.251,1.251h4.13
			c0.691,0,1.25-0.56,1.25-1.251C63.442,135.931,62.882,135.371,62.191,135.371z"/>
		<path fill="#8C2816" d="M90.451,130.15c-0.633-0.267-1.37,0.026-1.64,0.661l-1.94,4.56H68.185c-0.691,0-1.25,0.56-1.25,1.251
			c0,0.691,0.56,1.251,1.25,1.251h19.512c0.501,0,0.954-0.3,1.151-0.761l2.265-5.321C91.383,131.155,91.087,130.421,90.451,130.15z"
			/>
		<path fill="#8C2816" d="M18.291,104.134c-0.271-0.635-1.004-0.929-1.64-0.661c-0.636,0.271-0.932,1.005-0.661,1.64l9.274,21.786
			c0.203,0.476,0.665,0.761,1.152,0.761c0.163,0,0.329-0.032,0.488-0.1c0.636-0.271,0.932-1.005,0.661-1.64L18.291,104.134z"/>
		<path fill="#8C2816" d="M35.554,47.849c0.031,0,0.062,0,0.094,0h5.057v0.001c0.025,0,0.052,0,0.077,0
			c2.665,0,5.176,1.029,7.076,2.901c1.92,1.891,2.988,4.417,3.007,7.101v4.547c0,0.691,0.56,1.251,1.25,1.251
			c0.691,0,1.25-0.56,1.25-1.251v-4.556c-0.024-3.363-1.357-6.514-3.752-8.874c-0.417-0.411-0.867-0.777-1.329-1.121h0.922
			c5.562,0,10.086,4.524,10.086,10.086v4.464c0,0.691,0.56,1.251,1.25,1.251c0.691,0,1.25-0.56,1.25-1.251v-4.464
			c0-6.94-5.647-12.587-12.587-12.587h-5.11h-0.075c-5.528,0-10.045-4.476-10.086-10.013c-0.021-2.694,1.01-5.234,2.901-7.152
			c1.891-1.92,4.417-2.988,7.11-3.007h6.908c6.94,0,12.587-5.647,12.587-12.588C63.442,5.647,57.795,0,50.855,0
			c-0.691,0-1.251,0.56-1.251,1.25c0,0.691,0.56,1.25,1.251,1.25c5.562,0,10.086,4.524,10.086,10.086
			c0,5.562-4.524,10.087-10.086,10.087h-6.917h-0.009h-8.481c-3.363,0.024-6.513,1.357-8.874,3.753
			c-2.359,2.395-3.645,5.565-3.621,8.927C23.004,42.264,28.641,47.85,35.554,47.849z M28.356,28.182
			c1.891-1.919,4.416-2.987,7.101-3.006h1.054c-0.509,0.381-1.001,0.79-1.456,1.251c-2.36,2.395-3.646,5.565-3.621,8.927
			c0.03,4.097,2.032,7.717,5.086,9.994h-0.905c-0.025,0-0.051,0-0.076,0c-2.666,0-5.178-1.029-7.078-2.902
			c-1.92-1.891-2.988-4.417-3.007-7.11C25.435,32.641,26.464,30.101,28.356,28.182z"/>
		<path fill="#8C2816" d="M52.116,66.142c-0.691,0-1.25,0.56-1.25,1.251v2.591c0,0.691,0.56,1.251,1.25,1.251
			c0.691,0,1.25-0.56,1.25-1.251v-2.591C53.366,66.702,52.807,66.142,52.116,66.142z"/>
	</g>
	<polygon opacity="0.25" fill="#8C2816" points="115.46,83.166 112.085,84.666 106.96,87.166 83.96,142.317 91.4,141.541 
		117.085,83.166 	"/>
	<path opacity="0.25" fill="#8C2816" d="M75.61,69.549c0,0,7.015,2.782,12.589,14.645h2.741l1.667-1.028c0,0,2.75,0.308,3,0.474
		s4,1,4,1l0.917,0.75c0,0-3.325-16.417-24.913-17.083V69.549z"/>
</g>
</svg>
