<?xml version="1.0" encoding="utf-8"?>
<!-- Generator: Adobe Illustrator 17.0.0, SVG Export Plug-In . SVG Version: 6.00 Build 0)  -->
<!DOCTYPE svg PUBLIC "-//W3C//DTD SVG 1.1//EN" "http://www.w3.org/Graphics/SVG/1.1/DTD/svg11.dtd">
<svg version="1.1" id="Layer_1" xmlns="http://www.w3.org/2000/svg" xmlns:xlink="http://www.w3.org/1999/xlink" x="0px" y="0px"
	 width="151px" height="46px" viewBox="0 0 151 46" enable-background="new 0 0 151 46" xml:space="preserve">
<g>
	<rect x="133.761" y="1.335" fill="#EDE4CA" width="16.209" height="43.551"/>
	<path fill="#EDE4CA" d="M80.025,1.627l0.625,43.256c0,0-15.746,0.851-20.495-11.357H21.23l-1.938,1.197h-3.989V11.277l3.989-0.585
		l1.375,1.833l39.115,0.542C59.78,13.068,64.529,0.127,80.025,1.627z"/>
	<rect x="80.275" y="1.335" fill="#4FA84C" width="53.486" height="43.381"/>
	<rect x="1.462" y="12.526" fill="#4FA84C" width="13.496" height="21"/>
	<g>
		<path fill="#314040" d="M77.787,0h71.943c0.69,0,1.25,0.56,1.25,1.25v43.5c0,0.69-0.559,1.25-1.25,1.25H77.787
			c-7.492,0-14.37-4.109-18.123-11.277H19.98c-0.69,0-1.25-0.559-1.25-1.25V12.527c0-0.69,0.559-1.25,1.25-1.25h39.684
			C63.417,4.109,70.295,0,77.787,0z M148.481,2.5H77.787c-6.768,0-12.986,3.859-16.228,10.571c-0.208,0.432-0.646,0.706-1.125,0.706
			H21.23v18.445h39.204c0.479,0,0.917,0.274,1.125,0.706c3.242,6.712,9.46,10.571,16.228,10.571h70.694V2.5z"/>
		<path fill="#314040" d="M15.302,9.606h4.678c0.69,0,1.25,0.56,1.25,1.25v24.288c0,0.69-0.559,1.25-1.25,1.25h-4.678
			c-0.69,0-1.25-0.56-1.25-1.25V10.856C14.052,10.166,14.612,9.606,15.302,9.606z M18.73,12.106h-2.179v21.788h2.179V12.106z"/>
		<path fill="#314040" d="M1.23,11.277h14.072c0.69,0,1.25,0.56,1.25,1.25v20.945c0,0.691-0.559,1.25-1.25,1.25H1.23
			c-0.69,0-1.25-0.559-1.25-1.25V12.527C-0.02,11.837,0.539,11.277,1.23,11.277z M14.052,13.777H2.479v18.445h11.573V13.777z"/>
		<path fill="#314040" d="M80.1,0h53.404c0.69,0,1.25,0.56,1.25,1.25v43.5c0,0.69-0.559,1.25-1.25,1.25H80.1
			c-0.69,0-1.25-0.56-1.25-1.25V1.25C78.85,0.56,79.41,0,80.1,0z M132.254,2.5H81.35v41h50.904V2.5z"/>
	</g>
	<circle fill="#68BC68" cx="106.802" cy="23.026" r="16.079"/>
</g>
</svg>
