<?xml version="1.0" encoding="utf-8"?>
<!-- Generator: Adobe Illustrator 17.0.0, SVG Export Plug-In . SVG Version: 6.00 Build 0)  -->
<!DOCTYPE svg PUBLIC "-//W3C//DTD SVG 1.1//EN" "http://www.w3.org/Graphics/SVG/1.1/DTD/svg11.dtd">
<svg version="1.1" id="Layer_1" xmlns="http://www.w3.org/2000/svg" xmlns:xlink="http://www.w3.org/1999/xlink" x="0px" y="0px"
	 width="143px" height="146px" viewBox="0 0 143 146" enable-background="new 0 0 143 146" xml:space="preserve">
<g>
	<rect x="44.83" y="139.206" fill="#68BC68" width="53.406" height="5.694"/>
	<path fill="#EDE4CA" d="M2.937,81.957H141.59c0,0-4.26,41.749-43.01,57.249H44.83C44.83,139.206,0.304,118.708,2.937,81.957z"/>
	<path fill="#314040" d="M98.525,146H44.586c-0.688,0-1.245-0.557-1.245-1.245v-5.726c0-0.688,0.557-1.245,1.245-1.245h53.939
		c0.688,0,1.245,0.557,1.245,1.245v5.726C99.77,145.443,99.213,146,98.525,146z M45.83,143.51h51.45v-3.236H45.83V143.51z"/>
	<path fill="#EDE4CA" d="M48.229,53.288h-9.966H24.539c-6.657,0-12.072-5.416-12.072-12.072s5.416-12.072,12.072-12.072h5.985
		c0.037,0,0.074,0,0.111,0c3.85,0,7.478-1.486,10.224-4.192c2.772-2.731,4.315-6.38,4.344-10.272
		c0.029-3.892-1.46-7.562-4.192-10.335C38.279,1.571,34.631,0.028,30.739,0c-0.004,0-0.006,0-0.009,0
		c-0.686,0-1.245,0.554-1.25,1.241C29.475,1.932,30.03,2.495,30.72,2.5c3.225,0.023,6.247,1.302,8.51,3.599
		c2.263,2.297,3.496,5.338,3.473,8.562c-0.049,6.657-5.493,11.995-12.198,11.983H14.572C6.537,26.644,0,33.181,0,41.216
		c0,8.035,6.537,14.572,14.572,14.572h9.966h3.758c10.224,0,18.542,8.318,18.542,18.542c0,0.691,0.56,1.25,1.25,1.25
		c0.69,0,1.25-0.559,1.25-1.25c0-8.012-4.504-14.989-11.11-18.542h0.034c10.224,0,18.542,8.318,18.542,18.542
		c0,0.691,0.56,1.25,1.25,1.25c0.69,0,1.25-0.559,1.25-1.25c0-8.012-4.504-14.989-11.11-18.542h0.035
		c10.224,0,18.542,8.318,18.542,18.542c0,0.691,0.56,1.25,1.25,1.25c0.69,0,1.25-0.559,1.25-1.25
		C69.27,62.728,59.831,53.288,48.229,53.288z M14.572,53.288C7.916,53.288,2.5,47.872,2.5,41.216s5.416-12.072,12.072-12.072h1.814
		c-3.871,2.622-6.42,7.055-6.42,12.072c0,5.017,2.549,9.45,6.42,12.072H14.572z"/>
	<polygon fill="#68BC68" points="140.249,83.614 2.825,83.614 1.803,75.471 141.59,75.471 	"/>
	<polygon fill="#4FA84C" points="139.86,87.075 2.873,87.075 2.234,83.985 2.234,81.273 140.707,81.273 140.249,83.614 	"/>
	<g>
		<g>
			<path fill="#314040" d="M99.286,140.257H43.715c-0.169,0-0.337-0.034-0.493-0.102C16.82,128.819,0,102.936,0,74.214
				c0-0.69,0.56-1.25,1.25-1.25h140.5c0.69,0,1.25,0.56,1.25,1.25c0,28.722-16.819,54.604-43.221,65.941
				C99.624,140.223,99.456,140.257,99.286,140.257z M43.974,137.757h55.054c24.966-10.827,40.975-35.158,41.461-62.293H2.511
				C2.997,102.599,19.007,126.93,43.974,137.757z"/>
		</g>
	</g>
</g>
</svg>
