<?xml version="1.0" encoding="utf-8"?>
<!-- Generator: Adobe Illustrator 17.0.0, SVG Export Plug-In . SVG Version: 6.00 Build 0)  -->
<!DOCTYPE svg PUBLIC "-//W3C//DTD SVG 1.1//EN" "http://www.w3.org/Graphics/SVG/1.1/DTD/svg11.dtd">
<svg version="1.1" id="Layer_1" xmlns="http://www.w3.org/2000/svg" xmlns:xlink="http://www.w3.org/1999/xlink" x="0px" y="0px"
	 width="155px" height="27px" viewBox="0 0 155 27" enable-background="new 0 0 155 27" xml:space="preserve">
<g>
	<polygon fill="#F2C000" points="6.625,7.067 2.375,9.692 1.25,13.5 1.25,16.067 6,19.692 89.361,20.567 94.236,16.694 
		94.611,12.442 90.736,7.067 89.111,7.067 	"/>
	<g>
		<path fill="#314040" d="M114.355,13.5c0-7.421,6.038-13.5,13.459-13.5h25.936c0.69,0,1.25,0.559,1.25,1.25
			c0,0.69-0.56,1.25-1.25,1.25h-25.936c-6.043,0-10.959,4.957-10.959,11c0,6.043,4.916,11,10.959,11h25.936
			c0.69,0,1.25,0.56,1.25,1.25c0,0.691-0.56,1.25-1.25,1.25h-25.936C120.394,27,114.355,20.921,114.355,13.5z"/>
		<path fill="#314040" d="M133.619,9.056c0-0.69,0.56-1.25,1.25-1.25h18.881c0.69,0,1.25,0.56,1.25,1.25s-0.56,1.25-1.25,1.25
			h-18.881C134.179,10.306,133.619,9.747,133.619,9.056z"/>
		<path fill="#314040" d="M133.619,17.944c0-0.69,0.56-1.25,1.25-1.25h18.881c0.69,0,1.25,0.56,1.25,1.25
			c0,0.69-0.56,1.25-1.25,1.25h-18.881C134.179,19.194,133.619,18.634,133.619,17.944z"/>
		<path fill="#314040" d="M93.619,13.5c0-0.69,0.56-1.25,1.25-1.25h20.736c0.69,0,1.25,0.56,1.25,1.25c0,0.69-0.56,1.25-1.25,1.25
			H94.869C94.179,14.75,93.619,14.19,93.619,13.5z"/>
		<path fill="#314040" d="M93.388,13.5c0,2.975-2.412,5.386-5.386,5.386H7.886c-2.975,0-5.386-2.411-5.386-5.386
			c0-2.975,2.412-5.386,5.386-5.386h80.116C90.976,8.114,93.388,10.525,93.388,13.5 M95.888,13.5c0-4.348-3.538-7.886-7.886-7.886
			H7.886C3.538,5.614,0,9.151,0,13.5c0,4.349,3.538,7.886,7.886,7.886h80.116C92.35,21.386,95.888,17.848,95.888,13.5L95.888,13.5z"
			/>
	</g>
</g>
</svg>
