<?xml version="1.0" encoding="utf-8"?>
<!-- Generator: Adobe Illustrator 17.0.0, SVG Export Plug-In . SVG Version: 6.00 Build 0)  -->
<!DOCTYPE svg PUBLIC "-//W3C//DTD SVG 1.1//EN" "http://www.w3.org/Graphics/SVG/1.1/DTD/svg11.dtd">
<svg version="1.1" id="Layer_1" xmlns="http://www.w3.org/2000/svg" xmlns:xlink="http://www.w3.org/1999/xlink" x="0px" y="0px"
	 width="101px" height="157px" viewBox="0 0 101 157" enable-background="new 0 0 101 157" xml:space="preserve">
<g>
	<path fill="#4FA84C" d="M50.169,148.613L90.737,58.6c0,0,17.483,27.127,4.244,58.939C81.742,149.35,50.169,148.613,50.169,148.613z
		"/>
	<path fill="#4FA84C" d="M50.84,148.613L10.272,58.6c0,0-17.483,27.127-4.244,58.939C19.267,149.35,50.84,148.613,50.84,148.613z"/>
	<g>
		<path fill="#314040" d="M44.04,148.956h12.618c0,0,0.092,6.375-5.497,6.375S44.04,148.956,44.04,148.956z"/>
		<g>
			<path fill="#314040" d="M50.645,157c-4.151,0-7.529-3.379-7.529-7.533c0-0.69,0.559-1.25,1.249-1.25
				c0.69,0,1.249,0.56,1.249,1.25c0,2.775,2.257,5.033,5.03,5.033c2.774,0,5.031-2.258,5.031-5.033c0-0.69,0.559-1.25,1.249-1.25
				c0.69,0,1.249,0.56,1.249,1.25C58.174,153.621,54.797,157,50.645,157z"/>
		</g>
		<path fill="#F2C000" d="M51.067,148.217L20.553,81.206c0,0,0.875-3.625,2.998-4.75c0,0-6.371-7.375,1.499-12.625
			c0,0-3.248-7.125,1.749-10.25c0,0-2.624-7,2.124-9.75c0,0-0.625-6,3.248-7.625c0,0-2.499-5.375,4.872-9.5
			c0,0,0.25-5.875,4.747-6.625c0,0,2.045-4.436,7.315-3.495h1.961l2.342-0.755c0,0,3.334,0.212,5.372,3.5
			c0,0,4.747,4.25,5.622,7.625c0,0,6.371,2.375,5.247,8.375c0,0,3.054,4.125,2.401,8.25c0,0,4.095,5,1.846,9.5
			c0,0,6.746,5.25,1.999,11.625c0,0,8.257,4.875,1.693,11.5l2.535,5.25L51.067,148.217z"/>
		<path fill="#314040" d="M47.708,16.586c-0.69,0-1.249-0.56-1.249-1.25c0-4.082-1.764-7.963-4.84-10.649
			c-0.52-0.453-0.573-1.243-0.12-1.764s1.243-0.573,1.763-0.119c3.62,3.16,5.696,7.728,5.696,12.532
			C48.958,16.026,48.398,16.586,47.708,16.586z"/>
		<path fill="#314040" d="M50.355,16.586c-0.69,0-1.249-0.56-1.249-1.25V1.25c0-0.69,0.559-1.25,1.249-1.25
			c0.69,0,1.249,0.56,1.249,1.25v14.086C51.604,16.026,51.045,16.586,50.355,16.586z"/>
		<path fill="#314040" d="M53.001,16.586c-0.69,0-1.249-0.56-1.249-1.25c0-4.804,2.076-9.371,5.697-12.532
			c0.52-0.454,1.309-0.401,1.763,0.119s0.4,1.31-0.12,1.764c-3.076,2.686-4.841,6.568-4.841,10.649
			C54.25,16.026,53.691,16.586,53.001,16.586z"/>
		<path fill="#314040" d="M80.247,83.022c-0.69,0-1.249-0.56-1.249-1.25c0-1.79-0.841-3.431-2.309-4.501
			c-0.323-0.234-0.513-0.61-0.513-1.01c0-0.399,0.191-0.774,0.513-1.01c1.467-1.071,2.309-2.712,2.309-4.501
			c0-2.314-1.471-4.412-3.661-5.22c-0.392-0.145-0.686-0.476-0.783-0.881c-0.098-0.406,0.014-0.835,0.298-1.142
			c0.967-1.045,1.5-2.387,1.5-3.779c0-2.078-1.166-3.971-3.042-4.94c-0.312-0.16-0.541-0.445-0.633-0.783
			c-0.092-0.339-0.037-0.7,0.151-0.996c0.574-0.906,0.877-1.936,0.877-2.978c0-1.881-0.944-3.625-2.526-4.665
			c-0.479-0.315-0.682-0.915-0.493-1.456c0.225-0.649,0.335-1.244,0.335-1.823c0-1.886-0.948-3.632-2.537-4.671
			c-0.492-0.321-0.694-0.943-0.483-1.493c0.257-0.669,0.386-1.34,0.386-1.993c0-2.61-1.78-4.843-4.33-5.43
			c-0.578-0.133-0.983-0.653-0.969-1.246c0.001-0.051,0.015-0.191,0.021-0.241c-0.003-2.422-1.705-4.629-4.142-5.285
			c-0.387-0.104-0.701-0.389-0.843-0.764c-1.06-2.794-4.078-4.396-7.16-3.235c-0.284,0.108-0.597,0.108-0.881,0
			c-3.073-1.16-6.099,0.441-7.16,3.235c-0.142,0.375-0.456,0.659-0.843,0.764c-2.437,0.656-4.138,2.863-4.138,5.367h0
			c0.008,0,0.016,0.078,0.018,0.159c0.014,0.593-0.391,1.113-0.969,1.246c-2.549,0.587-4.33,2.819-4.33,5.43
			c0,0.654,0.13,1.325,0.386,1.993c0.21,0.55,0.009,1.172-0.483,1.493c-1.588,1.039-2.537,2.785-2.537,4.671
			c0,0.579,0.11,1.175,0.335,1.823c0.189,0.541-0.015,1.141-0.493,1.456c-1.582,1.039-2.526,2.783-2.526,4.665
			c0,1.042,0.304,2.071,0.877,2.978c0.188,0.296,0.243,0.657,0.151,0.996c-0.092,0.338-0.321,0.623-0.633,0.783
			c-1.876,0.97-3.042,2.862-3.042,4.94c0,1.393,0.533,2.734,1.5,3.779c0.284,0.307,0.396,0.735,0.298,1.142
			c-0.097,0.405-0.391,0.736-0.783,0.881c-2.19,0.808-3.661,2.905-3.661,5.22c0,1.789,0.841,3.43,2.309,4.501
			c0.323,0.235,0.513,0.61,0.513,1.01c0,0.399-0.191,0.774-0.513,1.01c-1.467,1.07-2.308,2.711-2.308,4.501
			c0,0.69-0.559,1.25-1.249,1.25c-0.69,0-1.249-0.56-1.249-1.25c0-2.052,0.8-4.024,2.193-5.511c-1.393-1.487-2.193-3.46-2.193-5.511
			c0-2.806,1.487-5.391,3.825-6.846c-0.768-1.257-1.179-2.695-1.179-4.176c0-2.596,1.246-4.988,3.319-6.498
			c-0.442-1.013-0.673-2.1-0.673-3.199c0-2.41,1.067-4.663,2.895-6.192c-0.142-0.595-0.211-1.174-0.211-1.752
			c0-2.408,1.065-4.658,2.89-6.186c-0.171-0.656-0.257-1.315-0.257-1.971c0-3.447,2.142-6.44,5.316-7.586
			c0.293-3.11,2.388-5.795,5.354-6.845c1.66-3.517,5.754-5.512,9.691-4.264c3.942-1.249,8.032,0.747,9.691,4.264
			c2.967,1.05,5.062,3.734,5.354,6.845c3.174,1.145,5.316,4.139,5.316,7.586c0,0.654-0.086,1.315-0.257,1.971
			c1.826,1.528,2.891,3.778,2.891,6.186c0,0.578-0.07,1.157-0.211,1.752c1.828,1.529,2.895,3.782,2.895,6.192
			c0,1.1-0.23,2.187-0.672,3.199c2.073,1.51,3.319,3.903,3.319,6.498c0,1.48-0.411,2.919-1.179,4.176
			c2.338,1.455,3.825,4.04,3.825,6.846c0,2.051-0.801,4.023-2.194,5.511c1.393,1.486,2.194,3.459,2.194,5.511
			C81.497,82.463,80.937,83.022,80.247,83.022z"/>
		<g>
			<path fill="#314040" d="M50.665,150.48c-0.008-0.001-0.014-0.001-0.02,0C22.719,150.48,0,123.666,0,90.707
				c0-11.943,2.974-23.473,8.6-33.34c0.233-0.409,0.676-0.655,1.145-0.63c0.47,0.023,0.887,0.308,1.079,0.737L51.7,148.53
				c0.135,0.199,0.214,0.44,0.214,0.699C51.914,149.92,51.355,150.48,50.665,150.48z M9.578,60.801
				c-4.639,8.988-7.08,19.273-7.08,29.906c0,30.804,20.547,56.005,46.195,57.226L9.578,60.801z"/>
		</g>
		<g>
			<path fill="#314040" d="M50.355,150.48c-0.424,0-0.819-0.215-1.049-0.571c-0.23-0.355-0.264-0.804-0.091-1.19l40.959-91.243
				c0.193-0.43,0.61-0.714,1.079-0.737c0.467-0.028,0.912,0.221,1.145,0.63C98.026,67.235,101,78.764,101,90.707
				C101,123.666,78.281,150.48,50.355,150.48z M91.42,60.801l-39.114,87.132c25.648-1.221,46.195-26.422,46.195-57.226
				C98.501,80.073,96.06,69.789,91.42,60.801z"/>
		</g>
	</g>
</g>
</svg>
