<?xml version="1.0" encoding="utf-8"?>
<!-- Generator: Adobe Illustrator 17.0.0, SVG Export Plug-In . SVG Version: 6.00 Build 0)  -->
<!DOCTYPE svg PUBLIC "-//W3C//DTD SVG 1.1//EN" "http://www.w3.org/Graphics/SVG/1.1/DTD/svg11.dtd">
<svg version="1.1" id="Layer_1" xmlns="http://www.w3.org/2000/svg" xmlns:xlink="http://www.w3.org/1999/xlink" x="0px" y="0px"
	 width="82px" height="127.531px" viewBox="0 0 82 127.531" enable-background="new 0 0 82 127.531" xml:space="preserve">
<g>
	<path fill="#8C2816" d="M75.026,46.801c-0.233-0.408-0.646-0.645-1.145-0.629c-0.469,0.023-0.886,0.307-1.079,0.736L65.41,63.366
		c-0.236-0.428-0.513-0.834-0.838-1.204c1.073-1.223,1.687-2.805,1.687-4.445c0-2.267-1.162-4.362-3.004-5.599
		c0.566-1.002,0.868-2.131,0.868-3.291c0-2.107-0.981-4.055-2.624-5.322c0.322-0.797,0.489-1.645,0.489-2.501
		c0-1.966-0.85-3.807-2.311-5.083c0.097-0.449,0.144-0.887,0.144-1.325c0-1.964-0.847-3.801-2.305-5.077
		c0.119-0.5,0.178-1.003,0.178-1.503c0-2.833-1.729-5.298-4.308-6.293c-0.294-2.505-1.986-4.658-4.37-5.541
		c-0.925-1.887-2.699-3.228-4.723-3.647c0.132-3.046,1.49-5.914,3.798-7.928c0.52-0.454,0.574-1.243,0.121-1.762
		c-0.455-0.521-1.244-0.574-1.762-0.121c-2.184,1.906-3.677,4.437-4.319,7.209V1.249c0-0.69-0.559-1.249-1.249-1.249
		c-0.69,0-1.249,0.559-1.249,1.249v8.681c-0.643-2.77-2.135-5.3-4.317-7.205c-0.521-0.455-1.309-0.4-1.762,0.119
		c-0.454,0.52-0.4,1.309,0.119,1.762c2.323,2.028,3.684,4.919,3.802,7.984c-1.912,0.478-3.568,1.789-4.451,3.592
		c-2.385,0.884-4.077,3.036-4.371,5.541c-2.579,0.995-4.308,3.461-4.308,6.293c0,0.5,0.06,1.003,0.178,1.504
		c-1.457,1.275-2.304,3.113-2.304,5.076c0,0.439,0.048,0.878,0.144,1.325c-1.461,1.276-2.311,3.117-2.311,5.083
		c0,0.857,0.167,1.705,0.489,2.501c-1.644,1.267-2.625,3.215-2.625,5.322c0,1.16,0.302,2.29,0.868,3.291
		c-1.843,1.237-3.003,3.332-3.003,5.599c0,1.642,0.613,3.223,1.687,4.445c-0.336,0.382-0.62,0.802-0.861,1.246L9.197,46.908
		c-0.193-0.429-0.61-0.713-1.079-0.736c-0.487-0.018-0.912,0.221-1.145,0.629C2.411,54.796,0,64.137,0,73.815
		c0,24.198,15.129,44.309,34.825,47.889c0.251,3.255,2.974,5.827,6.292,5.827c3.335,0,6.067-2.599,6.295-5.877
		C66.991,117.956,82,97.915,82,73.815C82,64.138,79.589,54.797,75.026,46.801z M18.279,66.607c0-1.367,0.643-2.618,1.765-3.437
		c0.323-0.235,0.513-0.61,0.513-1.009c0-0.399-0.19-0.774-0.513-1.009c-1.122-0.818-1.765-2.07-1.765-3.437
		c0-1.767,1.125-3.368,2.798-3.986c0.391-0.144,0.685-0.475,0.782-0.881c0.097-0.405-0.015-0.833-0.299-1.138
		c-0.739-0.799-1.146-1.824-1.146-2.885c0-1.586,0.891-3.032,2.326-3.771c0.311-0.161,0.541-0.446,0.633-0.784
		c0.091-0.337,0.036-0.699-0.151-0.995c-0.439-0.691-0.671-1.477-0.671-2.273c0-1.437,0.722-2.767,1.93-3.561
		c0.478-0.314,0.682-0.914,0.493-1.455c-0.174-0.496-0.257-0.951-0.257-1.391c0-1.44,0.725-2.773,1.939-3.567
		c0.492-0.321,0.693-0.942,0.482-1.492c-0.196-0.512-0.296-1.024-0.296-1.522c0-1.993,1.361-3.698,3.309-4.147
		c0.576-0.132,0.979-0.65,0.969-1.241c-0.001-0.062-0.007-0.123-0.016-0.187c0.028-1.887,1.321-3.541,3.163-4.037
		c0.386-0.104,0.701-0.388,0.843-0.763c0.81-2.134,3.105-3.366,5.469-2.47c0.285,0.107,0.598,0.106,0.883-0.001
		c2.357-0.891,4.659,0.337,5.468,2.471c0.142,0.375,0.456,0.659,0.843,0.763c1.845,0.497,3.138,2.155,3.162,4.045
		c-0.007,0.059-0.014,0.139-0.015,0.178c-0.011,0.591,0.393,1.109,0.969,1.241c1.948,0.449,3.308,2.154,3.308,4.147
		c0,0.5-0.099,1.011-0.295,1.522c-0.211,0.549-0.01,1.171,0.482,1.492c1.214,0.794,1.939,2.127,1.939,3.567
		c0,0.438-0.084,0.894-0.257,1.393c-0.187,0.54,0.016,1.139,0.494,1.453c1.209,0.794,1.93,2.125,1.93,3.561
		c0,0.795-0.232,1.581-0.671,2.274c-0.187,0.296-0.242,0.657-0.15,0.995c0.092,0.338,0.321,0.622,0.632,0.782
		c1.434,0.741,2.324,2.186,2.324,3.772c0,1.061-0.407,2.087-1.146,2.885c-0.284,0.305-0.395,0.734-0.299,1.138
		c0.098,0.406,0.391,0.736,0.782,0.881c1.674,0.617,2.799,2.219,2.799,3.986c0,1.366-0.644,2.618-1.765,3.437
		c-0.323,0.235-0.513,0.61-0.513,1.009c0,0.399,0.19,0.773,0.513,1.009c1.121,0.818,1.765,2.071,1.765,3.437
		c0,0.105,0.035,0.199,0.06,0.297l-22.822,50.811L18.206,66.968C18.242,66.852,18.279,66.735,18.279,66.607z M2.497,73.815
		c0-8.366,1.882-16.46,5.461-23.569l31.203,69.47C18.772,118.499,2.497,98.376,2.497,73.815z M41.117,125.034
		c-1.813,0-3.328-1.273-3.717-2.97c1.125,0.119,2.261,0.188,3.41,0.198c0.024,0.002,0.048,0.009,0.073,0.009
		c0.039,0,0.078-0.003,0.117-0.004c0.039,0,0.078,0.004,0.117,0.004c0,0,0.016,0,0.019,0c0.016,0,0.029-0.008,0.044-0.009
		c1.234-0.011,2.454-0.084,3.66-0.22C44.46,123.75,42.938,125.034,41.117,125.034z M42.839,119.716l31.202-69.47
		c3.58,7.11,5.462,15.205,5.462,23.569C79.503,98.376,63.228,118.499,42.839,119.716z"/>
	<path opacity="0.25" fill="#8C2816" d="M42.576,14.027c0,0,4.197,1.563,3.011,5.443c0,0,3.416,0.579,3.069,4.748
		c0,0,4.088,1.911,2.605,6.253c0,0,2.142,2.625,1.37,6.639c0,0,3.011,3.32,1.39,7.72c0,0,3.551,3.242,1.141,8.002
		c0,0,3.799,3.693,1.599,9.078c0,0,7.074,2.02-1.097,23.039l0.749,0.565l4.555-8.801l4.014-10.885l-2.007-3.32
		c0,0,1.93-4.941,2.007-5.172c0.077-0.232-1.312-4.092-1.312-4.092l-2.239-1.467l1.39-3.628l-0.849-3.165l-1.776-1.312l0.445-4.246
		l-2.066-3.088l-0.772-4.632l-2.084-2.625l-0.154-4.555l-2.625-2.084c0,0-1.39-0.386-1.39-0.772s-0.926-2.856-0.926-2.856
		l-1.467-2.393c0,0-2.007,0.232-2.084-0.077c-0.077-0.309-0.926-2.316-1.158-2.393c-0.232-0.077-3.257-0.389-3.257-0.389H41.5
		l-1,0.544"/>
	<path opacity="0.25" fill="#8C2816" d="M73.999,49.782c0,0,13.912,52.562-31.687,70.55l-0.598,0.559l0.83,1.747l4.471-2.063
		l4.651-0.284l15.093-9.443l6.485-9.276c0,0,4.169-8.801,4.323-9.264c0.154-0.463,3.088-12.97,3.088-12.97v-7.102v-6.794
		l-2.625-9.573l-2.779-6.088H73.999z"/>
</g>
</svg>
